<svg width="544" height="393" viewBox="0 0 544 393" fill="none" xmlns="http://www.w3.org/2000/svg">
<path d="M379.635 117.694C396.968 111.744 406.193 92.8817 400.235 75.563C394.282 58.2447 375.402 49.0285 358.067 54.978C340.733 60.9276 331.508 79.7903 337.464 97.109C343.419 114.427 362.299 123.644 379.635 117.694Z" fill="#DADDDF"/>
<path opacity="0.05" d="M379.635 117.694C396.968 111.744 406.193 92.8817 400.235 75.563C394.282 58.2447 375.402 49.0285 358.067 54.978C340.733 60.9276 331.508 79.7903 337.464 97.109C343.419 114.427 362.299 123.644 379.635 117.694Z" fill="black"/>
<path d="M368.683 119.049C386.963 117.683 400.671 101.772 399.301 83.5104C397.935 65.2497 382.008 51.554 363.73 52.9208C345.452 54.2872 331.744 70.1987 333.112 88.4594C334.48 106.721 350.405 120.416 368.683 119.049Z" fill="#DADDDF"/>
<path opacity="0.4" d="M368.683 119.049C386.963 117.683 400.671 101.772 399.301 83.5104C397.935 65.2497 382.008 51.554 363.73 52.9208C345.452 54.2872 331.744 70.1987 333.112 88.4594C334.48 106.721 350.405 120.416 368.683 119.049Z" fill="white"/>
<path d="M379.676 108.876C392.358 101.447 396.605 85.1533 389.173 72.4844C381.736 59.816 365.426 55.5687 352.745 62.9984C340.065 70.4281 335.814 86.7213 343.251 99.3902C350.687 112.059 366.995 116.306 379.676 108.876Z" fill="#DADDDF"/>
<path opacity="0.05" d="M341.008 84.8333C341.3 81.3535 342.276 77.9648 343.879 74.8617C345.481 71.7582 347.681 69.0006 350.35 66.7466C353.02 64.4922 356.108 62.7854 359.438 61.7237C362.767 60.6615 366.274 60.2653 369.757 60.5573C375.243 61.0106 380.747 63.6581 384.731 66.8631C382.231 64.3857 379.259 62.4291 375.996 61.1071C372.729 59.7848 369.234 59.1238 365.711 59.1614C362.188 59.1995 358.708 59.9357 355.473 61.3279C352.237 62.7201 349.31 64.7402 346.862 67.2711C344.414 69.8016 342.493 72.7932 341.211 76.0717C339.928 79.3497 339.311 82.8499 339.393 86.3687C339.475 89.8875 340.256 93.355 341.69 96.5701C343.124 99.7846 345.182 102.683 347.746 105.097C345.296 102.159 343.509 98.7279 342.505 95.0378C341.62 91.9869 340.708 88.1834 341.008 84.8333Z" fill="black"/>
<path opacity="0.08" d="M363.059 104.176L363.377 100.373C359.093 99.8154 357.065 98.1698 357.501 92.9972C357.587 91.8848 357.763 90.7814 358.027 89.697L363.472 90.1503C363.365 90.6467 363.289 91.1495 363.245 91.6554C363.059 93.9221 363.096 95.1823 365.296 95.3682C367.497 95.5541 367.756 94.7879 367.996 91.9093C368.119 90.4949 368.159 90.0052 367.433 89.2572C365.95 87.6071 362.029 86.2471 360.237 84.7239C358.626 83.4092 358.372 81.7183 358.758 77.1759C359.211 71.9535 360.904 70.3261 365.909 70.5029L366.163 67.4791L369.239 67.7375L368.99 70.7613C373.564 71.3415 375.043 73.0869 374.653 77.7245C374.569 78.7204 374.417 79.7096 374.199 80.6847L368.822 80.2314C368.914 79.682 368.978 79.1284 369.012 78.5722C369.185 76.5231 368.976 75.4759 366.925 75.3036C365.165 75.154 364.629 75.6981 364.42 78.1415C364.207 80.6802 364.334 80.9341 365.936 81.8045C367.674 82.7882 369.384 83.4727 370.886 84.3341C372.996 85.5943 374.421 86.2063 373.999 91.2338C373.405 98.3103 371.88 100.64 366.471 100.582L366.149 104.435L363.059 104.176Z" fill="black"/>
<path d="M210.878 34.5659C219.927 31.4596 224.743 21.6132 221.634 12.5728C218.525 3.53246 208.67 -1.27877 199.621 1.82702C190.572 4.9328 185.757 14.7797 188.866 23.82C191.974 32.8604 201.83 37.6716 210.878 34.5659Z" fill="#DADDDF"/>
<path opacity="0.05" d="M210.878 34.5659C219.927 31.4596 224.743 21.6132 221.634 12.5728C218.525 3.53246 208.67 -1.27877 199.621 1.82702C190.572 4.9328 185.757 14.7797 188.866 23.82C191.974 32.8604 201.83 37.6716 210.878 34.5659Z" fill="black"/>
<path d="M205.162 35.2807C214.703 34.5672 221.859 26.2612 221.145 16.729C220.431 7.19628 212.117 0.0472144 202.576 0.760761C193.035 1.47385 185.879 9.77983 186.593 19.3125C187.307 28.8448 195.621 35.9938 205.162 35.2807Z" fill="#DADDDF"/>
<path opacity="0.4" d="M205.162 35.2807C214.703 34.5672 221.859 26.2612 221.145 16.729C220.431 7.19628 212.117 0.0472144 202.576 0.760761C193.035 1.47385 185.879 9.77983 186.593 19.3125C187.307 28.8448 195.621 35.9938 205.162 35.2807Z" fill="white"/>
<path d="M210.906 29.9676C217.527 26.0884 219.746 17.5807 215.863 10.9657C211.98 4.35066 203.465 2.13295 196.844 6.01212C190.223 9.89175 188.003 18.3995 191.886 25.0145C195.769 31.6295 204.284 33.8472 210.906 29.9676Z" fill="#DADDDF"/>
<path opacity="0.05" d="M190.708 17.418C190.857 15.5993 191.365 13.8281 192.201 12.2056C193.036 10.5827 194.184 9.14063 195.578 7.96197C196.972 6.78285 198.585 5.89023 200.325 5.33445C202.065 4.77911 203.897 4.57194 205.718 4.72471C208.588 5.05882 211.302 6.21074 213.536 8.04311C212.239 6.70759 210.688 5.64634 208.973 4.92237C207.257 4.19794 205.414 3.8253 203.552 3.82666C201.69 3.82802 199.848 4.20338 198.134 4.93053C196.42 5.65722 194.87 6.7212 193.575 8.05808C192.281 9.39541 191.269 10.9789 190.599 12.7147C189.929 14.4505 189.616 16.3028 189.676 18.1624C189.737 20.0215 190.172 21.8494 190.954 23.5376C191.736 25.2258 192.849 26.7399 194.229 27.9898C192.954 26.4539 192.026 24.6619 191.506 22.7356C191.034 21.1535 190.558 19.1679 190.708 17.418Z" fill="black"/>
<path opacity="0.08" d="M202.228 27.5369L202.396 25.5513C200.159 25.2612 199.097 24.4044 199.329 21.7025C199.369 21.1214 199.461 20.5452 199.601 19.9799L202.432 20.2201C202.374 20.4781 202.335 20.7406 202.314 21.0044C202.214 22.174 202.237 22.8449 203.385 22.9401C204.533 23.0353 204.669 22.6364 204.796 21.1268C204.855 20.3879 204.878 20.1295 204.501 19.7396C203.725 18.8783 201.679 18.1711 200.744 17.3732C199.9 16.6841 199.769 15.8001 199.968 13.4337C200.2 10.7137 201.094 9.85693 203.703 9.9476L203.839 8.37L205.445 8.506L205.313 10.0836C207.7 10.3828 208.49 11.2985 208.267 13.7103C208.227 14.2302 208.149 14.7466 208.036 15.2561L205.232 15.0204C205.273 14.7937 205.295 14.5353 205.327 14.1545C205.418 13.0847 205.327 12.5361 204.238 12.4455C203.331 12.3684 203.04 12.654 202.931 13.9279C202.822 15.2017 202.886 15.3876 203.721 15.8409C204.628 16.3532 205.536 16.7113 206.307 17.1647C207.41 17.822 208.154 18.1393 207.932 20.7641C207.623 24.4588 206.824 25.6737 204.002 25.642L203.834 27.6548L202.228 27.5369Z" fill="black"/>
<path d="M72.5627 185.715C86.0364 181.09 93.2065 166.429 88.5778 152.968C83.9491 139.507 69.2739 132.343 55.8003 136.967C42.3266 141.592 35.1565 156.254 39.7856 169.715C44.4143 183.176 59.0891 190.34 72.5627 185.715Z" fill="#DADDDF"/>
<path opacity="0.05" d="M72.5627 185.715C86.0364 181.09 93.2065 166.429 88.5778 152.968C83.9491 139.507 69.2739 132.343 55.8003 136.967C42.3266 141.592 35.1565 156.254 39.7856 169.715C44.4143 183.176 59.0891 190.34 72.5627 185.715Z" fill="black"/>
<path d="M64.0379 186.746C78.2448 185.684 88.8998 173.316 87.8366 159.122C86.7731 144.929 74.3943 134.283 60.1874 135.346C45.9809 136.408 35.3255 148.775 36.3891 162.969C37.4522 177.163 49.831 187.808 64.0379 186.746Z" fill="#DADDDF"/>
<path opacity="0.4" d="M64.0379 186.746C78.2448 185.684 88.8998 173.316 87.8366 159.122C86.7731 144.929 74.3943 134.283 60.1874 135.346C45.9809 136.408 35.3255 148.775 36.3891 162.969C37.4522 177.163 49.831 187.808 64.0379 186.746Z" fill="white"/>
<path d="M72.5959 178.852C82.4509 173.078 85.7551 160.415 79.9752 150.569C74.1958 140.723 61.5212 137.422 51.6662 143.196C41.8112 148.971 38.5075 161.633 44.2869 171.479C50.0663 181.325 62.7409 184.626 72.5959 178.852Z" fill="#DADDDF"/>
<path opacity="0.05" d="M42.5164 160.16C42.9761 154.697 45.5883 149.64 49.7791 146.102C53.97 142.564 59.3959 140.834 64.8636 141.292C69.1289 141.65 73.4077 143.704 76.5068 146.192C74.5535 144.307 72.2475 142.824 69.7205 141.828C67.1936 140.833 64.4952 140.345 61.7795 140.391C59.0638 140.438 56.3839 141.018 53.8924 142.1C51.4013 143.181 49.1475 144.742 47.2604 146.693C45.3728 148.644 43.8886 150.948 42.8921 153.473C41.8962 155.998 41.407 158.694 41.4537 161.407C41.5005 164.12 42.0813 166.798 43.1635 169.287C44.2461 171.775 45.8084 174.027 47.7618 175.913C45.8551 173.629 44.4621 170.962 43.678 168.093C43.0065 165.722 42.2986 162.766 42.5164 160.16Z" fill="black"/>
<path opacity="0.08" d="M59.682 175.196L59.927 172.24C56.601 171.787 55.022 170.526 55.3623 166.505C55.4285 165.64 55.5651 164.782 55.7706 163.939L59.986 164.293C59.902 164.679 59.8426 165.07 59.809 165.463C59.6638 167.213 59.6956 168.183 61.4017 168.35C63.1078 168.518 63.3165 167.897 63.5025 165.662C63.5933 164.561 63.6251 164.18 63.0488 163.599C61.8963 162.317 58.8471 161.26 57.4586 160.073C56.2062 159.048 56.0066 157.733 56.3061 154.206C56.6464 150.126 57.9759 148.884 61.8645 149.016L62.0642 146.667L64.4554 146.867L64.2603 149.22C67.8177 149.673 68.9657 151.033 68.6617 154.633C68.5995 155.406 68.4843 156.174 68.3168 156.931L64.1378 156.582C64.2013 156.242 64.2331 155.866 64.283 155.294C64.4191 153.703 64.2558 152.887 62.6631 152.751C61.3019 152.638 60.8753 153.059 60.7165 154.959C60.5532 156.931 60.6485 157.13 61.8917 157.806C63.253 158.572 64.5734 159.102 65.7441 159.773C67.3821 160.753 68.4893 161.229 68.1626 165.136C67.7088 170.635 66.5154 172.449 62.3092 172.39L62.0596 175.386L59.682 175.196Z" fill="black"/>
<path d="M433.754 54.3438C442.311 51.4062 446.867 42.0934 443.927 33.5431C440.986 24.9927 431.662 20.4426 423.104 23.3802C414.546 26.3178 409.991 35.6302 412.931 44.1805C415.871 52.7308 425.196 57.281 433.754 54.3438Z" fill="#DADDDF"/>
<path opacity="0.05" d="M433.754 54.3438C442.311 51.4062 446.867 42.0934 443.927 33.5431C440.986 24.9927 431.662 20.4426 423.104 23.3802C414.546 26.3178 409.991 35.6302 412.931 44.1805C415.871 52.7308 425.196 57.281 433.754 54.3438Z" fill="black"/>
<path d="M428.349 55.0461C437.37 54.3715 444.14 46.5157 443.464 37.5003C442.788 28.4844 434.924 21.7229 425.904 22.3975C416.879 23.0725 410.109 30.9278 410.785 39.9437C411.461 48.9592 419.324 55.7206 428.349 55.0461Z" fill="#DADDDF"/>
<path opacity="0.4" d="M428.349 55.0461C437.37 54.3715 444.14 46.5157 443.464 37.5003C442.788 28.4844 434.924 21.7229 425.904 22.3975C416.879 23.0725 410.109 30.9278 410.785 39.9437C411.461 48.9592 419.324 55.7206 428.349 55.0461Z" fill="white"/>
<path d="M433.772 49.9937C440.034 46.3257 442.13 38.2818 438.459 32.0276C434.788 25.773 426.739 23.6763 420.477 27.3442C414.215 31.0121 412.119 39.0561 415.79 45.3107C419.461 51.5649 427.515 53.6616 433.772 49.9937Z" fill="#DADDDF"/>
<path opacity="0.05" d="M414.678 38.1354C414.973 34.6674 416.634 31.4578 419.297 29.2111C421.956 26.9643 425.4 25.8632 428.871 26.1493C431.585 26.4566 434.153 27.536 436.268 29.2591C435.051 27.9494 433.581 26.9009 431.943 26.1783C430.31 25.4552 428.545 25.0735 426.757 25.0554C424.965 25.0372 423.195 25.3836 421.543 26.0736C419.892 26.7631 418.403 27.7817 417.16 29.0665C415.917 30.3517 414.95 31.8762 414.315 33.5477C413.684 35.2186 413.399 37.0012 413.476 38.7864C413.557 40.5716 413.998 42.3215 414.778 43.9299C415.558 45.5383 416.656 46.9709 418.009 48.1405C416.797 46.6848 415.917 44.9834 415.427 43.1538C414.969 41.6669 414.537 39.7765 414.678 38.1354Z" fill="black"/>
<path opacity="0.08" d="M425.573 47.683L425.731 45.8062C423.617 45.5342 422.614 44.7227 422.827 42.1795C422.868 41.631 422.955 41.0865 423.086 40.552L425.763 40.7742C425.713 41.0199 425.677 41.2679 425.654 41.5177C425.564 42.6283 425.582 43.2585 426.666 43.331C427.751 43.4035 427.882 43.0454 428 41.6219C428.059 40.9238 428.082 40.6835 427.723 40.3163C426.988 39.5003 425.051 38.8294 424.171 38.0723C423.372 37.424 423.263 36.5899 423.436 34.3459C423.653 31.771 424.497 30.9641 426.97 31.0502L427.097 29.5587L428.613 29.6856L428.49 31.1771C430.759 31.4673 431.48 32.3286 431.285 34.6179C431.245 35.1102 431.172 35.5994 431.068 36.0822L428.413 35.8555C428.459 35.5853 428.49 35.3129 428.504 35.0395C428.59 34.0286 428.504 33.5072 427.474 33.4256C426.607 33.3531 426.339 33.6206 426.24 34.8264C426.14 36.0323 426.199 36.1864 426.988 36.6398C427.846 37.1248 428.69 37.4649 429.434 37.891C430.473 38.5121 431.176 38.7977 430.968 41.2955C430.673 44.7907 429.924 45.9422 427.251 45.9105L427.093 47.8144L425.573 47.683Z" fill="black"/>
<path d="M542.345 392.193H1.02096C0.840365 392.193 0.667037 392.121 0.539533 391.994C0.412029 391.867 0.340332 391.695 0.340332 391.513C0.340332 391.332 0.412029 391.16 0.539533 391.033C0.667037 390.906 0.840365 390.833 1.02096 390.833H542.345C542.527 390.833 542.699 390.906 542.826 391.033C542.953 391.16 543.026 391.332 543.026 391.513C543.026 391.695 542.953 391.867 542.826 391.994C542.699 392.121 542.527 392.193 542.345 392.193Z" fill="#B2B6BB"/>
<path d="M276.017 379.536H427.959C431.195 379.536 434.294 380.819 436.581 383.104C438.867 385.389 440.152 388.485 440.152 391.717H265.571V389.976C265.569 388.607 265.839 387.247 266.363 385.983C266.887 384.713 267.656 383.562 268.626 382.592C269.597 381.621 270.749 380.855 272.017 380.329C273.285 379.804 274.644 379.536 276.017 379.536Z" fill="#21252B"/>
<path opacity="0.3" d="M276.017 379.536H427.959C431.195 379.536 434.294 380.819 436.581 383.104C438.867 385.389 440.152 388.485 440.152 391.717H265.571V389.976C265.569 388.607 265.839 387.247 266.363 385.983C266.887 384.713 267.656 383.562 268.626 382.592C269.597 381.621 270.749 380.855 272.017 380.329C273.285 379.804 274.644 379.536 276.017 379.536Z" fill="black"/>
<path d="M384.249 356.049H326.804V385.624H384.249V356.049Z" fill="#21252B"/>
<path d="M202.241 120.166H509.348C511.889 120.166 514.326 121.175 516.123 122.97C517.92 124.766 518.932 127.201 518.932 129.74V346.434C518.932 347.692 518.682 348.938 518.201 350.099C517.72 351.262 517.012 352.318 516.123 353.207C515.234 354.095 514.176 354.802 513.01 355.283C511.849 355.763 510.601 356.013 509.344 356.013H202.241C199.699 356.013 197.261 355.002 195.465 353.207C193.667 351.413 192.658 348.977 192.658 346.438V129.745C192.658 127.205 193.667 124.77 195.464 122.973C197.261 121.177 199.699 120.167 202.241 120.166Z" fill="#21252B"/>
<g opacity="0.3">
<path opacity="0.3" d="M202.241 120.166H509.348C511.889 120.166 514.326 121.175 516.123 122.97C517.92 124.766 518.932 127.201 518.932 129.74V346.434C518.932 347.692 518.682 348.938 518.201 350.099C517.72 351.262 517.012 352.318 516.123 353.207C515.234 354.095 514.176 354.802 513.01 355.283C511.849 355.763 510.601 356.013 509.344 356.013H202.241C199.699 356.013 197.261 355.002 195.465 353.207C193.667 351.413 192.658 348.977 192.658 346.438V129.745C192.658 127.205 193.667 124.77 195.464 122.973C197.261 121.177 199.699 120.167 202.241 120.166Z" fill="black"/>
</g>
<path d="M197.018 120.166H504.103C506.644 120.166 509.081 121.175 510.878 122.97C512.675 124.766 513.686 127.201 513.686 129.74V346.434C513.686 347.692 513.437 348.938 512.956 350.099C512.475 351.262 511.767 352.318 510.878 353.207C509.988 354.095 508.931 354.802 507.77 355.283C506.603 355.763 505.356 356.013 504.099 356.013H197.014C194.472 356.013 192.035 355.002 190.238 353.207C188.44 351.413 187.431 348.977 187.431 346.438V129.745C187.431 127.204 188.441 124.768 190.239 122.972C192.037 121.175 194.476 120.166 197.018 120.166Z" fill="#21252B"/>
<path opacity="0.3" d="M384.249 356.049H326.804V385.624H384.249V356.049Z" fill="black"/>
<path d="M379.281 356.049H321.836V385.624H379.281V356.049Z" fill="#21252B"/>
<path opacity="0.3" d="M379.199 356.049H321.732V361.267H379.199V356.049Z" fill="black"/>
<path d="M276.207 381.277H424.915C427.683 381.277 430.337 382.374 432.293 384.332C434.253 386.286 435.351 388.938 435.351 391.704H265.757C265.757 390.334 266.028 388.974 266.553 387.71C267.079 386.445 267.848 385.293 268.819 384.328C269.789 383.358 270.941 382.592 272.209 382.066C273.477 381.544 274.836 381.277 276.207 381.277Z" fill="#21252B"/>
<path d="M350.246 347.78C353.491 347.78 356.122 345.152 356.122 341.909C356.122 338.667 353.491 336.039 350.246 336.039C347 336.039 344.37 338.667 344.37 341.909C344.37 345.152 347 347.78 350.246 347.78Z" fill="#868A91"/>
<path opacity="0.2" d="M350.245 336.039C349.955 336.04 349.665 336.064 349.378 336.111C350.768 336.321 352.037 337.021 352.953 338.086C353.87 339.15 354.373 340.507 354.373 341.912C354.373 343.316 353.87 344.673 352.953 345.737C352.037 346.802 350.768 347.502 349.378 347.712C349.665 347.757 349.955 347.781 350.245 347.785C351.058 347.852 351.877 347.751 352.649 347.486C353.42 347.222 354.129 346.8 354.73 346.248C355.33 345.697 355.809 345.026 356.137 344.28C356.465 343.533 356.634 342.727 356.634 341.912C356.634 341.096 356.465 340.29 356.137 339.544C355.809 338.797 355.33 338.126 354.73 337.575C354.129 337.023 353.42 336.601 352.649 336.337C351.877 336.072 351.058 335.971 350.245 336.039Z" fill="black"/>
<path d="M199.628 126.816H501.49C502.656 126.816 503.776 127.28 504.602 128.104C505.428 128.929 505.891 130.047 505.891 131.214V328.21H195.231V131.218C195.231 130.641 195.344 130.069 195.564 129.535C195.785 129.001 196.109 128.516 196.517 128.107C196.925 127.699 197.41 127.374 197.944 127.153C198.478 126.932 199.05 126.817 199.628 126.816Z" fill="white"/>
<path d="M229.821 180.151H219.466V295.674H229.821V180.151Z" fill="#89CDFE"/>
<path d="M249.808 219.387H239.454V295.674H249.808V219.387Z" fill="#89CDFE"/>
<path d="M269.795 194.508H259.44V296.259H269.795V194.508Z" fill="#89CDFE"/>
<path d="M289.783 184.612H279.428V295.674H289.783V184.612Z" fill="#89CDFE"/>
<path d="M309.776 221.736H299.422V295.675H309.776V221.736Z" fill="#89CDFE"/>
<path d="M329.762 236.237H319.408V295.678H329.762V236.237Z" fill="#89CDFE"/>
<path d="M349.751 192.006H339.396V295.674H349.751V192.006Z" fill="#89CDFE"/>
<path d="M369.739 210.696H359.384V295.674H369.739V210.696Z" fill="#89CDFE"/>
<path d="M389.731 195.764H379.376V295.679H389.731V195.764Z" fill="#89CDFE"/>
<path d="M409.718 227.606H399.364V295.674H409.718V227.606Z" fill="#89CDFE"/>
<path d="M449.589 192.006H439.235V295.674H449.589V192.006Z" fill="#89CDFE"/>
<path d="M492.038 258.705H481.684V294.178H492.038V258.705Z" fill="#89CDFE"/>
<path d="M471.347 227.606H460.992V295.674H471.347V227.606Z" fill="#89CDFE"/>
<path d="M429.706 214.654H419.352V295.674H429.706V214.654Z" fill="#89CDFE"/>
<g opacity="0.2">
<path opacity="0.2" d="M229.385 179.715H219.03V295.238H229.385V179.715Z" fill="black"/>
</g>
<g opacity="0.2">
<path opacity="0.2" d="M249.372 218.952H239.018V295.239H249.372V218.952Z" fill="black"/>
</g>
<g opacity="0.2">
<path opacity="0.2" d="M269.36 194.073H259.006V295.823H269.36V194.073Z" fill="black"/>
</g>
<g opacity="0.2">
<path opacity="0.2" d="M289.347 184.176H278.992V295.238H289.347V184.176Z" fill="black"/>
</g>
<g opacity="0.2">
<path opacity="0.2" d="M309.34 221.3H298.986V295.239H309.34V221.3Z" fill="black"/>
</g>
<g opacity="0.2">
<path opacity="0.2" d="M329.328 235.802H318.974V295.243H329.328V235.802Z" fill="black"/>
</g>
<g opacity="0.2">
<path opacity="0.2" d="M349.315 191.571H338.96V295.239H349.315V191.571Z" fill="black"/>
</g>
<g opacity="0.2">
<path opacity="0.2" d="M369.303 210.261H358.948V295.239H369.303V210.261Z" fill="black"/>
</g>
<g opacity="0.2">
<path opacity="0.2" d="M389.295 195.329H378.94V295.244H389.295V195.329Z" fill="black"/>
</g>
<g opacity="0.2">
<path opacity="0.2" d="M409.283 227.17H398.928V295.238H409.283V227.17Z" fill="black"/>
</g>
<g opacity="0.2">
<path opacity="0.2" d="M449.154 191.571H438.799V295.239H449.154V191.571Z" fill="black"/>
</g>
<g opacity="0.2">
<path opacity="0.2" d="M491.602 258.27H481.248V293.743H491.602V258.27Z" fill="black"/>
</g>
<g opacity="0.2">
<path opacity="0.2" d="M470.911 227.17H460.557V295.238H470.911V227.17Z" fill="black"/>
</g>
<g opacity="0.2">
<path opacity="0.2" d="M429.271 214.219H418.916V295.239H429.271V214.219Z" fill="black"/>
</g>
<path d="M491.956 304.287H207.668V156.401C207.647 156.333 207.642 156.261 207.654 156.191C207.666 156.121 207.694 156.055 207.736 155.997C207.778 155.94 207.833 155.894 207.897 155.861C207.96 155.83 208.03 155.813 208.101 155.813C208.172 155.813 208.242 155.83 208.306 155.861C208.369 155.894 208.424 155.94 208.467 155.997C208.509 156.055 208.537 156.121 208.549 156.191C208.56 156.261 208.555 156.333 208.535 156.401V303.417H491.956C492.052 303.444 492.133 303.501 492.192 303.58C492.251 303.659 492.283 303.754 492.283 303.852C492.283 303.95 492.251 304.045 492.192 304.124C492.133 304.203 492.052 304.26 491.956 304.287Z" fill="black"/>
<path d="M225.95 210.77C227.055 209.332 228.288 207.996 229.634 206.78C230.324 206.191 230.995 205.575 231.717 205.031C232.075 204.754 232.429 204.468 232.792 204.196L233.922 203.43C236.903 201.359 240.098 199.613 243.451 198.221C250.179 195.351 257.469 194.033 264.777 194.364C272.093 194.819 279.176 197.104 285.377 201.009C286.176 201.463 286.893 202.016 287.646 202.528C288.405 203.033 289.138 203.576 289.842 204.156L291.966 205.878C292.637 206.49 293.295 207.12 293.962 207.741L294.961 208.675L295.895 209.673L297.76 211.672C298.35 212.361 298.917 213.073 299.498 213.775C300.079 214.478 300.678 215.167 301.191 215.92L302.792 218.127C303.051 218.499 303.337 218.857 303.577 219.243L304.317 220.389L307.244 224.977C308.206 226.5 309.204 228.033 310.143 229.583C311.082 231.133 312.012 232.693 312.934 234.252C316.595 240.513 320.171 246.814 324.141 252.839C328.112 258.864 332.449 264.712 337.686 269.662C340.287 272.148 343.182 274.308 346.307 276.095C349.424 277.864 352.832 279.061 356.371 279.631C359.913 280.165 363.525 280.035 367.021 279.25C368.772 278.864 370.493 278.352 372.171 277.718C373.85 277.079 375.492 276.346 377.089 275.524C380.275 273.846 383.31 271.897 386.164 269.699C388.959 267.43 391.505 264.874 393.765 262.073C398.347 256.493 402.159 250.314 405.984 244.167C409.809 238.02 413.616 231.823 417.931 225.975C420.073 223.036 422.36 220.209 424.788 217.502C427.215 214.789 429.824 212.247 432.597 209.89C438.137 205.15 444.435 201.369 451.228 198.707C458.034 196.124 465.18 194.551 472.445 194.037C479.691 193.526 486.965 193.732 494.17 194.649C486.965 193.8 479.696 193.667 472.463 194.25C465.239 194.829 458.138 196.463 451.386 199.101C444.662 201.787 438.432 205.575 432.95 210.307C430.21 212.662 427.633 215.202 425.237 217.91C422.836 220.614 420.577 223.437 418.462 226.369C414.206 232.217 410.426 238.4 406.615 244.566C402.803 250.731 398.987 256.928 394.364 262.577C392.072 265.424 389.486 268.024 386.65 270.333C385.924 270.895 385.198 271.457 384.445 271.965L383.319 272.749C382.943 273.003 382.557 273.244 382.176 273.493C380.651 274.499 379.059 275.397 377.448 276.258C375.828 277.106 374.161 277.863 372.457 278.525C370.74 279.175 368.979 279.702 367.188 280.103C363.591 280.914 359.874 281.05 356.226 280.506C352.589 279.923 349.085 278.694 345.88 276.879C342.703 275.051 339.761 272.844 337.118 270.306C331.814 265.274 327.454 259.381 323.479 253.311C319.504 247.24 315.933 240.907 312.285 234.651C311.377 233.087 310.47 231.528 309.508 229.987C308.546 228.445 307.593 226.927 306.626 225.381L303.732 220.788L303.006 219.646C302.765 219.261 302.488 218.907 302.23 218.535L300.623 216.323C300.12 215.571 299.521 214.895 298.958 214.188C298.395 213.481 297.828 212.783 297.247 212.093L295.41 210.108L294.502 209.115L293.522 208.208C292.864 207.592 292.215 206.962 291.553 206.354L289.466 204.636C288.772 204.059 288.049 203.517 287.301 203.013C286.557 202.505 285.849 201.939 285.064 201.504C278.953 197.608 271.96 195.307 264.727 194.812C257.478 194.418 250.233 195.657 243.528 198.439C240.168 199.792 236.962 201.502 233.967 203.539L232.847 204.314C232.484 204.582 232.13 204.863 231.767 205.135C231.036 205.67 230.365 206.277 229.67 206.857C228.316 208.048 227.071 209.358 225.95 210.77Z" fill="black"/>
<path d="M444.748 204.187C445.815 204.187 446.677 203.324 446.677 202.26C446.677 201.196 445.815 200.333 444.748 200.333C443.682 200.333 442.82 201.196 442.82 202.26C442.82 203.324 443.682 204.187 444.748 204.187Z" fill="black"/>
<path d="M364.308 282.101C365.373 282.101 366.237 281.238 366.237 280.174C366.237 279.11 365.373 278.248 364.308 278.248C363.243 278.248 362.38 279.11 362.38 280.174C362.38 281.238 363.243 282.101 364.308 282.101Z" fill="black"/>
<path d="M284.716 202.5C285.781 202.5 286.644 201.637 286.644 200.573C286.644 199.509 285.781 198.647 284.716 198.647C283.651 198.647 282.787 199.509 282.787 200.573C282.787 201.637 283.651 202.5 284.716 202.5Z" fill="black"/>
<path d="M344.175 51.7258H127.614V220.116H344.175V51.7258Z" fill="#F4F4F4" stroke="#868A91" stroke-miterlimit="10"/>
<path d="M171.867 73.849H136.811V75.7983H171.867V73.849Z" fill="#B2B6BB"/>
<path d="M154.135 78.4099H136.811V80.3592H154.135V78.4099Z" fill="#B2B6BB"/>
<path d="M315.665 200.737V207.206H317.493V200.737H315.665Z" fill="#61656D"/>
<path d="M287.397 200.741V207.211H289.226V200.741H287.397Z" fill="#61656D"/>
<path d="M259.123 200.737V207.206H260.952V200.737H259.123Z" fill="#61656D"/>
<path d="M230.854 200.741V207.211H232.683V200.741H230.854Z" fill="#61656D"/>
<path d="M202.582 200.737V207.206H204.41V200.737H202.582Z" fill="#61656D"/>
<path d="M174.309 200.741V207.211H176.138V200.741H174.309Z" fill="#61656D"/>
<path d="M163.151 195.922H156.799V197.749H163.151V195.922Z" fill="#61656D"/>
<path d="M163.151 171.501H156.799V173.328H163.151V171.501Z" fill="#61656D"/>
<path d="M163.151 125.547H156.799V127.374H163.151V125.547Z" fill="#61656D"/>
<path d="M163.151 102.45H156.799V104.277H163.151V102.45Z" fill="#61656D"/>
<path d="M163.472 148.527H157.12V150.354H163.472V148.527Z" fill="#61656D"/>
<path d="M174.15 192.804V172.404L186.855 152.679L195.476 159.293L213.172 131.799L223.609 139.152L238.129 113.788L249.926 123.403L267.622 89.7565L286.68 127.383L302.107 108.565L320.257 103.375V192.804H174.15Z" fill="#89CDFE"/>
<path d="M174.15 192.804V172.404L186.855 152.679L195.476 159.293L213.172 131.799L223.609 139.152L238.129 113.788L249.926 123.403L267.622 89.7565L286.68 127.383L302.107 108.565L320.257 103.375V192.804H174.15Z" fill="#89CDFE"/>
<path d="M322.205 96.1253H321.887H320.939L317.25 96.1571L303.31 96.216L303.406 96.1661L288.432 115.659L288.382 115.723H288.296L250.889 115.764L251.066 115.659L235.339 141.817L219.911 167.457L219.748 167.729L219.562 167.475C212.166 157.325 205.332 147.937 199.288 139.645H199.583L181.125 168.432L175.984 176.397L174.622 178.478C174.314 178.931 174.146 179.181 174.146 179.181C174.146 179.181 174.282 178.927 174.6 178.446C174.917 177.966 175.344 177.254 175.916 176.338L180.975 168.323L199.306 139.45L199.447 139.233L199.601 139.441L219.925 167.235H219.575C224.467 159.102 229.649 150.489 235.003 141.586L250.712 115.483L250.771 115.383H250.893L288.3 115.419L288.16 115.487L303.197 96.0528L303.233 96.0029H303.297L317.236 96.0619L320.925 96.0936H321.873C322.096 96.1117 322.205 96.1253 322.205 96.1253Z" fill="black"/>
<path d="M205.567 146.115C205.577 146.4 205.501 146.682 205.35 146.924C205.199 147.166 204.978 147.357 204.717 147.473C204.456 147.589 204.166 147.625 203.885 147.575C203.604 147.526 203.344 147.394 203.138 147.196C202.933 146.997 202.791 146.742 202.732 146.463C202.672 146.184 202.697 145.893 202.804 145.628C202.911 145.364 203.095 145.137 203.332 144.977C203.568 144.818 203.847 144.732 204.133 144.732C204.507 144.726 204.867 144.868 205.136 145.127C205.405 145.387 205.56 145.742 205.567 146.115Z" fill="#263238"/>
<path d="M248.719 121.612C248.734 121.899 248.663 122.184 248.514 122.43C248.366 122.677 248.147 122.873 247.886 122.993C247.625 123.114 247.334 123.154 247.05 123.107C246.766 123.061 246.502 122.93 246.293 122.733C246.085 122.536 245.94 122.28 245.878 121.999C245.816 121.719 245.839 121.426 245.945 121.158C246.052 120.891 246.236 120.662 246.473 120.501C246.712 120.339 246.993 120.253 247.28 120.252C247.651 120.246 248.008 120.385 248.277 120.639C248.546 120.893 248.705 121.243 248.719 121.612Z" fill="#263238"/>
<path d="M280.827 116.974C281.619 116.974 282.261 116.355 282.261 115.591C282.261 114.828 281.619 114.209 280.827 114.209C280.035 114.209 279.393 114.828 279.393 115.591C279.393 116.355 280.035 116.974 280.827 116.974Z" fill="#263238"/>
<path d="M166.392 87.9794V197.686H320.213" stroke="black" stroke-miterlimit="10" stroke-linecap="round"/>
<path d="M172.744 103.393H322.028" stroke="black" stroke-miterlimit="10" stroke-linecap="round"/>
<path d="M172.971 126.739H322.254" stroke="black" stroke-miterlimit="10" stroke-linecap="round"/>
<path d="M173.198 150.086H322.482" stroke="black" stroke-miterlimit="10" stroke-linecap="round"/>
<path d="M173.425 173.433H322.709" stroke="black" stroke-miterlimit="10" stroke-linecap="round"/>
<path d="M343.808 51.7126H127.823V65.3126H343.808V51.7126Z" fill="#868A91"/>
<path d="M136.66 58.6578C136.663 58.9887 136.567 59.3133 136.385 59.5898C136.202 59.8664 135.942 60.0822 135.636 60.21C135.33 60.3378 134.993 60.3723 134.668 60.3084C134.343 60.2444 134.044 60.0853 133.81 59.851C133.575 59.617 133.416 59.3183 133.352 58.9937C133.288 58.6687 133.323 58.3323 133.451 58.0267C133.579 57.7212 133.795 57.461 134.071 57.2787C134.348 57.0965 134.673 57.0004 135.004 57.0031C135.443 57.0054 135.863 57.1808 136.173 57.4904C136.483 57.8001 136.658 58.2199 136.66 58.6578Z" fill="white"/>
<path d="M142.414 58.6577C142.415 58.9882 142.317 59.3115 142.134 59.5866C141.951 59.8614 141.69 60.0762 141.385 60.2027C141.08 60.3296 140.744 60.3632 140.419 60.2988C140.095 60.2349 139.797 60.0758 139.564 59.8423C139.329 59.6084 139.171 59.311 139.106 58.9869C139.042 58.6627 139.075 58.3268 139.202 58.0222C139.329 57.7171 139.544 57.4564 139.819 57.2733C140.094 57.0906 140.418 56.9936 140.749 56.994C141.19 56.994 141.614 57.1695 141.926 57.4813C142.238 57.7937 142.414 58.2167 142.414 58.6577Z" fill="white"/>
<path d="M148.164 58.6577C148.165 58.9882 148.067 59.311 147.884 59.5862C147.702 59.8609 147.441 60.0753 147.136 60.2023C146.831 60.3296 146.495 60.3632 146.171 60.2993C145.847 60.2353 145.549 60.0767 145.315 59.8437C145.081 59.6107 144.922 59.3133 144.857 58.9896C144.792 58.6659 144.825 58.3304 144.951 58.0254C145.077 57.7203 145.291 57.4591 145.566 57.2755C145.84 57.0924 146.163 56.994 146.494 56.994C146.713 56.9936 146.93 57.0362 147.133 57.1196C147.335 57.203 147.519 57.3254 147.674 57.48C147.83 57.6346 147.953 57.8182 148.036 58.0204C148.12 58.2225 148.164 58.4392 148.164 58.6577Z" fill="white"/>
<path d="M110.199 376.472H54.6416V383.516H110.199V376.472Z" fill="#61656D"/>
<path opacity="0.2" d="M65.0991 376.472H54.5312V383.516H65.0991V376.472Z" fill="black"/>
<path opacity="0.2" d="M103.587 376.472H95.8369V383.516H103.587V376.472Z" fill="white"/>
<path d="M110.199 362.382H54.6416V369.427H110.199V362.382Z" fill="#61656D"/>
<path opacity="0.2" d="M65.0991 362.382H54.5312V369.427H65.0991V362.382Z" fill="black"/>
<path opacity="0.2" d="M103.587 362.382H95.8369V369.427H103.587V362.382Z" fill="white"/>
<path d="M110.199 341.243H54.6416V348.288H110.199V341.243Z" fill="#61656D"/>
<path opacity="0.2" d="M65.0991 341.243H54.5312V348.288H65.0991V341.243Z" fill="black"/>
<path opacity="0.2" d="M103.587 341.243H95.8369V348.288H103.587V341.243Z" fill="white"/>
<path d="M116.813 383.516H61.2563V390.561H116.813V383.516Z" fill="#61656D"/>
<path opacity="0.2" d="M72.1006 383.126H61.5327V390.171H72.1006V383.126Z" fill="black"/>
<path opacity="0.2" d="M110.204 383.516H102.454V390.561H110.204V383.516Z" fill="white"/>
<path d="M116.813 355.333H61.2563V362.378H116.813V355.333Z" fill="#61656D"/>
<path opacity="0.2" d="M72.1006 355.333H61.5327V362.378H72.1006V355.333Z" fill="black"/>
<path opacity="0.2" d="M110.204 355.333H102.454V362.378H110.204V355.333Z" fill="white"/>
<path d="M116.813 348.287H61.2563V355.333H116.813V348.287Z" fill="#61656D"/>
<path opacity="0.2" d="M72.1006 348.287H61.5327V355.333H72.1006V348.287Z" fill="black"/>
<path opacity="0.2" d="M110.204 348.287H102.454V355.333H110.204V348.287Z" fill="white"/>
<path d="M116.813 369.427H61.2563V376.472H116.813V369.427Z" fill="#61656D"/>
<path opacity="0.2" d="M72.1006 369.427H61.5327V376.472H72.1006V369.427Z" fill="black"/>
<path opacity="0.2" d="M110.204 369.427H102.454V376.472H110.204V369.427Z" fill="white"/>
<g opacity="0.3">
<path opacity="0.3" d="M110.202 383.294H61.2563V383.739H110.202V383.294Z" fill="black"/>
</g>
<g opacity="0.3">
<path opacity="0.3" d="M110.202 376.25H61.2563V376.694H110.202V376.25Z" fill="black"/>
</g>
<g opacity="0.3">
<path opacity="0.3" d="M110.202 369.2H61.2563V369.644H110.202V369.2Z" fill="black"/>
</g>
<g opacity="0.3">
<path opacity="0.3" d="M110.202 362.155H61.2563V362.6H110.202V362.155Z" fill="black"/>
</g>
<g opacity="0.3">
<path opacity="0.3" d="M116.813 355.111H61.2563V355.555H116.813V355.111Z" fill="black"/>
</g>
<g opacity="0.3">
<path opacity="0.3" d="M116.813 348.066H61.2563V348.51H116.813V348.066Z" fill="black"/>
</g>
<path d="M54.831 389.369C67.7429 384.935 74.6141 370.887 70.1782 357.985C65.7424 345.087 51.6793 338.222 38.7674 342.654C25.8555 347.085 18.9843 361.135 23.4202 374.037C27.8561 386.935 41.9191 393.803 54.831 389.369Z" fill="#61656D"/>
<path opacity="0.2" d="M54.831 389.369C67.7429 384.935 74.6141 370.887 70.1782 357.985C65.7424 345.087 51.6793 338.222 38.7674 342.654C25.8555 347.085 18.9843 361.135 23.4202 374.037C27.8561 386.935 41.9191 393.803 54.831 389.369Z" fill="black"/>
<path d="M46.6347 390.362C60.2495 389.342 70.4602 377.491 69.4411 363.891C68.4224 350.287 56.5596 340.086 42.9448 341.104C29.3305 342.122 19.1197 353.973 20.1384 367.577C21.1575 381.177 33.0199 391.382 46.6347 390.362Z" fill="#61656D"/>
<path opacity="0.2" d="M46.6347 390.362C60.2495 389.342 70.4602 377.491 69.4411 363.891C68.4224 350.287 56.5596 340.086 42.9448 341.104C29.3305 342.122 19.1197 353.973 20.1384 367.577C21.1575 381.177 33.0199 391.382 46.6347 390.362Z" fill="white"/>
<path d="M54.8612 382.796C64.3074 377.26 67.4745 365.12 61.9342 355.682C56.3944 346.246 44.2452 343.082 34.7991 348.617C25.3525 354.154 22.1857 366.29 27.7256 375.728C33.2654 385.166 45.4146 388.331 54.8612 382.796Z" fill="#61656D"/>
<path opacity="0.2" d="M26.0235 364.884C26.4637 359.653 28.9661 354.807 32.9804 351.415C36.9948 348.024 42.1925 346.364 47.4315 346.801C51.5152 347.141 55.599 349.108 58.5937 351.497C56.7279 349.66 54.5159 348.211 52.086 347.232C49.6562 346.255 47.0562 345.767 44.4367 345.799C41.8172 345.831 39.2299 346.381 36.8241 347.418C34.4188 348.455 32.2431 349.958 30.4227 351.842C28.6018 353.723 27.1729 355.945 26.2177 358.384C25.2626 360.823 24.8007 363.425 24.8583 366.04C24.9159 368.656 25.4917 371.236 26.5535 373.629C27.6148 376.023 29.1403 378.181 31.042 379.98C29.2166 377.791 27.8866 375.234 27.1443 372.482C26.4909 370.216 25.8148 367.378 26.0235 364.884Z" fill="black"/>
<path d="M42.4617 379.291L42.7022 376.458C39.526 376.045 38.0014 374.821 38.3235 370.964C38.3875 370.134 38.5177 369.313 38.7138 368.507L42.7521 368.847C42.6736 369.218 42.6174 369.59 42.5842 369.966C42.4436 371.639 42.4753 372.596 44.1134 372.732C45.7514 372.868 45.9284 372.278 46.128 370.152C46.2142 369.1 46.246 368.738 45.7061 368.18C44.5989 366.952 41.6767 365.913 40.3427 364.798C39.1448 363.819 38.9543 362.559 39.2401 359.177C39.5668 355.287 40.8419 354.072 44.5717 354.19L44.7577 351.924L47.0537 352.119L46.8631 354.385C50.2708 354.839 51.3734 356.121 51.083 359.576C51.024 360.319 50.9133 361.054 50.7517 361.779L46.7451 361.444C46.8141 361.036 46.8613 360.623 46.8858 360.211C47.0129 358.683 46.8586 357.903 45.334 357.776C44.0226 357.663 43.6233 358.071 43.4691 359.889C43.3103 361.779 43.4055 361.969 44.5944 362.609C45.8921 363.343 47.1671 363.851 48.2879 364.495C49.8579 365.433 50.9196 365.886 50.602 369.631C50.1483 374.908 49.023 376.639 44.9982 376.599L44.7532 379.468L42.4617 379.291Z" fill="#F4F4F4"/>
<path d="M471.147 367.663C471.683 367.899 472.168 368.239 472.567 368.665C472.971 369.091 473.28 369.594 473.484 370.143C473.879 371.249 474.015 372.428 473.888 373.593C473.706 375.86 472.499 378.149 471.165 379.98C469.223 378.394 468.697 375.529 468.525 374.06C468.248 371.739 469.16 367.378 471.129 367.663" fill="#89CDFE"/>
<path d="M473.743 383.942C473.525 383.326 473.479 382.66 473.602 382.02C473.729 381.377 474.019 380.778 474.45 380.284C474.886 379.799 475.417 379.405 476.011 379.128C476.601 378.852 477.246 378.693 477.899 378.666C478.198 378.62 478.503 378.638 478.793 378.725C479.083 378.811 479.351 378.956 479.578 379.155C479.755 379.377 479.873 379.64 479.914 379.917C479.959 380.198 479.927 380.484 479.823 380.746C479.605 381.268 479.251 381.726 478.802 382.07C477.318 383.312 475.657 384.242 473.743 383.942Z" fill="#89CDFE"/>
<path d="M469.196 384.015C468.924 382.664 468.339 381.395 467.476 380.316C466.619 379.237 465.516 378.376 464.259 377.809C463.615 377.523 462.785 377.356 462.281 377.841C461.777 378.326 461.918 379.164 462.195 379.813C462.789 381.15 463.774 382.279 465.013 383.063C466.251 383.843 467.694 384.237 469.16 384.201" fill="#89CDFE"/>
<path d="M470.957 371.136C471.079 372.777 471.179 374.422 471.256 376.068C471.342 377.714 471.392 379.364 471.451 381.009C471.51 382.655 471.533 384.305 471.542 385.951C471.551 387.596 471.542 389.251 471.492 390.897L471.188 381.018L471.052 376.077C471.011 374.431 470.984 372.781 470.957 371.136Z" fill="#21252B"/>
<path d="M471.76 390.629C471.796 389.623 471.928 388.621 472.164 387.642C472.39 386.654 472.722 385.697 473.153 384.781C473.588 383.856 474.196 383.027 474.941 382.324C475.322 381.984 475.744 381.694 476.197 381.463C476.656 381.241 477.141 381.091 477.64 381.01C476.674 381.263 475.789 381.767 475.081 382.469C474.382 383.172 473.811 383.992 473.393 384.89C472.958 385.788 472.613 386.722 472.363 387.687C472.1 388.653 471.896 389.636 471.76 390.629Z" fill="#21252B"/>
<path d="M471.234 390.629C471.097 389.637 470.893 388.657 470.63 387.692C470.381 386.726 470.036 385.792 469.6 384.895C469.183 383.997 468.611 383.177 467.912 382.474C467.204 381.771 466.32 381.268 465.353 381.014C465.852 381.096 466.338 381.245 466.796 381.467C467.25 381.699 467.672 381.989 468.053 382.329C468.797 383.032 469.405 383.861 469.841 384.786C470.272 385.702 470.603 386.658 470.83 387.646C471.061 388.626 471.197 389.623 471.234 390.629Z" fill="#21252B"/>
<path d="M199.804 367.21C200.34 367.446 200.824 367.786 201.226 368.212C201.627 368.638 201.938 369.141 202.141 369.69C202.536 370.796 202.674 371.975 202.545 373.14C202.363 375.406 201.156 377.696 199.822 379.527C197.88 377.941 197.354 375.075 197.181 373.607C196.905 371.286 197.817 366.925 199.786 367.21" fill="#89CDFE"/>
<path d="M202.4 383.489C202.185 382.873 202.137 382.206 202.261 381.567C202.385 380.923 202.677 380.325 203.108 379.831C203.546 379.346 204.076 378.951 204.668 378.675C205.261 378.398 205.902 378.24 206.556 378.213C206.855 378.167 207.16 378.185 207.449 378.271C207.74 378.358 208.008 378.503 208.235 378.702C208.413 378.924 208.53 379.187 208.573 379.464C208.616 379.745 208.584 380.03 208.48 380.293C208.261 380.815 207.909 381.273 207.459 381.617C205.975 382.859 204.315 383.789 202.4 383.489Z" fill="#89CDFE"/>
<path d="M197.853 383.562C197.583 382.211 196.994 380.941 196.135 379.863C195.277 378.784 194.173 377.922 192.916 377.356C192.272 377.07 191.441 376.902 190.938 377.387C190.434 377.872 190.575 378.711 190.851 379.359C191.449 380.697 192.429 381.826 193.669 382.61C194.908 383.39 196.352 383.784 197.817 383.748" fill="#89CDFE"/>
<path d="M199.615 370.683C199.735 372.324 199.835 373.969 199.914 375.615C200 377.26 200.05 378.911 200.109 380.556C200.168 382.202 200.191 383.852 200.2 385.498C200.209 387.143 200.2 388.798 200.15 390.443L199.846 380.565L199.71 375.624C199.669 373.978 199.642 372.328 199.615 370.683Z" fill="#21252B"/>
<path d="M200.417 390.176C200.452 389.169 200.588 388.168 200.821 387.188C201.046 386.2 201.378 385.244 201.81 384.328C202.248 383.403 202.854 382.573 203.598 381.871C203.978 381.531 204.401 381.241 204.855 381.009C205.312 380.787 205.798 380.638 206.298 380.556C205.331 380.81 204.449 381.313 203.739 382.016C203.038 382.719 202.467 383.539 202.051 384.437C201.617 385.334 201.272 386.268 201.021 387.234C200.756 388.199 200.554 389.183 200.417 390.176Z" fill="#21252B"/>
<path d="M199.89 390.176C199.753 389.183 199.552 388.204 199.287 387.238C199.036 386.273 198.691 385.339 198.257 384.441C197.841 383.544 197.27 382.723 196.569 382.021C195.86 381.318 194.977 380.815 194.01 380.561C194.51 380.642 194.996 380.792 195.453 381.014C195.908 381.245 196.33 381.535 196.71 381.875C197.454 382.578 198.06 383.408 198.497 384.333C198.93 385.248 199.261 386.205 199.487 387.193C199.72 388.172 199.855 389.17 199.89 390.176Z" fill="#21252B"/>
<path d="M110.616 365.905C111.071 367.319 111.258 368.81 111.169 370.293L111.215 382.651C111.127 384.804 110.529 386.907 109.468 388.784L109.209 389.21C108.905 389.759 108.46 390.212 107.921 390.53C107.382 390.851 106.768 391.019 106.142 391.024H102.598C101.807 391.019 101.039 390.752 100.416 390.267C99.7911 389.777 99.3447 389.102 99.145 388.335C98.684 386.509 98.6268 384.605 98.9771 382.755L101.958 369.549C102.168 368.316 102.526 367.115 103.025 365.968L110.616 365.905Z" fill="#89CDFE"/>
<path d="M158.549 336.892L159.275 359.939C159.275 362.115 159.829 364.413 160.682 365.565L171 383.498L168.613 386.781L159.275 382.138L150.958 367.142C150.999 364.585 150.704 363.062 150.277 359.599L146.139 334.163L158.549 336.892Z" fill="#FC9D9D"/>
<path opacity="0.15" d="M170.936 383.403C166.077 383.285 162.687 378.453 162.687 378.453L154.855 368.157C153.817 366.793 153.196 365.152 153.068 363.443L152.464 355.283C152.412 354.571 152.625 353.864 153.064 353.302C153.502 352.74 154.134 352.354 154.837 352.232L159.007 351.497L158.966 350.209H148.798L148.766 350.327L150.277 359.617C150.704 363.066 150.999 364.603 150.958 367.16L159.275 382.156L163.037 384.024L170.95 383.426L170.936 383.403Z" fill="black"/>
<path d="M175.842 386.527L170.942 383.544C169.199 383.829 167.411 383.652 165.757 383.036C164.103 382.415 162.641 381.372 161.517 380.008L150.899 367.142C148.979 371.24 148.296 375.81 148.935 380.289L150.473 390.938H151.707L152.047 379.99C152.052 379.813 152.111 379.64 152.217 379.5C152.322 379.355 152.469 379.251 152.637 379.196C152.805 379.137 152.986 379.137 153.156 379.187C153.326 379.237 153.476 379.337 153.586 379.477L160.065 387.402C160.972 388.517 162.116 389.419 163.414 390.035C164.712 390.656 166.132 390.978 167.57 390.983H177.68C177.863 390.983 178.043 390.938 178.204 390.851C178.365 390.765 178.502 390.643 178.604 390.489C178.705 390.335 178.767 390.162 178.783 389.981C178.801 389.8 178.772 389.614 178.701 389.446C178.158 388.145 177.135 387.098 175.842 386.527Z" fill="#89CDFE"/>
<path d="M111.088 360.324C110.563 364.762 110.334 369.232 110.403 373.702L110.489 379.028C110.451 380.157 109.976 381.227 109.166 382.011C108.356 382.796 107.272 383.24 106.142 383.244H105.416C104.795 383.244 104.179 383.113 103.613 382.859C103.047 382.601 102.542 382.224 102.134 381.757C101.725 381.286 101.423 380.738 101.246 380.139C101.069 379.545 101.023 378.92 101.11 378.303L102.344 371.997C102.977 368.788 103.206 365.51 103.025 362.241L101.832 340.726L112.962 340.894L111.088 360.324Z" fill="#FC9D9D"/>
<path d="M152.271 187.137L153.818 205.584L154.726 215.466C155.833 227.951 156.558 240.449 156.899 252.961L159.508 350.183H148.273L127.401 213.979C127.336 213.533 127.109 213.126 126.763 212.835C126.418 212.545 125.978 212.39 125.527 212.402C125.052 212.406 124.596 212.587 124.249 212.91C123.901 213.233 123.687 213.674 123.648 214.147L112.836 350.183L101.791 350.097L96.9317 249.457C96.0242 230.871 97.7076 208.934 100.185 195.551L103.815 187.391L152.271 187.137Z" fill="#21252B"/>
<path opacity="0.15" d="M100.183 197.373C97.7057 210.756 96.0313 230.893 96.9298 249.466L101.789 350.106L105.174 350.133L103.192 279.758C102.946 271.072 102.615 262.389 102.198 253.709C101.712 243.645 101.345 224.696 104.013 206.957C104.575 203.239 107.684 202.251 111.441 202.12L117.403 201.916C118.001 201.896 118.573 201.67 119.022 201.277C119.473 200.883 119.772 200.347 119.871 199.758L121.01 191.562L101.98 191.942L100.183 197.373Z" fill="black"/>
<path opacity="0.15" d="M133.012 191.598L133.466 200.515C133.533 201.017 133.78 201.478 134.162 201.811C134.543 202.145 135.033 202.329 135.54 202.329H153.263L152.768 191.1L133.012 191.598Z" fill="black"/>
<path opacity="0.15" d="M112.022 350.143L111.981 351.249L107.036 352.155C106.673 352.232 106.346 352.427 106.113 352.717C105.88 353.003 105.754 353.361 105.756 353.733L104.649 366.557L103.12 377.125C103.165 379.042 102.993 381.599 105.039 383.172C103.95 383.127 102.918 382.669 102.151 381.894C101.384 381.123 100.938 380.085 100.901 378.997L101.672 374.491C102.171 371.517 103.161 369.051 103.161 365.569V363.583C103.034 361.77 102.344 350.197 102.344 350.197L112.022 350.143Z" fill="black"/>
<path d="M117.012 191.312L135.308 191.353C135.82 149.347 136.859 127.768 139.164 118.366L134.173 117.46L116.046 116.843L112.466 117.614C116.432 139.056 117.099 180.763 117.012 191.312Z" fill="white"/>
<path opacity="0.2" d="M119.533 128.176C117.051 150.48 117.101 181.017 117.015 191.33H120.813C122.6 163.704 122.51 146.99 119.533 128.176Z" fill="black"/>
<path d="M116.595 200.302C116.856 200.303 117.107 200.207 117.3 200.032C117.493 199.858 117.614 199.618 117.639 199.359L118.728 185.909C119.939 171.72 120.171 154.588 120.157 142.983C120.148 134.199 119.118 125.447 117.085 116.903L117.049 116.757L99.2574 120.357C93.9258 121.681 90.9401 126.495 90.686 131.776L99.271 141.324C101.644 159.289 101.467 177.499 98.7446 195.415L98.1321 199.282C98.1112 199.401 98.1162 199.523 98.147 199.64C98.1779 199.757 98.2342 199.866 98.3113 199.96C98.3889 200.052 98.4855 200.128 98.5944 200.18C98.7038 200.232 98.8231 200.26 98.9443 200.261H105.51L116.595 200.302Z" fill="#89CDFE"/>
<path opacity="0.15" d="M105.184 161.66L103.051 135.997C103.035 135.95 103.004 135.909 102.964 135.88C102.923 135.852 102.874 135.836 102.825 135.836C102.775 135.836 102.726 135.852 102.686 135.88C102.645 135.909 102.614 135.95 102.598 135.997L102.366 141.482C102.177 140.923 101.947 140.379 101.677 139.855C101.378 139.28 101.025 138.735 100.624 138.227C100.23 137.709 99.7513 137.262 99.2082 136.904C99.8979 137.987 100.488 139.066 101.064 140.172C101.364 140.721 101.631 141.283 101.922 141.84L102.316 142.602L101.264 156.954L100.728 156.818C101.323 168.954 100.669 183.402 98.759 195.429L98.1464 199.296C98.1255 199.415 98.1305 199.537 98.1614 199.654C98.1927 199.771 98.2485 199.88 98.3257 199.973C98.4033 200.066 98.4999 200.141 98.6093 200.193C98.7182 200.246 98.8375 200.273 98.9586 200.275H101.481C104.272 190.624 104.631 169.761 104.658 161.692L105.184 161.66Z" fill="black"/>
<path d="M145.673 198.094H152.878C153.133 198.095 153.386 198.043 153.62 197.94C153.853 197.837 154.063 197.686 154.234 197.497C154.405 197.308 154.534 197.085 154.614 196.843C154.693 196.6 154.72 196.344 154.693 196.09L152.506 179.054C151.377 170.264 151.289 161.372 152.243 152.561L154.135 135.072L156.354 131.536C156.395 126.041 153.795 121.44 148.55 119.776L134.937 117.75C132.804 126.399 133.93 148.372 134.524 187.06L134.869 196.231C134.888 196.717 135.094 197.176 135.443 197.515C135.793 197.852 136.261 198.042 136.747 198.044L145.673 198.094Z" fill="#21252B"/>
<path d="M145.673 200.361H152.878C153.134 200.363 153.386 200.31 153.62 200.208C153.854 200.105 154.063 199.954 154.234 199.765C154.405 199.576 154.535 199.353 154.614 199.11C154.693 198.867 154.72 198.611 154.693 198.357L152.465 178.95C151.349 170.246 151.263 161.44 152.207 152.716L154.112 135.095L156.331 131.559C156.372 126.064 153.772 121.463 148.527 119.799L134.46 117.32C132.328 125.969 133.907 148.396 134.501 187.083L134.887 199.577C134.895 199.779 134.981 199.97 135.126 200.111C135.271 200.252 135.465 200.332 135.667 200.334L145.673 200.361Z" fill="#89CDFE"/>
<path d="M101.719 149.451L101.832 147.343L100.766 144.487C100.979 137.715 99.3455 133.567 95.847 127.714L90.9919 129.477L88.4282 148.064L101.719 149.451Z" fill="#89CDFE"/>
<path d="M139.647 108.072L131.025 103.624L132.178 82.712L139.583 83.664L143.082 86.6062C143.082 86.6062 142.882 87.7848 142.832 88.4739C142.641 91.1259 144.828 92.504 147.329 93.9139L139.647 108.072Z" fill="#21252B"/>
<path d="M149.874 157.819L148.187 147.669L156.241 129.137L161.286 160.816L149.874 157.819Z" fill="#89CDFE"/>
<path d="M149.411 153.169L159.462 149.017L162.307 164.14L150.781 162.354L149.411 153.169Z" fill="#FC9D9D"/>
<path opacity="0.15" d="M151.594 160.449L149.561 139.772C149.656 139.414 149.756 139.056 149.869 138.707C150.005 138.29 151.153 135.901 151.33 135.506C151.5 135.102 151.741 134.732 152.043 134.414C151.673 134.669 151.363 135.002 151.135 135.389C150.967 135.638 149.833 137.882 149.697 138.149C149.797 137.555 149.901 136.962 150.01 136.372C150.173 135.57 150.328 134.772 150.527 133.979C150.718 133.183 150.952 132.397 151.226 131.626C150.796 132.335 150.439 133.085 150.16 133.865C149.873 134.644 149.632 135.439 149.438 136.245C149.234 137.048 149.084 137.859 148.939 138.675C148.794 139.491 148.381 143.685 148.313 144.514L148.767 141.159C147.732 150.145 147.492 159.637 147.492 159.637L151.594 160.449Z" fill="black"/>
<path d="M148.091 107.708C148.267 108.644 148.184 109.609 147.851 110.501C147.511 111.442 146.889 112.255 146.07 112.831C145.25 113.407 144.274 113.717 143.273 113.72C142.762 113.711 142.256 113.625 141.771 113.466C141.217 113.294 140.623 113.291 140.067 113.459C139.512 113.628 139.019 113.958 138.653 114.409C137.942 115.265 137.011 115.911 135.96 116.278C134.908 116.645 133.777 116.718 132.687 116.49C131.811 116.286 130.988 115.902 130.269 115.362C129.55 114.822 128.952 114.139 128.513 113.355C128.073 112.571 127.802 111.705 127.717 110.811C127.632 109.916 127.734 109.014 128.018 108.162C128.425 106.841 129.259 105.692 130.388 104.895C131.517 104.097 132.879 103.695 134.261 103.751C135.19 103.803 136.095 104.065 136.908 104.517C137.721 104.968 138.422 105.597 138.957 106.358C139.345 105.582 139.929 104.921 140.65 104.44C139.909 103.677 139.366 102.744 139.068 101.723C138.77 100.702 138.726 99.6246 138.939 98.5828C139.09 97.7464 139.411 96.9495 139.882 96.2414C140.353 95.5337 140.963 94.9294 141.677 94.4661C142.39 94.0028 143.19 93.69 144.029 93.5477C144.868 93.4049 145.727 93.4352 146.553 93.637C147.677 93.9557 148.694 94.5699 149.499 95.4159C150.304 96.2613 150.867 97.3081 151.128 98.445C151.39 99.5824 151.341 100.769 150.986 101.881C150.632 102.993 149.984 103.99 149.112 104.766C148.7 105.125 148.39 105.585 148.21 106.101C148.031 106.618 147.99 107.172 148.091 107.708Z" fill="#21252B"/>
<path opacity="0.15" d="M161.879 161.175L153.262 154.424L152.355 159.946L162.415 163.94L161.879 161.175Z" fill="black"/>
<path d="M140.835 153.922L138.181 151.251C137.944 151.015 137.651 150.844 137.328 150.753L133.036 149.547C132.606 149.424 132.148 149.447 131.733 149.615L122.595 153.264L101.214 158.55L101.718 149.438L88.4228 148.037L85.8047 167.023C85.8047 171.76 89.7478 173.682 93.2416 173.247C96.7355 172.812 101.382 170.795 102.503 170.296L102.607 170.414L124.673 159.253C126.818 159.441 128.978 159.346 131.098 158.972L133.004 159.185C133.4 159.228 133.801 159.155 134.156 158.976L134.61 158.759C134.684 158.718 134.746 158.659 134.788 158.585C134.83 158.512 134.851 158.429 134.848 158.344C134.846 158.26 134.819 158.178 134.772 158.108C134.725 158.038 134.66 157.982 134.583 157.947L133.067 157.299L134.814 157.798C134.949 157.838 135.093 157.838 135.227 157.798L135.527 157.698C135.632 157.662 135.728 157.603 135.807 157.524C135.886 157.445 135.945 157.35 135.98 157.245C136.029 157.099 136.028 156.941 135.978 156.796C135.928 156.651 135.832 156.527 135.704 156.442L135.309 156.184L136.307 156.578C136.43 156.628 136.563 156.647 136.695 156.633C136.828 156.62 136.955 156.574 137.065 156.501L137.31 156.338C137.463 156.239 137.577 156.09 137.632 155.916C137.685 155.753 137.684 155.577 137.63 155.414C137.576 155.251 137.472 155.109 137.333 155.01L134.156 152.743C134.088 152.692 134.04 152.619 134.018 152.537C133.997 152.454 134.004 152.367 134.038 152.29C134.078 152.208 134.146 152.144 134.23 152.11C134.313 152.076 134.407 152.073 134.492 152.104L136.992 152.852L139.901 155.032C140.05 155.144 140.235 155.196 140.42 155.176C140.605 155.157 140.777 155.068 140.899 154.928C141.021 154.787 141.085 154.606 141.078 154.42C141.072 154.234 140.995 154.057 140.863 153.926L140.835 153.922Z" fill="#FC9D9D"/>
<path opacity="0.15" d="M134.587 158.287C134.587 159.402 130.957 158.287 130.957 158.287C129.283 158.287 124.255 157.448 124.255 157.448L101.545 166.551C86.5307 172.136 86.2312 163.935 86.2312 163.935L85.8047 167.032C85.8047 171.769 89.7478 173.691 93.2416 173.256C95.2155 173.007 98.7547 171.982 102.553 170.364L102.607 170.423L124.673 159.261C126.818 159.45 128.978 159.355 131.098 158.98L133.004 159.193C133.4 159.237 133.801 159.164 134.156 158.985L134.61 158.767C134.696 158.724 134.766 158.654 134.81 158.568L134.587 158.287Z" fill="black"/>
<path opacity="0.15" d="M135.519 156.288L133.195 155.218" stroke="black" stroke-width="0.62" stroke-miterlimit="10" stroke-linecap="round"/>
<path opacity="0.15" d="M133.897 157.675L132.073 156.891" stroke="black" stroke-width="0.62" stroke-miterlimit="10" stroke-linecap="round"/>
<path d="M117.999 99.8562L116.878 116.688C116.814 117.431 116.993 118.173 117.386 118.806C119.809 122.641 128.008 126.181 133.358 118.806C133.834 118.153 134.266 117.473 134.125 116.679L132.382 104.516L117.999 99.8562Z" fill="#FC9D9D"/>
<path opacity="0.15" d="M133.049 109.78L132.541 106.725L127.477 108.28C127.494 108.295 127.511 108.312 127.527 108.33C126.133 108.267 124.763 107.951 123.484 107.396C123.402 107.359 123.309 107.355 123.225 107.384C123.141 107.414 123.071 107.475 123.03 107.554C123.006 107.597 122.991 107.645 122.987 107.694C122.983 107.744 122.989 107.793 123.005 107.84C123.02 107.887 123.045 107.93 123.079 107.967C123.112 108.003 123.152 108.033 123.198 108.053C124.647 108.693 126.21 109.034 127.794 109.055C127.994 109.055 128.198 109.055 128.407 109.032C130.408 110.261 133.049 109.78 133.049 109.78Z" fill="black"/>
<path d="M127.9 108.339H127.183C121.869 108.434 117.309 103.837 117.2 98.5244L116.919 85.1102C116.904 84.2643 117.224 83.4469 117.81 82.8354C118.395 82.2243 119.199 81.8689 120.045 81.8462L132.628 81.5833C133.175 81.572 133.72 81.6681 134.23 81.8671C134.74 82.0661 135.205 82.3635 135.6 82.7425C135.995 83.1215 136.311 83.5743 136.531 84.0757C136.75 84.5766 136.869 85.1161 136.879 85.6633L137.156 98.1844C137.274 103.429 133.44 108.393 127.9 108.339Z" fill="#FC9D9D"/>
<path d="M127.145 101.588L127.486 102.123C127.706 102.439 128.001 102.696 128.344 102.872C128.687 103.048 129.068 103.137 129.454 103.131C129.839 103.126 130.217 103.026 130.555 102.841C130.893 102.656 131.181 102.391 131.392 102.069L131.787 101.439C131.869 101.303 131.787 101.135 131.647 101.153L127.304 101.316C127.159 101.285 127.068 101.466 127.145 101.588Z" fill="white"/>
<path d="M141.067 86.3243C140.64 87.1969 139.957 87.9191 139.109 88.3947C138.261 88.8697 137.289 89.076 136.321 88.9854C134.695 88.8584 133.172 88.144 132.036 86.9757C130.9 85.8075 130.23 84.2657 130.15 82.6387H130.091C129.443 83.4941 128.595 84.1768 127.621 84.6256C126.646 85.0749 125.576 85.2771 124.505 85.2136C123.884 85.1746 123.272 85.0432 122.69 84.8237C121.928 91.9547 117.517 92.5077 117.517 92.5077C117.476 93.1923 117.399 94.5659 117.304 96.1888C117.236 97.2904 118.543 97.8253 117.912 98.6232L118.252 98.6459C118.066 98.9134 118.561 99.2534 118.429 99.5526C118.211 100.058 118.083 100.598 118.053 101.148C117.997 101.927 118.146 102.706 118.484 103.41C118.822 104.114 119.338 104.717 119.981 105.16C121.297 106.117 122.745 107.427 122.944 109.091C123.194 111.171 121.66 114.984 116.478 114.884C114.985 114.857 103.025 114.535 104.458 103.882C104.673 103.001 105.024 102.158 105.498 101.384C105.785 100.841 105.954 100.243 105.992 99.6296C106.083 98.1653 105.175 97.1181 104.236 96.1707C103.702 95.6906 103.285 95.0963 103.014 94.4321C102.743 93.768 102.625 93.0513 102.671 92.3355C102.721 91.3563 103.079 90.417 103.692 89.6518C104.306 88.8861 105.146 88.3325 106.092 88.0696C106.356 87.998 106.594 87.8507 106.777 87.6462C106.96 87.4422 107.08 87.1892 107.122 86.9182C107.53 84.5835 110.239 78.6267 118.597 79.5696C118.448 77.1125 120.911 73.5176 124.555 73.4179C127.672 73.3363 130.218 75.7752 131.847 77.856C132.306 78.4621 132.908 78.9445 133.599 79.2609C134.29 79.5773 135.049 79.7179 135.808 79.6693C136.48 79.6104 137.455 79.284 138.399 79.3384C142.029 79.5334 143.662 82.7022 143.077 86.6779L141.067 86.3243Z" fill="#21252B"/>
<path d="M125.634 97.2224C125.841 97.2396 126.047 97.1952 126.229 97.095C126.41 96.9948 126.557 96.8434 126.652 96.6594C126.748 96.4753 126.786 96.2673 126.763 96.0619C126.739 95.8561 126.655 95.6616 126.522 95.5038C126.388 95.3456 126.211 95.2305 126.012 95.1729C125.813 95.1153 125.601 95.1185 125.404 95.1811C125.206 95.2436 125.032 95.3633 124.902 95.5251C124.773 95.6865 124.694 95.8833 124.677 96.0891C124.665 96.2264 124.68 96.3647 124.722 96.4962C124.764 96.6272 124.831 96.7492 124.92 96.8543C125.009 96.96 125.118 97.0465 125.24 97.1095C125.363 97.173 125.497 97.2111 125.634 97.2224Z" fill="#21252B"/>
<path d="M126.174 96.4436C126.2 96.4454 126.227 96.4418 126.252 96.4336C126.277 96.425 126.3 96.4119 126.319 96.3946C126.339 96.3774 126.356 96.3565 126.367 96.333C126.379 96.3094 126.386 96.2836 126.387 96.2577C126.391 96.2314 126.388 96.2051 126.381 96.1798C126.373 96.1548 126.361 96.1312 126.343 96.1113C126.326 96.0914 126.305 96.075 126.282 96.0637C126.258 96.0519 126.232 96.0456 126.206 96.0447C126.153 96.0401 126.101 96.0574 126.06 96.0918C126.02 96.1263 125.994 96.1752 125.99 96.2283C125.986 96.2808 126.003 96.3334 126.038 96.3738C126.072 96.4141 126.121 96.4391 126.174 96.4436Z" fill="white"/>
<path d="M133.644 96.6557C133.85 96.6729 134.057 96.6284 134.239 96.5283C134.42 96.4281 134.567 96.2767 134.663 96.0926C134.757 95.9086 134.795 95.7005 134.772 95.4951C134.749 95.2893 134.666 95.0948 134.532 94.9371C134.398 94.7789 134.221 94.6637 134.022 94.6061C133.823 94.5486 133.611 94.5517 133.413 94.6143C133.216 94.6769 133.042 94.7965 132.912 94.9584C132.783 95.1198 132.704 95.3165 132.686 95.5223C132.675 95.6597 132.69 95.7979 132.732 95.9294C132.774 96.0604 132.841 96.1824 132.93 96.2876C133.019 96.3932 133.128 96.4798 133.25 96.5428C133.373 96.6062 133.506 96.6443 133.644 96.6557Z" fill="#21252B"/>
<path d="M134.256 95.8225C134.31 95.8261 134.363 95.8088 134.403 95.7739C134.444 95.739 134.469 95.6896 134.474 95.6366C134.479 95.5835 134.461 95.5309 134.427 95.4906C134.392 95.4503 134.343 95.4253 134.29 95.4212C134.238 95.4167 134.185 95.4339 134.145 95.4684C134.104 95.5028 134.079 95.5518 134.075 95.6048C134.071 95.6574 134.088 95.7096 134.121 95.7499C134.155 95.7907 134.204 95.8166 134.256 95.8225Z" fill="white"/>
<path opacity="0.15" d="M130.063 99.5801H128.652C128.498 99.5801 128.325 99.4441 128.366 99.299C128.407 99.154 128.498 98.9726 128.643 99.0089H130.04C130.126 99.0162 130.212 99.0057 130.294 98.9781C130.376 98.9504 130.45 98.906 130.514 98.848C130.577 98.7895 130.628 98.7188 130.662 98.6399C130.697 98.5615 130.715 98.4763 130.715 98.3901C130.715 98.3044 130.697 98.2192 130.662 98.1403C130.628 98.0614 130.577 97.9907 130.514 97.9327C130.45 97.8747 130.376 97.8302 130.294 97.8026C130.212 97.7745 130.126 97.7641 130.04 97.7713C129.881 97.7713 129.714 97.6398 129.75 97.4948C129.786 97.3497 129.886 97.1684 130.031 97.2046C130.358 97.2105 130.669 97.3438 130.899 97.5759C131.129 97.808 131.259 98.1204 131.261 98.4468C131.249 98.7546 131.117 99.0456 130.893 99.2573C130.669 99.4695 130.371 99.5851 130.063 99.5801Z" fill="black"/>
<path d="M118.928 100.732C118.928 100.732 114.576 102.233 112.525 98.0846C110.474 93.9366 115.674 91.7379 117.625 95.9358L119.477 100.582L118.928 100.732Z" fill="#FC9D9D"/>
<path opacity="0.15" d="M113.274 95.3864C113.42 95.1865 113.607 95.0205 113.824 94.9C114.04 94.7794 114.28 94.7073 114.527 94.6882C114.774 94.6851 115.019 94.7372 115.243 94.841C115.468 94.9444 115.666 95.0967 115.824 95.2867C116.269 95.7336 116.596 96.2835 116.777 96.8869L116.927 97.3402C117.027 97.6893 116.473 97.9387 116.328 97.5397L116.178 97.041C116.02 96.5601 115.764 96.1167 115.425 95.74C115.318 95.6199 115.187 95.5228 115.042 95.4544C114.896 95.3855 114.738 95.3474 114.577 95.341C114.242 95.4004 113.939 95.5772 113.724 95.8397C113.674 95.8946 113.607 95.9295 113.533 95.9385C113.46 95.9481 113.386 95.9304 113.324 95.8896C113.257 95.8261 113.214 95.74 113.205 95.6475C113.196 95.555 113.22 95.4621 113.274 95.3864Z" fill="black"/>
<path d="M133.937 90.5085C133.32 90.5792 132.727 90.7882 132.202 91.1201C131.677 91.4524 131.234 91.8989 130.906 92.4261C130.058 92.1573 129.143 92.1958 128.32 92.5349C127.894 91.8962 127.303 91.3844 126.61 91.0525C125.917 90.7207 125.147 90.5811 124.381 90.6491C123.561 90.7393 122.785 91.0711 122.153 91.6015C121.52 92.1324 121.06 92.8387 120.829 93.6306C120.599 94.4231 120.609 95.2658 120.858 96.0523C121.107 96.8393 121.584 97.5343 122.228 98.0502C122.873 98.5661 123.656 98.8789 124.479 98.95C125.302 99.0212 126.127 98.8467 126.85 98.4491C127.574 98.0511 128.163 97.4481 128.544 96.716C128.924 95.9834 129.078 95.1547 128.987 94.3347C128.947 93.8772 128.818 93.4325 128.606 93.0245C129.273 92.7734 130.001 92.7308 130.693 92.9021C130.38 93.5984 130.26 94.3655 130.344 95.1235C130.498 96.1938 131.063 97.1621 131.919 97.8244C132.774 98.4867 133.854 98.7909 134.93 98.6735C136.005 98.5557 136.993 98.0252 137.685 97.1938C138.377 96.3624 138.719 95.2953 138.638 94.2168C138.49 93.1102 137.916 92.1047 137.039 91.4125C136.162 90.7207 135.05 90.3966 133.937 90.5085ZM125.212 98.4192C124.498 98.4985 123.777 98.3643 123.14 98.0339C122.503 97.7034 121.979 97.192 121.633 96.5637C121.286 95.9354 121.134 95.2191 121.196 94.5042C121.257 93.7898 121.529 93.1098 121.977 92.5494C122.426 91.9896 123.03 91.5748 123.714 91.3581C124.399 91.1409 125.132 91.1319 125.821 91.3309C126.511 91.5303 127.126 91.9293 127.588 92.4778C128.051 93.0263 128.34 93.6991 128.42 94.4117C128.473 94.8855 128.432 95.3651 128.3 95.8229C128.167 96.2804 127.945 96.7079 127.647 97.08C127.349 97.4522 126.981 97.7619 126.563 97.9917C126.145 98.2215 125.686 98.3671 125.212 98.4192ZM134.822 98.2379C134.109 98.3172 133.388 98.183 132.751 97.8525C132.114 97.5221 131.589 97.0107 131.243 96.3824C130.897 95.754 130.745 95.0378 130.806 94.3229C130.868 93.6084 131.14 92.9284 131.588 92.3681C132.036 91.8082 132.641 91.3934 133.325 91.1767C134.009 90.9596 134.742 90.9505 135.432 91.1495C136.121 91.349 136.736 91.7479 137.198 92.2965C137.661 92.845 137.951 93.5177 138.03 94.2304C138.091 94.7064 138.056 95.1896 137.926 95.6516C137.796 96.1135 137.576 96.5447 137.277 96.92C136.978 97.2949 136.606 97.6068 136.185 97.8362C135.763 98.0656 135.3 98.2084 134.822 98.256V98.2379Z" fill="white"/>
<path d="M117.376 100.382C117.555 100.382 117.731 100.329 117.88 100.229C118.029 100.13 118.146 99.9881 118.214 99.8226C118.283 99.6567 118.301 99.4745 118.266 99.2986C118.231 99.1227 118.144 98.9613 118.018 98.8344C117.891 98.7079 117.729 98.6213 117.553 98.5864C117.377 98.5515 117.195 98.5692 117.029 98.6381C116.863 98.7065 116.721 98.8226 116.622 98.9717C116.522 99.1209 116.468 99.2963 116.468 99.4754C116.468 99.7161 116.564 99.9469 116.734 100.117C116.904 100.287 117.135 100.382 117.376 100.382Z" fill="#89CDFE"/>
<path opacity="0.15" d="M117.825 100.134C117.573 100.198 117.306 100.162 117.082 100.031C116.858 99.9002 116.694 99.6862 116.627 99.4355C116.577 99.256 116.577 99.066 116.627 98.887C116.533 98.9949 116.466 99.1231 116.432 99.2619C116.397 99.4006 116.395 99.5452 116.427 99.6848C116.45 99.8027 116.498 99.9147 116.568 100.013C116.637 100.111 116.727 100.194 116.83 100.255C116.934 100.316 117.05 100.355 117.17 100.368C117.29 100.382 117.411 100.37 117.526 100.333C117.71 100.295 117.872 100.188 117.979 100.034C117.975 100.134 117.925 100.134 117.825 100.134Z" fill="black"/>
<path opacity="0.15" d="M118.024 100.932L119.576 100.583L118.374 104.431L118.024 100.932Z" fill="black"/>
<path opacity="0.15" d="M153.177 350.142L134.551 219.205C134.263 217.145 133.18 215.279 131.535 214.004C129.891 212.729 127.812 212.146 125.743 212.378H125.566C126.017 212.367 126.457 212.521 126.802 212.812C127.146 213.103 127.372 213.51 127.436 213.956L148.308 350.137L153.177 350.142Z" fill="black"/>
<path d="M154.579 158.323L161.322 162.294C161.934 162.652 162.175 163.378 162.27 164.108C162.547 166.374 161.485 172.404 155.318 170.536C154.858 170.385 154.462 170.085 154.193 169.684L150.109 163.75L154.579 158.323Z" fill="#FC9D9D"/>
<path opacity="0.15" d="M152.075 163.99C153.205 162.992 154.344 161.179 154.72 158.477L154.167 158.173L149.865 163.917L150.555 164.674L154.185 169.706C154.456 170.108 154.853 170.408 155.315 170.559C159.63 171.873 161.427 169.588 162.053 166.791C159.063 172.843 153.799 167.494 151.975 165.341C151.815 165.146 151.737 164.897 151.755 164.645C151.774 164.394 151.889 164.159 152.075 163.99Z" fill="black"/>
<path d="M142.375 148.722L130.132 163.532L131.072 164.552L150.941 161.524L160.792 146.709L159.88 145.888L142.375 148.722Z" fill="#263238"/>
<path opacity="0.15" d="M131.112 164.448L142.932 149.936L160.837 146.564L159.825 145.888L142.26 148.586L130.095 163.772L131.112 164.448Z" fill="black"/>
<path d="M150.364 152.639C150.737 152.639 151.04 152.336 151.04 151.963C151.04 151.59 150.737 151.287 150.364 151.287C149.99 151.287 149.688 151.59 149.688 151.963C149.688 152.336 149.99 152.639 150.364 152.639Z" fill="#FAFAFA"/>
<path d="M155.36 152.629C154.981 152.631 154.611 152.747 154.298 152.962C153.986 153.177 153.746 153.481 153.609 153.835C153.314 154.601 152.883 155.494 152.406 155.757C151.521 156.237 149.997 156.623 149.194 156.21C148.391 155.798 145.183 152.932 144.62 153.254C144.057 153.576 143.576 154.293 144.139 154.936C144.702 155.58 147.669 157.502 147.106 158.146C146.544 158.79 140.3 155.961 139.32 156.21C138.34 156.459 137.795 157.053 138.358 157.439C138.921 157.824 143.172 159.456 143.404 160.009C143.404 160.009 136.979 158.323 136.738 158.722C136.498 159.121 136.098 159.764 136.738 160.009C137.378 160.254 142.918 161.691 143.404 161.931C144.199 162.262 145.029 162.504 145.877 162.652C146.752 162.881 147.616 163.155 148.463 163.473C149.763 163.922 151.182 163.885 152.456 163.368L153.11 163.101C153.603 162.9 154.021 162.55 154.304 162.1C154.588 161.649 154.722 161.121 154.689 160.589L154.562 158.404L155.26 156.591L155.36 152.629Z" fill="#FC9D9D"/>
<path d="M142.931 161.075L138.544 160.735C138.544 160.735 137.84 160.971 138.19 161.442C138.266 161.54 138.363 161.621 138.471 161.681C138.581 161.739 138.701 161.776 138.825 161.787L146.312 162.761L142.931 161.075Z" fill="#FC9D9D"/>
<path opacity="0.15" d="M113.216 117.496L112.395 134.206L119.691 130.017L116.942 116.997L113.216 117.496Z" fill="black"/>
<path d="M113.693 117.406L113.271 132.583L119.546 129.573L116.847 115.697L113.693 117.406Z" fill="#89CDFE"/>
<path opacity="0.15" d="M137.587 117.99L141.435 134.727L133.067 130.842L134.097 116.771L137.587 117.99Z" fill="black"/>
<path d="M134.097 116.086L133.067 130.176L140.332 133.363L137.029 117.822L134.097 116.086Z" fill="#89CDFE"/>
<path opacity="0.15" d="M101.215 158.55L98.8868 159.311C98.8292 159.325 98.7688 159.321 98.7139 159.298C98.6594 159.276 98.6136 159.236 98.5828 159.185C98.5524 159.135 98.5392 159.075 98.5447 159.016C98.5506 158.957 98.5751 158.902 98.6145 158.858L101.215 156.514V158.55Z" fill="black"/>
</svg>
