<svg width="821" height="566" viewBox="0 0 821 566" fill="none" xmlns="http://www.w3.org/2000/svg">
<path d="M758.988 562.78L768.01 529.873L55.457 530.269L66.8476 563.165L758.988 562.78Z" fill="#DADDDF"/>
<path opacity="0.1" d="M125.702 531.4L74.3664 531.428C73.5786 531.429 72.9408 532.067 72.9412 532.855L72.9567 560.653C72.9571 561.437 73.5956 562.078 74.3835 562.078L125.719 562.049C126.507 562.049 127.145 561.407 127.144 560.623L127.129 532.825C127.128 532.037 126.49 531.399 125.702 531.4Z" stroke="black" stroke-width="2" stroke-miterlimit="10"/>
<path opacity="0.1" d="M182.029 531.368L130.693 531.397C129.905 531.397 129.267 532.036 129.268 532.823L129.283 560.622C129.284 561.406 129.922 562.047 130.71 562.046L182.046 562.018C182.834 562.017 183.471 561.375 183.471 560.591L183.456 532.793C183.455 532.006 182.817 531.368 182.029 531.368Z" stroke="black" stroke-width="2" stroke-miterlimit="10"/>
<path opacity="0.1" d="M238.355 531.337L187.02 531.366C186.232 531.366 185.594 532.004 185.595 532.792L185.61 560.59C185.61 561.374 186.249 562.015 187.037 562.015L238.372 561.986C239.16 561.986 239.798 561.344 239.798 560.56L239.782 532.762C239.782 531.974 239.143 531.337 238.355 531.337Z" stroke="black" stroke-width="2" stroke-miterlimit="10"/>
<path opacity="0.1" d="M294.682 531.306L243.346 531.334C242.558 531.335 241.92 531.973 241.921 532.761L241.936 560.559C241.937 561.343 242.575 561.984 243.363 561.984L294.699 561.955C295.486 561.955 296.124 561.313 296.124 560.529L296.108 532.731C296.108 531.943 295.469 531.305 294.682 531.306Z" stroke="black" stroke-width="2" stroke-miterlimit="10"/>
<path opacity="0.1" d="M351.009 531.274L299.673 531.303C298.885 531.303 298.247 531.942 298.248 532.729L298.263 560.528C298.264 561.312 298.902 561.953 299.69 561.952L351.026 561.924C351.814 561.923 352.451 561.281 352.451 560.497L352.435 532.699C352.435 531.912 351.797 531.274 351.009 531.274Z" stroke="black" stroke-width="2" stroke-miterlimit="10"/>
<path opacity="0.1" d="M407.335 531.243L355.999 531.272C355.211 531.272 354.574 531.91 354.574 532.698L354.589 560.496C354.59 561.28 355.228 561.921 356.016 561.921L407.352 561.892C408.14 561.892 408.778 561.25 408.777 560.466L408.762 532.668C408.761 531.88 408.123 531.243 407.335 531.243Z" stroke="black" stroke-width="2" stroke-miterlimit="10"/>
<path opacity="0.1" d="M463.662 531.212L412.326 531.24C411.538 531.241 410.9 531.879 410.901 532.667L410.916 560.465C410.917 561.249 411.555 561.89 412.343 561.89L463.679 561.861C464.466 561.861 465.104 561.219 465.104 560.435L465.088 532.637C465.088 531.849 464.449 531.211 463.662 531.212Z" stroke="black" stroke-width="2" stroke-miterlimit="10"/>
<path opacity="0.1" d="M519.988 531.18L468.653 531.209C467.865 531.209 467.227 531.848 467.227 532.635L467.243 560.434C467.243 561.218 467.882 561.859 468.67 561.858L520.005 561.83C520.793 561.829 521.431 561.187 521.43 560.403L521.415 532.605C521.415 531.818 520.776 531.18 519.988 531.18Z" stroke="black" stroke-width="2" stroke-miterlimit="10"/>
<path opacity="0.1" d="M576.315 531.149L524.979 531.178C524.191 531.178 523.554 531.816 523.554 532.604L523.569 560.402C523.57 561.186 524.208 561.827 524.996 561.827L576.332 561.798C577.116 561.798 577.758 561.156 577.757 560.372L577.742 532.574C577.741 531.786 577.099 531.149 576.315 531.149Z" stroke="black" stroke-width="2" stroke-miterlimit="10"/>
<path opacity="0.1" d="M632.642 531.118L581.306 531.146C580.522 531.147 579.88 531.785 579.881 532.573L579.896 560.371C579.897 561.155 580.539 561.796 581.323 561.796L632.659 561.767C633.443 561.767 634.084 561.125 634.084 560.341L634.068 532.543C634.068 531.755 633.426 531.117 632.642 531.118Z" stroke="black" stroke-width="2" stroke-miterlimit="10"/>
<path opacity="0.1" d="M688.968 531.087L637.633 531.115C636.848 531.116 636.207 531.754 636.207 532.541L636.223 560.34C636.223 561.124 636.865 561.765 637.65 561.764L688.985 561.736C689.77 561.735 690.411 561.094 690.41 560.309L690.395 532.511C690.395 531.724 689.752 531.086 688.968 531.087Z" stroke="black" stroke-width="2" stroke-miterlimit="10"/>
<path opacity="0.1" d="M745.295 531.055L693.959 531.084C693.175 531.084 692.534 531.722 692.534 532.51L692.549 560.308C692.55 561.092 693.192 561.733 693.976 561.733L745.312 561.704C746.096 561.704 746.738 561.062 746.737 560.278L746.722 532.48C746.721 531.692 746.079 531.055 745.295 531.055Z" stroke="black" stroke-width="2" stroke-miterlimit="10"/>
<path opacity="0.1" d="M759.286 561.697L749.59 561.702C749.212 561.702 748.848 561.553 748.584 561.282C748.313 561.019 748.163 560.655 748.163 560.277L748.147 532.479C748.147 532.101 748.297 531.739 748.567 531.471C748.831 531.204 749.195 531.053 749.572 531.053L767.69 531.043" stroke="black" stroke-width="2" stroke-miterlimit="10"/>
<path d="M196.685 321.698C196.685 321.698 175.264 342.159 162.707 340.142L156.907 347.487C156.907 347.487 180.858 349.483 196.685 321.698Z" fill="#B2B6BB"/>
<path opacity="0.05" d="M196.685 321.698C196.685 321.698 181.239 343.589 160.934 344.384L164.496 339.799C164.496 339.799 173.268 343.023 196.685 321.698Z" fill="black"/>
<path d="M173.869 307.719C173.869 307.719 153.22 357.853 130.7 363.803L126.431 380.335C126.431 380.335 168.013 365.971 173.869 307.719Z" fill="#B2B6BB"/>
<path opacity="0.05" d="M173.869 307.719C173.869 307.719 164.264 355.816 130.869 372.221L133.43 361.884C133.43 361.884 150.513 360.784 173.869 307.719Z" fill="black"/>
<path d="M76.4751 321.872C76.4751 321.872 97.1798 371.982 119.7 377.907L123.987 394.434C123.987 394.434 82.4039 380.088 76.4751 321.872Z" fill="#B2B6BB"/>
<path opacity="0.05" d="M76.4751 321.872C76.4751 321.872 86.1415 369.957 119.547 386.325L116.975 375.991C116.975 375.991 99.898 374.882 76.4751 321.872Z" fill="black"/>
<path d="M122.051 286.25L116.455 530.963L139.007 530.253L129.174 286.011L122.051 286.25Z" fill="#B2B6BB"/>
<path opacity="0.05" d="M125.223 286.184L127.134 530.437L139.006 530.253L129.173 286.011L125.223 286.184Z" fill="black"/>
<path d="M180.214 218.626C177.494 218.633 174.783 218.936 172.129 219.528C164.912 203.459 147.487 192.107 127.103 192.118C110.483 192.128 95.7779 199.734 87.0501 211.307C84.2749 210.731 81.4484 210.441 78.6149 210.442C57.3891 210.454 40.1931 226.024 40.2038 245.183C40.2128 261.391 52.4839 274.949 69.0845 278.788L69.0852 279.908L180.248 279.846C198.964 279.835 214.122 266.127 214.113 249.178C214.103 232.228 198.966 218.615 180.214 218.626Z" fill="#DADDDF"/>
<path opacity="0.05" d="M185.285 219.008C179.896 246.909 144.18 268.483 100.88 268.507C77.5361 268.52 56.3994 262.266 40.9788 252.146C43.9236 265.181 54.9024 275.532 69.0643 278.803L69.0649 279.922L180.249 279.86C198.965 279.85 214.123 266.142 214.114 249.192C214.105 233.86 201.592 221.208 185.285 219.008Z" fill="black"/>
<path d="M210.229 278.725C208.257 278.73 206.292 278.95 204.368 279.384C199.136 267.719 186.533 259.486 171.716 259.494C159.66 259.501 148.996 265.024 142.663 273.41C140.65 272.994 138.6 272.785 136.545 272.786C121.144 272.794 108.673 284.084 108.681 297.984C108.687 309.744 117.591 319.576 129.635 322.356L129.635 323.176L210.254 323.131C223.801 323.123 234.832 313.138 234.825 300.907C234.819 288.676 223.812 278.717 210.229 278.725Z" fill="#DADDDF"/>
<path opacity="0.05" d="M214.044 279.52C210.127 299.765 184.232 315.41 152.818 315.428C135.891 315.437 120.559 310.898 109.397 303.548C111.541 312.999 119.488 320.514 129.756 322.889L129.757 323.694L210.382 323.65C223.929 323.642 234.961 313.7 234.954 301.433C234.948 290.292 225.873 281.16 214.044 279.52Z" fill="black"/>
<path d="M120.465 280.506C118.493 280.514 116.528 280.735 114.604 281.165C109.379 269.5 96.7327 261.274 81.9523 261.283C69.8956 261.289 59.2322 266.798 52.8983 275.191C50.8853 274.776 48.8361 274.564 46.7805 274.56C31.3869 274.568 18.9087 285.859 18.9164 299.765C18.9229 311.526 27.8266 321.357 39.8706 324.137L39.8711 324.95L120.489 324.905C134.036 324.897 145.068 314.955 145.061 302.688C145.054 290.421 134.04 280.499 120.465 280.506Z" fill="#DADDDF"/>
<path opacity="0.05" d="M124.137 280.776C120.227 301.013 94.3182 316.673 62.9108 316.691C45.9843 316.7 30.6524 312.161 19.4899 304.804C21.6341 314.255 29.5882 321.763 39.8567 324.138L39.8571 324.95L120.49 324.906C134.037 324.898 145.068 314.956 145.061 302.689C145.055 291.548 135.981 282.373 124.137 280.776Z" fill="black"/>
<path d="M730.005 320.688C730.005 320.688 708.584 341.15 696.027 339.133L690.227 346.477C690.227 346.477 714.178 348.474 730.005 320.688Z" fill="#B2B6BB"/>
<path opacity="0.05" d="M730.005 320.688C730.005 320.688 714.559 342.579 694.254 343.375L697.816 338.789C697.816 338.789 706.588 342.013 730.005 320.688Z" fill="black"/>
<path d="M637.727 315.807C637.727 315.807 635.726 345.353 625.092 352.337L625.738 361.645C625.738 361.645 644.796 346.994 637.727 315.807Z" fill="#B2B6BB"/>
<path opacity="0.05" d="M637.727 315.807C637.727 315.807 641.093 342.385 626.648 356.663L626.174 350.875C626.174 350.875 634.828 347.342 637.727 315.807Z" fill="black"/>
<path d="M283.732 75.8492C283.732 75.8492 278.027 74.5907 274.125 70.7083C270.223 66.8258 263.329 55.4752 245.856 60.3389C228.384 65.2026 229.355 68.1102 220.62 67.1457C211.885 66.1811 203.149 49.9348 189.547 53.5846C175.945 57.2344 159.728 75.9181 159.728 75.9181L283.732 75.8492Z" fill="white"/>
<path d="M648.798 94.1783C648.798 94.1783 643.093 92.9198 639.191 89.0374C635.288 85.1549 628.395 73.8043 610.922 78.668C593.449 83.5317 594.42 86.4393 585.685 85.4748C576.951 84.5103 568.2 68.2567 554.613 71.9066C541.025 75.5564 524.792 94.2473 524.792 94.2473L648.798 94.1783Z" fill="white"/>
<path d="M596.102 213.954C596.102 213.954 590.398 212.695 586.495 208.813C582.593 204.93 575.699 193.58 558.226 198.443C540.754 203.307 541.725 206.215 532.989 205.25C524.254 204.286 515.518 188.039 501.916 191.689C488.314 195.339 472.097 214.023 472.097 214.023L596.102 213.954Z" fill="white"/>
<path d="M707.189 306.71C707.189 306.71 686.54 356.844 664.02 362.794L659.751 379.325C659.751 379.325 701.332 364.961 707.189 306.71Z" fill="#B2B6BB"/>
<path opacity="0.05" d="M707.189 306.71C707.189 306.71 697.583 354.806 664.188 371.212L666.749 360.875C666.749 360.875 683.832 359.775 707.189 306.71Z" fill="black"/>
<path d="M609.794 320.862C609.794 320.862 630.499 370.973 653.019 376.898L657.306 393.425C657.306 393.425 615.723 379.078 609.794 320.862Z" fill="#B2B6BB"/>
<path opacity="0.05" d="M609.794 320.862C609.794 320.862 619.461 368.948 652.867 385.316L650.294 374.982C650.294 374.982 633.217 373.872 609.794 320.862Z" fill="black"/>
<path d="M655.37 285.241L649.774 529.954L672.326 529.243L662.493 285.002L655.37 285.241Z" fill="#B2B6BB"/>
<path opacity="0.05" d="M658.543 285.175L660.454 529.428L672.326 529.243L662.493 285.002L658.543 285.175Z" fill="black"/>
<path d="M713.535 217.616C710.811 217.624 708.102 217.927 705.45 218.519C698.233 202.45 680.808 191.098 660.423 191.109C643.804 191.118 629.099 198.725 620.371 210.298C617.597 209.722 614.766 209.432 611.936 209.433C590.71 209.445 573.514 225.014 573.525 244.174C573.534 260.382 585.805 273.939 602.405 277.779L602.406 278.898L713.569 278.836C732.285 278.826 747.443 265.118 747.433 248.168C747.424 231.218 732.287 217.606 713.535 217.616Z" fill="#DADDDF"/>
<path opacity="0.05" d="M718.604 217.998C713.215 245.899 677.499 267.473 634.199 267.497C610.855 267.51 589.719 261.257 574.298 251.137C577.243 264.172 588.222 274.522 602.384 277.793L602.384 278.912L713.569 278.851C732.285 278.84 747.443 265.132 747.433 248.182C747.425 232.851 734.912 220.199 718.604 217.998Z" fill="black"/>
<path d="M743.55 277.716C741.575 277.72 739.614 277.941 737.689 278.375C732.456 266.709 719.853 258.477 705.037 258.485C692.98 258.492 682.317 264.014 675.983 272.4C673.972 271.984 671.919 271.775 669.865 271.776C654.465 271.785 641.994 283.075 642.001 296.974C642.008 308.735 650.912 318.566 662.956 321.347L662.956 322.166L743.574 322.121C757.121 322.114 768.153 312.129 768.146 299.898C768.139 287.666 757.132 277.708 743.55 277.716Z" fill="#DADDDF"/>
<path opacity="0.05" d="M747.365 278.51C743.447 298.755 717.553 314.401 686.138 314.418C669.212 314.428 653.88 309.889 642.717 302.539C644.862 311.989 652.809 319.505 663.077 321.88L663.077 322.685L743.703 322.64C757.25 322.633 768.282 312.69 768.275 300.424C768.269 289.283 759.194 280.15 747.365 278.51Z" fill="black"/>
<path d="M653.785 279.497C651.817 279.505 649.849 279.726 647.924 280.156C642.699 268.498 630.053 260.272 615.272 260.28C603.215 260.287 592.552 265.796 586.218 274.189C584.207 273.773 582.154 273.562 580.1 273.558C564.707 273.566 552.228 284.856 552.236 298.763C552.243 310.523 561.146 320.355 573.19 323.135L573.191 323.947L653.809 323.903C667.356 323.895 678.388 313.953 678.381 301.686C678.374 289.419 667.36 279.489 653.785 279.497Z" fill="#DADDDF"/>
<path opacity="0.05" d="M657.456 279.766C653.546 300.004 627.638 315.664 596.23 315.681C579.304 315.691 563.972 311.152 552.809 303.795C554.953 313.245 562.908 320.754 573.176 323.129L573.176 323.941L653.795 323.896C667.342 323.889 678.373 313.946 678.367 301.68C678.375 290.539 669.3 281.364 657.456 279.766Z" fill="black"/>
<path d="M586.926 316.114C586.926 316.114 603.132 340.902 615.823 341.757L619.814 350.187C619.814 350.187 596.026 346.772 586.926 316.114Z" fill="#B2B6BB"/>
<path opacity="0.05" d="M586.926 316.114C586.926 316.114 597 340.941 616.589 346.326L614.162 341.045C614.162 341.045 604.886 342.198 586.926 316.114Z" fill="black"/>
<path d="M470.542 82.873C493.382 82.8603 511.886 64.3414 511.873 41.5092C511.86 18.6769 493.336 0.178563 470.496 0.191265C447.657 0.203967 429.153 18.7229 429.166 41.5552C429.178 64.3874 447.703 82.8857 470.542 82.873Z" fill="white"/>
<path d="M819.864 564.935L1.46053 565.39C1.1853 565.369 0.928551 565.24 0.741635 565.041C0.554002 564.834 0.450468 564.571 0.450314 564.293C0.450163 564.022 0.5534 563.751 0.740807 563.551C0.9275 563.352 1.1841 563.223 1.45931 563.202L819.863 562.746C820.141 562.768 820.398 562.896 820.583 563.095C820.769 563.295 820.876 563.566 820.876 563.836C820.876 564.114 820.769 564.378 820.584 564.585C820.399 564.785 820.142 564.913 819.864 564.935Z" fill="#B2B6BB"/>
<path d="M421.378 141.348L365.052 141.379L365.286 562.629L421.613 562.597L421.378 141.348Z" fill="#3F4249"/>
<path opacity="0.3" d="M379.316 149.212L365.056 149.22L365.286 563.341L379.546 563.333L379.316 149.212Z" fill="black"/>
<path d="M278.033 290.434L247.952 290.45L248.104 563.35L278.185 563.333L278.033 290.434Z" fill="#868A91"/>
<path opacity="0.3" d="M278.036 290.434L272.824 290.437L272.976 563.336L278.187 563.333L278.036 290.434Z" fill="white"/>
<path d="M265.923 333.198L158.325 333.258L158.453 563.399L266.051 563.34L265.923 333.198Z" fill="#1A2E35"/>
<path d="M265.923 333.198L158.325 333.258L158.453 563.399L266.051 563.34L265.923 333.198Z" fill="#61656D"/>
<path d="M175.577 290.491L145.496 290.507L145.647 563.407L175.729 563.39L175.577 290.491Z" fill="#868A91"/>
<path opacity="0.3" d="M175.576 290.491L170.364 290.494L170.516 563.393L175.728 563.39L175.576 290.491Z" fill="white"/>
<path d="M283.269 237.649L140.812 237.728L140.845 295.812L283.301 295.733L283.269 237.649Z" fill="#384955"/>
<path d="M259.565 345.547L186.034 345.588L186.155 563.384L259.686 563.343L259.565 345.547Z" fill="#384955"/>
<path opacity="0.2" d="M251.27 357.128L198.002 357.158L198.023 394.293L251.29 394.263L251.27 357.128Z" fill="black"/>
<path d="M160.614 371.877L151.638 371.882C150.224 371.882 149.079 373.028 149.08 374.442L149.115 438.477C149.116 439.89 150.262 441.036 151.676 441.035L160.653 441.03C162.067 441.029 163.212 439.882 163.211 438.47L163.175 374.434C163.175 373.02 162.028 371.876 160.614 371.877Z" fill="#1A2E35"/>
<path d="M160.614 371.877L151.638 371.882C150.224 371.882 149.079 373.028 149.08 374.442L149.115 438.477C149.116 439.89 150.262 441.036 151.676 441.035L160.653 441.03C162.067 441.029 163.212 439.882 163.211 438.47L163.175 374.434C163.175 373.02 162.028 371.876 160.614 371.877Z" fill="#3F4249"/>
<path opacity="0.5" d="M153.025 432.524L155.592 432.522C156.034 432.522 156.458 432.346 156.771 432.032C157.084 431.719 157.26 431.295 157.26 430.853L157.253 419C157.254 418.78 157.298 418.563 157.383 418.36C157.468 418.157 157.592 417.974 157.749 417.819C157.905 417.665 158.09 417.543 158.293 417.46C158.497 417.378 158.715 417.336 158.935 417.338C159.379 417.338 159.805 417.161 160.119 416.846C160.433 416.533 160.61 416.106 160.609 415.662L160.587 376.103C160.585 375.66 160.407 375.236 160.093 374.923C159.779 374.611 159.354 374.436 158.911 374.436L152.993 374.44C152.55 374.44 152.126 374.615 151.813 374.928C151.501 375.242 151.325 375.666 151.326 376.108L151.356 430.885C151.363 431.322 151.543 431.739 151.855 432.045C152.168 432.352 152.588 432.524 153.025 432.524Z" fill="black"/>
<path d="M156.321 446.428L154.496 446.429C153.319 446.43 152.365 447.384 152.365 448.561L152.369 455.839C152.37 457.015 153.325 457.969 154.503 457.969L156.328 457.968C157.505 457.967 158.459 457.012 158.458 455.835L158.454 448.558C158.454 447.38 157.499 446.427 156.321 446.428Z" fill="#61656D"/>
<path d="M251.293 398.269L198.025 398.299L198.042 429.319L251.31 429.289L251.293 398.269Z" fill="#3F4249"/>
<path opacity="0.2" d="M205.336 401.53L202.655 401.532L202.657 404.212L205.338 404.21L205.336 401.53Z" fill="white"/>
<path opacity="0.2" d="M209.55 401.528L206.869 401.529L206.871 404.209L209.551 404.208L209.55 401.528Z" fill="white"/>
<path opacity="0.2" d="M213.756 401.525L211.075 401.527L211.077 404.207L213.758 404.205L213.756 401.525Z" fill="white"/>
<path opacity="0.2" d="M205.339 405.579L202.658 405.58L202.659 408.26L205.34 408.259L205.339 405.579Z" fill="white"/>
<path opacity="0.2" d="M209.552 405.576L206.871 405.578L206.873 408.258L209.553 408.256L209.552 405.576Z" fill="white"/>
<path opacity="0.2" d="M213.758 405.574L211.077 405.575L211.079 408.255L213.759 408.254L213.758 405.574Z" fill="white"/>
<path opacity="0.2" d="M205.341 409.635L202.66 409.636L202.661 412.317L205.342 412.315L205.341 409.635Z" fill="white"/>
<path opacity="0.2" d="M209.554 409.633L206.874 409.634L206.875 412.314L209.556 412.313L209.554 409.633Z" fill="white"/>
<path opacity="0.2" d="M213.76 409.63L211.08 409.632L211.081 412.312L213.762 412.31L213.76 409.63Z" fill="white"/>
<path opacity="0.2" d="M205.343 413.684L202.662 413.685L202.664 416.365L205.344 416.364L205.343 413.684Z" fill="white"/>
<path opacity="0.2" d="M209.557 413.681L206.876 413.683L206.877 416.363L209.558 416.361L209.557 413.681Z" fill="white"/>
<path opacity="0.2" d="M213.763 413.679L211.082 413.68L211.084 416.36L213.764 416.359L213.763 413.679Z" fill="white"/>
<path opacity="0.2" d="M219.326 401.522L215.184 401.525L215.185 404.205L219.328 404.202L219.326 401.522Z" fill="white"/>
<path opacity="0.2" d="M219.328 405.571L215.186 405.573L215.187 408.253L219.33 408.251L219.328 405.571Z" fill="white"/>
<path opacity="0.2" d="M219.33 409.627L215.188 409.63L215.189 412.31L219.332 412.307L219.33 409.627Z" fill="white"/>
<path opacity="0.2" d="M208.697 417.737L206.878 417.739L202.665 417.741L202.666 420.414L206.88 420.411L208.698 420.41L209.561 420.41L209.559 417.737L208.697 417.737Z" fill="white"/>
<path opacity="0.2" d="M213.765 417.735L211.084 417.736L211.085 420.416L213.766 420.415L213.765 417.735Z" fill="white"/>
<path opacity="0.2" d="M215.19 413.678L215.192 417.734L215.193 418.454L215.194 420.407L219.329 420.404L219.328 418.451L219.328 417.731L219.325 413.676L215.19 413.678Z" fill="white"/>
<path opacity="0.2" d="M234.569 401.514L231.888 401.515L231.89 404.195L234.571 404.194L234.569 401.514Z" fill="white"/>
<path opacity="0.2" d="M238.783 401.511L236.102 401.513L236.104 404.193L238.784 404.191L238.783 401.511Z" fill="white"/>
<path opacity="0.2" d="M242.989 401.509L240.308 401.511L240.31 404.191L242.99 404.189L242.989 401.509Z" fill="white"/>
<path opacity="0.2" d="M234.571 405.562L231.891 405.564L231.892 408.244L234.573 408.242L234.571 405.562Z" fill="white"/>
<path opacity="0.2" d="M238.785 405.56L236.104 405.562L236.105 408.242L238.786 408.24L238.785 405.56Z" fill="white"/>
<path opacity="0.2" d="M242.991 405.558L240.31 405.559L240.312 408.239L242.992 408.238L242.991 405.558Z" fill="white"/>
<path opacity="0.2" d="M234.573 409.619L231.893 409.62L231.894 412.3L234.575 412.299L234.573 409.619Z" fill="white"/>
<path opacity="0.2" d="M238.787 409.616L236.106 409.618L236.108 412.298L238.789 412.296L238.787 409.616Z" fill="white"/>
<path opacity="0.2" d="M242.993 409.614L240.312 409.616L240.314 412.296L242.995 412.294L242.993 409.614Z" fill="white"/>
<path opacity="0.2" d="M234.576 413.667L231.895 413.669L231.897 416.349L234.577 416.347L234.576 413.667Z" fill="white"/>
<path opacity="0.2" d="M238.79 413.665L236.109 413.666L236.11 416.346L238.791 416.345L238.79 413.665Z" fill="white"/>
<path opacity="0.2" d="M242.996 413.663L240.315 413.664L240.316 416.344L242.997 416.343L242.996 413.663Z" fill="white"/>
<path opacity="0.2" d="M248.559 401.506L244.416 401.508L244.418 404.188L248.56 404.186L248.559 401.506Z" fill="white"/>
<path opacity="0.2" d="M248.561 405.555L244.418 405.557L244.42 408.237L248.562 408.235L248.561 405.555Z" fill="white"/>
<path opacity="0.2" d="M248.563 409.611L244.421 409.613L244.422 412.293L248.565 412.291L248.563 409.611Z" fill="white"/>
<path opacity="0.2" d="M237.929 417.721L236.111 417.722L231.897 417.725L231.898 420.397L236.112 420.395L237.93 420.394L238.793 420.394L238.792 417.721L237.929 417.721Z" fill="white"/>
<path opacity="0.2" d="M242.998 417.718L240.317 417.72L240.318 420.4L242.999 420.398L242.998 417.718Z" fill="white"/>
<path opacity="0.2" d="M244.423 413.662L244.425 417.717L244.426 418.437L244.427 420.39L248.562 420.388L248.561 418.435L248.56 417.715L248.558 413.66L244.423 413.662Z" fill="white"/>
<path opacity="0.3" d="M229.135 401.517L222.191 401.521L222.194 407.601L229.139 407.597L229.135 401.517Z" fill="black"/>
<path opacity="0.3" d="M229.14 409.622L222.195 409.626L222.199 415.706L229.143 415.702L229.14 409.622Z" fill="black"/>
<path opacity="0.3" d="M219.327 421.973L202.636 421.983L202.639 426.922L219.33 426.913L219.327 421.973Z" fill="black"/>
<path opacity="0.3" d="M248.824 421.957L232.133 421.966L232.136 426.906L248.827 426.896L248.824 421.957Z" fill="black"/>
<path opacity="0.3" d="M199.194 398.298L198.025 398.299L198.042 429.319L199.211 429.318L199.194 398.298Z" fill="black"/>
<path opacity="0.3" d="M251.31 430.415L198.042 430.445L198.116 563.377L251.384 563.348L251.31 430.415Z" fill="white"/>
<path d="M245.974 360.125L198.003 360.152L198.021 391.984L245.991 391.958L245.974 360.125Z" fill="white"/>
<path opacity="0.2" d="M251.271 357.128L245.975 360.125L245.993 391.957L251.291 394.263L251.271 357.128Z" fill="white"/>
<path opacity="0.2" d="M188.736 345.587L186.034 345.588L186.155 563.384L188.857 563.382L188.736 345.587Z" fill="black"/>
<path opacity="0.5" d="M172.944 237.711L172.977 295.794L283.266 237.649L172.944 237.711Z" fill="white"/>
<path opacity="0.2" d="M172.596 237.711L140.512 237.729L140.544 295.463L172.629 295.445L172.596 237.711Z" fill="black"/>
<path d="M275.293 283.271L239.643 283.291L239.645 286.142L275.294 286.122L275.293 283.271Z" fill="white"/>
<path d="M275.29 277.569L257.465 277.579L257.466 280.43L275.291 280.42L275.29 277.569Z" fill="white"/>
<path d="M198.269 246.25L184.009 246.258L184.017 260.513L198.277 260.505L198.269 246.25Z" fill="white"/>
<path opacity="0.2" d="M175.48 295.444L145.535 295.461L145.539 302.588L175.484 302.572L175.48 295.444Z" fill="black"/>
<path opacity="0.2" d="M278.152 295.387L248.206 295.403L248.21 302.531L278.156 302.514L278.152 295.387Z" fill="black"/>
<path d="M635.245 290.235L605.164 290.252L605.316 563.151L635.397 563.134L635.245 290.235Z" fill="#868A91"/>
<path opacity="0.3" d="M635.245 290.235L630.033 290.238L630.185 563.137L635.397 563.134L635.245 290.235Z" fill="white"/>
<path d="M623.134 333L515.536 333.06L515.664 563.201L623.262 563.141L623.134 333Z" fill="#1A2E35"/>
<path d="M623.134 333L515.536 333.06L515.664 563.201L623.262 563.141L623.134 333Z" fill="#61656D"/>
<path d="M532.787 290.292L502.706 290.309L502.858 563.208L532.939 563.191L532.787 290.292Z" fill="#868A91"/>
<path opacity="0.3" d="M532.787 290.292L527.575 290.295L527.726 563.194L532.938 563.191L532.787 290.292Z" fill="white"/>
<path d="M640.478 237.451L498.023 237.53L498.055 295.614L640.51 295.534L640.478 237.451Z" fill="#384955"/>
<path d="M616.774 345.348L543.243 345.389L543.364 563.185L616.895 563.144L616.774 345.348Z" fill="#384955"/>
<path opacity="0.2" d="M608.481 356.929L555.213 356.959L555.234 394.094L608.502 394.065L608.481 356.929Z" fill="black"/>
<path d="M517.825 371.678L508.848 371.683C507.434 371.684 506.289 372.83 506.29 374.243L506.326 438.279C506.326 439.691 507.473 440.837 508.887 440.836L517.863 440.831C519.277 440.83 520.422 439.684 520.422 438.271L520.386 374.235C520.385 372.822 519.239 371.677 517.825 371.678Z" fill="#1A2E35"/>
<path d="M517.825 371.678L508.848 371.683C507.434 371.684 506.289 372.83 506.29 374.243L506.326 438.279C506.326 439.691 507.473 440.837 508.887 440.836L517.863 440.831C519.277 440.83 520.422 439.684 520.422 438.271L520.386 374.235C520.385 372.822 519.239 371.677 517.825 371.678Z" fill="#3F4249"/>
<path opacity="0.5" d="M510.236 432.325L512.803 432.323C513.245 432.323 513.669 432.147 513.982 431.834C514.294 431.521 514.47 431.097 514.47 430.655L514.464 418.801C514.464 418.581 514.508 418.364 514.593 418.162C514.678 417.959 514.802 417.775 514.959 417.621C515.115 417.467 515.3 417.345 515.504 417.262C515.708 417.179 515.925 417.137 516.145 417.139C516.589 417.139 517.016 416.962 517.329 416.648C517.644 416.334 517.82 415.908 517.82 415.464L517.798 375.905C517.795 375.461 517.618 375.037 517.304 374.724C516.989 374.412 516.564 374.237 516.121 374.238L510.204 374.241C509.761 374.241 509.337 374.417 509.024 374.73C508.711 375.043 508.536 375.467 508.536 375.91L508.567 430.686C508.574 431.123 508.753 431.54 509.066 431.847C509.378 432.154 509.798 432.325 510.236 432.325Z" fill="black"/>
<path d="M513.532 446.229L511.707 446.23C510.529 446.231 509.575 447.185 509.576 448.363L509.58 455.64C509.581 456.817 510.536 457.771 511.713 457.77L513.538 457.769C514.715 457.768 515.67 456.813 515.669 455.637L515.665 448.359C515.664 447.182 514.709 446.229 513.532 446.229Z" fill="#61656D"/>
<path d="M494.787 433.495L494.847 541.886C494.85 546.598 495.828 550.439 500.556 550.436C502.825 550.435 505.001 549.536 506.605 547.924C508.208 546.319 509.108 544.145 509.107 541.878L509.059 455.633C509.058 454.523 509.499 453.458 510.284 452.673C511.068 451.888 512.132 451.447 513.242 451.446" stroke="#3F4249" stroke-width="6" stroke-miterlimit="10"/>
<path d="M512.279 385.643L502.873 395.969C501.869 397.075 501.086 398.363 500.565 399.762L497.205 408.759L500.499 409.171L503.347 401.514C503.857 400.162 504.61 398.915 505.569 397.835L514.12 388.208C514.402 388.018 514.616 387.745 514.733 387.426C514.852 387.108 514.866 386.76 514.775 386.433C514.691 386.192 514.553 385.975 514.371 385.798C514.188 385.621 513.967 385.489 513.725 385.412C513.482 385.335 513.226 385.316 512.975 385.356C512.723 385.397 512.485 385.494 512.279 385.643Z" fill="#B2B6BB"/>
<path d="M499.104 403.834L502.292 404.317C502.528 404.351 502.751 404.444 502.941 404.587C503.132 404.73 503.284 404.918 503.383 405.136L507.252 413.687C507.643 414.543 507.697 415.515 507.403 416.409L503.581 428.187C503.477 428.509 503.261 428.784 502.972 428.962C502.683 429.139 502.341 429.209 502.006 429.157L492.251 427.687C492.024 427.654 491.809 427.567 491.622 427.433C491.436 427.299 491.284 427.122 491.182 426.918L490.468 425.55C490.305 425.219 490.211 424.859 490.193 424.491C490.174 424.123 490.231 423.756 490.36 423.411L497.529 404.79C497.636 404.47 497.853 404.198 498.141 404.023C498.43 403.848 498.771 403.78 499.104 403.834Z" fill="#384955"/>
<path opacity="0.2" d="M499.104 403.834L502.292 404.317C502.528 404.351 502.751 404.444 502.941 404.587C503.132 404.73 503.284 404.918 503.383 405.136L507.252 413.687C507.643 414.543 507.697 415.515 507.403 416.409L503.581 428.187C503.477 428.509 503.261 428.784 502.972 428.962C502.683 429.139 502.341 429.209 502.006 429.157L492.251 427.687C492.024 427.654 491.809 427.567 491.622 427.433C491.436 427.299 491.284 427.122 491.182 426.918L490.468 425.55C490.305 425.219 490.211 424.859 490.193 424.491C490.174 424.123 490.231 423.756 490.36 423.411L497.529 404.79C497.636 404.47 497.853 404.198 498.141 404.023C498.43 403.848 498.771 403.78 499.104 403.834Z" fill="black"/>
<path d="M492.978 425.762L496.13 426.238C496.214 426.253 496.295 426.279 496.372 426.316L500.537 428.595C500.641 428.642 500.732 428.715 500.802 428.805C500.872 428.896 500.919 429.002 500.939 429.115C500.96 429.227 500.953 429.343 500.918 429.452C500.885 429.561 500.825 429.661 500.745 429.742L497.118 433.885C497.002 434.015 496.854 434.115 496.69 434.174C496.526 434.234 496.35 434.253 496.177 434.228L493.325 433.802C493.089 433.766 492.873 433.65 492.713 433.474C492.554 433.297 492.459 433.071 492.447 432.833L492.08 426.547C492.064 426.43 492.077 426.31 492.118 426.199C492.16 426.088 492.228 425.99 492.317 425.912C492.406 425.834 492.513 425.779 492.629 425.754C492.744 425.727 492.864 425.73 492.978 425.762Z" fill="#B2B6BB"/>
<path d="M608.504 398.071L555.236 398.1L555.254 429.12L608.521 429.091L608.504 398.071Z" fill="#3F4249"/>
<path opacity="0.2" d="M562.546 401.331L559.865 401.333L559.867 404.013L562.548 404.011L562.546 401.331Z" fill="white"/>
<path opacity="0.2" d="M566.76 401.329L564.079 401.331L564.081 404.011L566.761 404.009L566.76 401.329Z" fill="white"/>
<path opacity="0.2" d="M570.967 401.327L568.286 401.328L568.287 404.008L570.968 404.007L570.967 401.327Z" fill="white"/>
<path opacity="0.2" d="M562.549 405.38L559.868 405.381L559.869 408.062L562.55 408.06L562.549 405.38Z" fill="white"/>
<path opacity="0.2" d="M566.762 405.378L564.081 405.379L564.083 408.059L566.763 408.058L566.762 405.378Z" fill="white"/>
<path opacity="0.2" d="M570.969 405.375L568.288 405.377L568.29 408.057L570.97 408.055L570.969 405.375Z" fill="white"/>
<path opacity="0.2" d="M562.55 409.436L559.87 409.438L559.871 412.118L562.552 412.116L562.55 409.436Z" fill="white"/>
<path opacity="0.2" d="M566.764 409.434L564.083 409.435L564.085 412.116L566.766 412.114L566.764 409.434Z" fill="white"/>
<path opacity="0.2" d="M570.971 409.432L568.29 409.433L568.292 412.113L570.972 412.112L570.971 409.432Z" fill="white"/>
<path opacity="0.2" d="M562.553 413.485L559.872 413.486L559.874 416.166L562.554 416.165L562.553 413.485Z" fill="white"/>
<path opacity="0.2" d="M566.766 413.483L564.085 413.484L564.087 416.164L566.768 416.163L566.766 413.483Z" fill="white"/>
<path opacity="0.2" d="M570.973 413.48L568.292 413.482L568.294 416.162L570.975 416.16L570.973 413.48Z" fill="white"/>
<path opacity="0.2" d="M576.535 401.324L572.393 401.326L572.394 404.006L576.537 404.004L576.535 401.324Z" fill="white"/>
<path opacity="0.2" d="M576.537 405.372L572.395 405.375L572.396 408.055L576.539 408.052L576.537 405.372Z" fill="white"/>
<path opacity="0.2" d="M576.54 409.429L572.397 409.431L572.398 412.111L576.541 412.109L576.54 409.429Z" fill="white"/>
<path opacity="0.2" d="M565.906 417.539L564.088 417.54L559.881 417.542L559.883 420.215L564.089 420.213L565.908 420.212L566.763 420.211L566.762 417.538L565.906 417.539Z" fill="white"/>
<path opacity="0.2" d="M570.975 417.536L568.294 417.537L568.296 420.218L570.977 420.216L570.975 417.536Z" fill="white"/>
<path opacity="0.2" d="M572.399 413.479L572.402 417.535L572.402 418.255L572.403 420.208L576.539 420.206L576.537 418.253L576.537 417.533L576.535 413.477L572.399 413.479Z" fill="white"/>
<path opacity="0.2" d="M591.779 401.315L589.098 401.317L589.1 403.997L591.781 403.995L591.779 401.315Z" fill="white"/>
<path opacity="0.2" d="M595.992 401.313L593.312 401.314L593.313 403.994L595.994 403.993L595.992 401.313Z" fill="white"/>
<path opacity="0.2" d="M600.199 401.31L597.519 401.312L597.52 403.992L600.201 403.99L600.199 401.31Z" fill="white"/>
<path opacity="0.2" d="M591.781 405.364L589.1 405.365L589.102 408.045L591.782 408.044L591.781 405.364Z" fill="white"/>
<path opacity="0.2" d="M595.995 405.361L593.314 405.363L593.315 408.043L595.996 408.041L595.995 405.361Z" fill="white"/>
<path opacity="0.2" d="M600.201 405.359L597.521 405.361L597.522 408.041L600.203 408.039L600.201 405.359Z" fill="white"/>
<path opacity="0.2" d="M591.783 409.42L589.103 409.422L589.104 412.102L591.785 412.1L591.783 409.42Z" fill="white"/>
<path opacity="0.2" d="M595.997 409.418L593.316 409.419L593.318 412.099L595.999 412.098L595.997 409.418Z" fill="white"/>
<path opacity="0.2" d="M600.204 409.415L597.523 409.417L597.524 412.097L600.205 412.095L600.204 409.415Z" fill="white"/>
<path opacity="0.2" d="M591.786 413.469L589.105 413.47L589.106 416.15L591.787 416.149L591.786 413.469Z" fill="white"/>
<path opacity="0.2" d="M595.999 413.466L593.318 413.468L593.32 416.148L596.001 416.146L595.999 413.466Z" fill="white"/>
<path opacity="0.2" d="M600.206 413.464L597.525 413.465L597.527 416.145L600.208 416.144L600.206 413.464Z" fill="white"/>
<path opacity="0.2" d="M605.768 401.307L601.625 401.31L601.626 403.99L605.769 403.987L605.768 401.307Z" fill="white"/>
<path opacity="0.2" d="M605.77 405.356L601.627 405.358L601.629 408.038L605.771 408.036L605.77 405.356Z" fill="white"/>
<path opacity="0.2" d="M605.772 409.412L601.63 409.415L601.631 412.095L605.774 412.092L605.772 409.412Z" fill="white"/>
<path opacity="0.2" d="M595.139 417.523L593.321 417.524L589.114 417.526L589.116 420.199L593.322 420.196L595.141 420.195L595.996 420.195L595.995 417.522L595.139 417.523Z" fill="white"/>
<path opacity="0.2" d="M600.208 417.52L597.527 417.521L597.529 420.201L600.21 420.2L600.208 417.52Z" fill="white"/>
<path opacity="0.2" d="M601.632 413.463L601.634 417.519L601.634 418.239L601.636 420.192L605.771 420.189L605.77 418.236L605.769 417.517L605.767 413.461L601.632 413.463Z" fill="white"/>
<path opacity="0.3" d="M586.346 401.318L579.401 401.322L579.405 407.402L586.349 407.398L586.346 401.318Z" fill="black"/>
<path opacity="0.3" d="M586.35 409.423L579.406 409.427L579.409 415.507L586.354 415.503L586.35 409.423Z" fill="black"/>
<path opacity="0.3" d="M576.539 421.775L559.848 421.784L559.851 426.723L576.542 426.714L576.539 421.775Z" fill="black"/>
<path opacity="0.3" d="M606.036 421.758L589.345 421.767L589.347 426.707L606.039 426.698L606.036 421.758Z" fill="black"/>
<path opacity="0.3" d="M556.406 398.1L555.236 398.1L555.254 429.12L556.423 429.12L556.406 398.1Z" fill="black"/>
<path opacity="0.3" d="M608.522 430.217L555.254 430.246L555.328 563.179L608.596 563.149L608.522 430.217Z" fill="white"/>
<path d="M603.185 359.927L555.215 359.953L555.233 391.786L603.203 391.759L603.185 359.927Z" fill="white"/>
<path opacity="0.2" d="M608.481 356.929L603.185 359.926L603.203 391.758L608.502 394.065L608.481 356.929Z" fill="white"/>
<path opacity="0.2" d="M545.945 345.388L543.243 345.389L543.364 563.185L546.066 563.184L545.945 345.388Z" fill="black"/>
<path opacity="0.5" d="M530.155 237.512L530.187 295.596L640.478 237.451L530.155 237.512Z" fill="white"/>
<path opacity="0.2" d="M529.807 237.512L497.722 237.53L497.754 295.265L529.839 295.247L529.807 237.512Z" fill="black"/>
<path d="M632.503 283.073L596.854 283.092L596.855 285.943L632.505 285.924L632.503 283.073Z" fill="white"/>
<path d="M632.5 277.37L614.675 277.38L614.677 280.231L632.502 280.221L632.5 277.37Z" fill="white"/>
<path d="M555.48 246.051L541.22 246.059L541.228 260.315L555.488 260.307L555.48 246.051Z" fill="white"/>
<path opacity="0.2" d="M532.691 295.245L502.745 295.262L502.749 302.39L532.695 302.373L532.691 295.245Z" fill="black"/>
<path opacity="0.2" d="M635.362 295.188L605.417 295.205L605.42 302.332L635.366 302.316L635.362 295.188Z" fill="black"/>
<path d="M704.419 107.69L66.2881 108.045L66.3087 145.109L704.439 144.754L704.419 107.69Z" fill="#384955"/>
<path opacity="0.6" d="M704.419 107.69L66.2881 108.045L66.3087 145.109L704.439 144.754L704.419 107.69Z" fill="white"/>
<path d="M709.41 107.687L59.8711 108.049L59.8755 115.889L709.414 115.528L709.41 107.687Z" fill="#384955"/>
<path d="M709.428 141.188L59.8896 141.549L59.894 149.389L709.433 149.028L709.428 141.188Z" fill="#384955"/>
<path opacity="0.2" d="M230.281 115.794L66.2925 115.885L66.3068 141.545L230.296 141.454L230.281 115.794Z" fill="black"/>
<path opacity="0.2" d="M223.86 107.957L59.8711 108.049L59.8755 115.889L223.864 115.798L223.86 107.957Z" fill="black"/>
<path opacity="0.2" d="M223.879 141.458L59.8896 141.549L59.894 149.389L223.883 149.298L223.879 141.458Z" fill="black"/>
<path d="M569.672 124.872L371.459 124.982L371.463 132.11L569.676 131.999L569.672 124.872Z" fill="white"/>
<path d="M530.162 463.127C530.925 462.977 640.925 476.993 641.484 481.148C642.042 485.303 643.947 487.747 637.395 487.651C630.842 487.555 595.918 483.996 585.827 481.756C575.737 479.517 582.752 478.03 561.847 476.994C540.941 475.958 535.23 473.573 531.808 474.473C528.386 475.373 521.826 474.479 521.89 472.697C521.953 470.915 530.162 463.127 530.162 463.127Z" fill="#61656D"/>
<path d="M653.871 499.595C652.67 493.894 648.877 494.744 648.877 494.744C648.819 492.712 648.347 490.713 647.505 488.864C646.513 486.569 644.886 484.603 642.81 483.197C640.742 481.792 638.317 481.002 635.815 480.923C617.177 480.292 580.34 474.411 569.117 472.842C556.346 471.06 524.852 469.053 524.852 469.053C524.852 469.053 526.839 464.918 529.463 464.061C535.814 462.019 537.024 457.842 537.024 457.842L529.445 457.846C529.445 457.846 482.685 428.648 473.72 424.583C467.18 421.65 456.669 418.791 451.464 417.468C449.439 416.952 447.364 416.661 445.274 416.602C434.237 416.287 396.598 415.289 386.502 416.057C374.631 416.954 364.329 417.409 349.093 420.105C333.858 422.801 295.795 442.309 295.795 442.309L265.565 456.211C251 459.127 216.283 456.908 212.47 460.517C208.658 464.126 207.81 529.045 216.788 531.279C225.765 533.512 243.739 544.029 243.739 544.029L257.04 511.947L312.652 509.714L325.22 543.969L533.543 543.853L552.722 506.48L598.5 500.146C600.499 503.923 608.193 518.545 608.193 519.322C608.194 520.22 653.11 515.868 654.477 512.695C655.844 509.523 655.065 505.268 653.871 499.595Z" fill="#61656D"/>
<path d="M203.256 495.953C203.529 493.723 204.651 491.685 206.388 490.261C208.126 488.837 210.345 488.137 212.586 488.307C222.568 489.057 239.096 490.787 244.403 494.298C252.185 499.44 255.111 517.101 255.111 517.101L244.431 543.986L215.789 531.136C215.789 531.136 199.956 523.397 203.256 495.953Z" fill="#61656D"/>
<path opacity="0.2" d="M203.256 495.953C203.529 493.723 204.651 491.685 206.388 490.261C208.126 488.837 210.345 488.137 212.586 488.307C222.568 489.057 239.096 490.787 244.403 494.298C252.185 499.44 255.111 517.101 255.111 517.101L244.431 543.986L215.789 531.136C215.789 531.136 199.956 523.397 203.256 495.953Z" fill="black"/>
<path d="M574.866 490.081C564.086 490.087 553.75 494.373 546.132 501.996C538.522 509.62 534.242 519.956 534.248 530.731L534.255 543.874L615.494 543.829L615.487 530.665C615.474 519.901 611.19 509.581 603.578 501.972C595.959 494.363 585.633 490.086 574.866 490.081Z" fill="#21252B"/>
<path d="M285.019 490.242C274.241 490.248 263.906 494.534 256.288 502.158C248.672 509.781 244.395 520.118 244.401 530.893L244.408 544.036L325.669 543.99L325.662 530.826C325.65 520.058 321.363 509.735 313.742 502.126C306.121 494.516 295.79 490.242 285.019 490.242Z" fill="#21252B"/>
<path opacity="0.3" d="M521.576 461.222C521.576 461.222 524.95 463.8 528.307 462.237C529.246 461.849 530.084 461.253 530.759 460.495C531.434 459.736 531.928 458.835 532.204 457.858L530.158 457.86L525.467 458.354L521.576 461.222Z" fill="black"/>
<g opacity="0.2">
<path opacity="0.2" d="M412.557 537.606L412.364 537.606L339.538 535.451L339.538 535.195C339.99 515.95 332.283 503.038 325.741 495.629C321.661 490.921 316.759 486.995 311.275 484.04L311.153 483.983L311.153 483.855C310.266 478.153 303.896 460.338 303.832 460.167L303.71 459.817L304.081 459.817L416.302 464.537L416.302 464.751C418.515 482.128 418.576 499.712 416.481 517.104C414.898 529.778 412.621 537.342 412.599 537.414L412.557 537.606ZM340.051 534.952L412.186 537.093C413.947 530.51 415.221 523.805 415.996 517.033C418.08 499.748 418.028 482.273 415.839 465.001L304.424 460.316C305.316 462.839 310.729 478.132 311.617 483.613C317.103 486.595 322.012 490.534 326.111 495.244C330.291 499.964 333.622 505.371 335.959 511.226C338.905 518.779 340.296 526.849 340.051 534.952Z" fill="black"/>
</g>
<g opacity="0.2">
<path opacity="0.2" d="M516.305 538.41L516.163 538.41L412.372 537.598L412.371 537.099L516.02 537.904C520.215 530.061 521.824 475.098 521.943 470.943L416.053 465.043L416.053 464.537L522.428 470.465L522.428 470.707C522.365 473.152 520.814 530.581 516.362 538.289L516.305 538.41Z" fill="black"/>
</g>
<path d="M304.66 458.804C304.66 458.804 304.948 451.712 307.192 448.574C309.437 445.437 340.187 430.644 352.506 427.28C364.824 423.916 407.831 422.545 407.831 422.545L415.019 461.957L304.66 458.804Z" fill="#3F4249"/>
<path d="M342.141 458.256L408.329 459.566L402.014 424.936C402.014 424.936 364.226 426.14 353.39 429.097C349.055 430.427 344.806 432.022 340.666 433.872C341.155 441.663 341.774 451.741 342.141 458.256Z" fill="#DADDDF"/>
<path d="M337.807 435.121C325.44 440.588 311.491 447.781 310.173 449.62C308.185 452.38 307.475 457.562 307.475 457.562L338.576 458.179L337.807 435.121Z" fill="#DADDDF"/>
<path d="M407.832 422.545C407.832 422.545 444.267 424.164 452.481 426.255C460.696 428.346 480.787 438.677 489.382 444.446C495.873 448.797 504.062 456.412 509.013 461.235C509.366 461.576 509.607 462.016 509.704 462.498C509.801 462.979 509.75 463.478 509.557 463.93C509.364 464.381 509.038 464.763 508.624 465.025C508.209 465.287 507.723 465.417 507.233 465.398L415.019 461.957L407.832 422.545Z" fill="#3F4249"/>
<path d="M413.5 424.929C413.5 424.929 445.886 426.337 453.188 428.222C460.49 430.107 478.335 439.27 485.995 444.391C491.765 448.258 502.036 456.356 506.438 460.631C506.764 460.93 506.989 461.323 507.082 461.756C507.174 462.188 507.131 462.639 506.956 463.046C506.782 463.452 506.486 463.794 506.109 464.026C505.732 464.258 505.292 464.367 504.85 464.338L419.894 459.959L413.5 424.929Z" fill="#DADDDF"/>
<path d="M475.66 425.187L472.503 426.614C472.369 426.674 472.253 426.768 472.168 426.888C472.083 427.007 472.032 427.147 472.02 427.293C472.009 427.439 472.037 427.586 472.102 427.717C472.167 427.849 472.266 427.96 472.389 428.04L521.604 461.221C521.604 461.221 528.921 463.533 530.158 457.859C530.158 457.859 483.384 428.754 475.66 425.187Z" fill="#DADDDF"/>
<path opacity="0.3" d="M626.646 481.576C626.646 481.576 623.617 483.11 622.812 485.463C622.008 487.816 625.234 494.492 634.033 494.167C642.831 493.841 626.646 481.576 626.646 481.576Z" fill="black"/>
<path d="M286.795 563.157C305.039 563.111 319.792 548.284 319.747 530.039C319.702 511.793 304.875 497.039 286.632 497.084C268.388 497.129 253.635 511.957 253.681 530.202C253.726 548.449 268.552 563.203 286.795 563.157Z" fill="black"/>
<path d="M286.75 553.128C299.445 553.093 309.706 542.766 309.668 530.072C309.63 517.376 299.307 507.115 286.612 507.154C273.917 507.191 263.656 517.514 263.695 530.209C263.732 542.906 274.055 553.164 286.75 553.128Z" fill="#868A91"/>
<path d="M286.744 545.516C295.233 545.483 302.086 538.569 302.051 530.078C302.015 521.587 295.103 514.732 286.614 514.768C278.123 514.804 271.27 521.716 271.307 530.208C271.342 538.699 278.254 545.556 286.744 545.516Z" fill="#DADDDF"/>
<path d="M575.306 562.989C593.551 562.944 608.302 548.117 608.256 529.873C608.211 511.627 593.386 496.872 575.141 496.918C556.902 496.963 542.145 511.791 542.19 530.036C542.236 548.282 557.068 563.035 575.306 562.989Z" fill="black"/>
<path d="M575.264 552.975C587.956 552.939 598.217 542.613 598.182 529.92C598.139 517.224 587.816 506.963 575.125 507.001C562.426 507.039 552.165 517.362 552.208 530.057C552.243 542.752 562.566 553.01 575.264 552.975Z" fill="#868A91"/>
<path d="M575.225 545.398C583.716 545.358 590.565 538.449 590.531 529.958C590.498 521.467 583.585 514.612 575.094 514.649C566.602 514.684 559.754 521.597 559.787 530.088C559.82 538.578 566.733 545.431 575.225 545.398Z" fill="#DADDDF"/>
<path d="M536.87 541.278L323.206 538.667C320.874 538.668 321.273 550.315 320.782 551.719C320.29 553.124 322.373 554.57 325.211 554.568L534.304 554.452C538.404 554.449 539.679 552.353 539.143 550.222C538.893 549.189 539.487 541.312 536.87 541.278Z" fill="#61656D"/>
<path d="M615.133 509.744C613.529 509.681 612.282 512.012 612.497 514.643C612.727 517.572 611.188 543.789 615.48 543.786L645.493 536.998C656.548 530.919 656.534 517.433 656.534 517.433C656.532 514.076 654.905 511.326 652.88 511.249L615.133 509.744Z" fill="#61656D"/>
<path opacity="0.2" d="M615.133 509.744C613.529 509.681 612.282 512.012 612.497 514.643C612.727 517.572 611.188 543.789 615.48 543.786L645.493 536.998C656.548 530.919 656.534 517.433 656.534 517.433C656.532 514.076 654.905 511.326 652.88 511.249L615.133 509.744Z" fill="black"/>
<path opacity="0.2" d="M536.87 541.278L323.206 538.667C320.874 538.668 321.273 550.315 320.782 551.719C320.29 553.124 322.373 554.57 325.211 554.568L534.304 554.452C538.404 554.449 539.679 552.353 539.143 550.222C538.893 549.189 539.487 541.312 536.87 541.278Z" fill="black"/>
<path d="M319.344 469.139L319.319 469.623C319.261 470.716 320.1 471.649 321.193 471.707L344.782 472.958C345.875 473.016 346.807 472.177 346.865 471.084L346.891 470.6C346.949 469.508 346.11 468.574 345.017 468.517L321.429 467.265C320.335 467.207 319.403 468.046 319.344 469.139Z" fill="#3F4249"/>
<path d="M424.837 474.738L424.811 475.222C424.753 476.315 425.592 477.248 426.686 477.305L450.274 478.557C451.367 478.615 452.3 477.777 452.359 476.683L452.384 476.199C452.442 475.106 451.603 474.174 450.51 474.116L426.921 472.864C425.828 472.806 424.895 473.645 424.837 474.738Z" fill="#3F4249"/>
<path opacity="0.3" d="M211.454 465.919L234.641 465.906C235.099 465.906 235.55 466.02 235.953 466.237C236.357 466.453 236.701 466.766 236.954 467.148C237.208 467.529 237.363 467.967 237.406 468.423C237.449 468.879 237.38 469.338 237.202 469.76L234.604 475.977C233.387 478.869 231.342 481.337 228.728 483.071C226.114 484.806 223.045 485.731 219.907 485.729L211.465 485.734C210.672 485.734 209.911 485.42 209.35 484.861C208.788 484.301 208.471 483.542 208.469 482.749L208.461 468.914C208.461 468.12 208.776 467.359 209.337 466.797C209.899 466.235 210.66 465.919 211.454 465.919Z" fill="black"/>
<path d="M211.054 465.919L231.688 465.907C233.457 465.906 234.648 467.93 233.972 469.762L231.658 475.979C229.451 481.903 224.291 485.755 218.573 485.758L211.065 485.763C210.317 485.715 209.618 485.376 209.119 484.817C208.62 484.259 208.36 483.526 208.397 482.778L208.389 468.914C208.35 468.165 208.607 467.43 209.106 466.869C209.605 466.309 210.305 465.967 211.054 465.919Z" fill="#DADDDF"/>
<path d="M630.054 480.556C630.054 480.556 624.158 481.393 625.151 485.277C625.866 487.95 629.746 491.162 632.1 492.907C633.22 493.728 634.56 494.194 635.951 494.245L649.576 494.743C649.576 494.743 650.886 490.573 646.391 484.553C645.527 483.403 644.422 482.465 643.145 481.809C641.868 481.152 640.457 480.795 639.023 480.765L630.054 480.556Z" fill="#DADDDF"/>
<path d="M532.569 458.043C532.569 458.043 634.033 469.22 639.03 479.709C639.03 479.709 639.7 480.215 635.229 479.184C621.83 476.076 583.503 469.946 576.309 469.302C569.114 468.657 532.5 462.747 532.5 462.747L532.569 458.043Z" fill="#61656D"/>
<path opacity="0.8" d="M363.337 427.444L354.249 458.491L371.126 458.831L378.11 426.146L363.337 427.444Z" fill="#F4F4F4"/>
<path opacity="0.8" d="M382.358 425.874C382.358 425.874 374.819 458.901 375.41 458.915L379.888 459.005L387.712 425.565L382.358 425.874Z" fill="#F4F4F4"/>
<path opacity="0.8" d="M439.111 426.505L430.51 460.502L442.46 461.087L449.864 427.539L439.111 426.505Z" fill="#F4F4F4"/>
<path opacity="0.8" d="M462.182 431.639C460.47 430.877 458.844 430.215 457.375 429.624L451.397 461.581L451.739 461.581L455.882 461.8L462.182 431.639Z" fill="#F4F4F4"/>
<path d="M272.235 453.476C272.235 453.476 278.083 455.918 283.236 453.47C288.39 451.022 332.954 427.882 336.09 426.562C339.227 425.242 333.665 425.266 333.665 425.266C333.665 425.266 315.702 432.504 307.291 436.977L272.235 453.476Z" fill="#DADDDF"/>
<path d="M511.253 454.919C511.51 454.918 518.135 456.497 518.135 456.497C519.075 456.782 519.891 457.378 520.449 458.186C521.007 458.996 521.272 459.97 521.203 460.95L521.005 463.801C520.942 464.739 520.575 465.631 519.961 466.342C519.347 467.053 518.518 467.546 517.599 467.745C513.421 468.653 510.113 469.025 510.113 468.761C510.113 468.405 511.253 454.919 511.253 454.919Z" fill="#61656D"/>
<path opacity="0.3" d="M511.253 454.919C511.51 454.918 518.135 456.497 518.135 456.497C519.075 456.782 519.891 457.378 520.449 458.186C521.007 458.996 521.272 459.97 521.203 460.95L521.005 463.801C520.942 464.739 520.575 465.631 519.961 466.342C519.347 467.053 518.518 467.546 517.599 467.745C513.421 468.653 510.113 469.025 510.113 468.761C510.113 468.405 511.253 454.919 511.253 454.919Z" fill="black"/>
<path opacity="0.5" d="M272.514 465.9L261.163 465.907C260.359 465.907 259.709 466.558 259.709 467.362L259.715 478.395C259.716 479.198 260.367 479.849 261.171 479.849L272.522 479.842C273.325 479.842 273.976 479.19 273.975 478.387L273.969 467.354C273.969 466.55 273.317 465.9 272.514 465.9Z" fill="black"/>
<path d="M257.541 465.909L246.19 465.915C245.387 465.916 244.736 466.567 244.737 467.37L244.743 478.404C244.743 479.206 245.395 479.857 246.198 479.857L257.549 479.851C258.353 479.85 259.003 479.198 259.003 478.396L258.997 467.362C258.996 466.559 258.345 465.908 257.541 465.909Z" fill="#61656D"/>
<path opacity="0.2" d="M257.541 465.909L246.19 465.915C245.387 465.916 244.736 466.567 244.737 467.37L244.743 478.404C244.743 479.206 245.395 479.857 246.198 479.857L257.549 479.851C258.353 479.85 259.003 479.198 259.003 478.396L258.997 467.362C258.996 466.559 258.345 465.908 257.541 465.909Z" fill="white"/>
<path d="M257.634 466.464L246.811 466.47C246.059 466.47 245.45 467.08 245.45 467.832L245.456 477.939C245.456 478.691 246.066 479.3 246.818 479.3L257.641 479.294C258.394 479.294 259.003 478.684 259.003 477.932L258.997 467.825C258.996 467.073 258.387 466.464 257.634 466.464Z" fill="#61656D"/>
<path opacity="0.3" d="M257.634 466.464L246.811 466.47C246.059 466.47 245.45 467.08 245.45 467.832L245.456 477.939C245.456 478.691 246.066 479.3 246.818 479.3L257.641 479.294C258.394 479.294 259.003 478.684 259.003 477.932L258.997 467.825C258.996 467.073 258.387 466.464 257.634 466.464Z" fill="black"/>
<path d="M257.064 467.141L247.382 467.146C246.709 467.146 246.163 467.693 246.163 468.366L246.168 477.411C246.169 478.084 246.715 478.629 247.388 478.629L257.071 478.624C257.744 478.623 258.29 478.078 258.289 477.404L258.284 468.359C258.284 467.686 257.737 467.14 257.064 467.141Z" fill="#61656D"/>
<path opacity="0.1" d="M257.064 467.141L247.382 467.146C246.709 467.146 246.163 467.693 246.163 468.366L246.168 477.411C246.169 478.084 246.715 478.629 247.388 478.629L257.071 478.624C257.744 478.623 258.29 478.078 258.289 477.404L258.284 468.359C258.284 467.686 257.737 467.14 257.064 467.141Z" fill="white"/>
<path opacity="0.2" d="M272.229 466.25L261.449 466.256C260.685 466.256 260.066 466.876 260.066 467.639L260.072 478.117C260.072 478.881 260.692 479.5 261.456 479.499L272.236 479.493C273 479.493 273.619 478.873 273.619 478.11L273.613 467.632C273.613 466.868 272.993 466.249 272.229 466.25Z" stroke="black" stroke-width="0.95" stroke-miterlimit="10"/>
<path opacity="0.5" d="M266.844 476.081C268.616 476.08 270.052 474.643 270.051 472.872C270.05 471.101 268.613 469.665 266.841 469.666C265.069 469.667 263.633 471.104 263.634 472.876C263.635 474.647 265.073 476.082 266.844 476.081Z" fill="black"/>
<path opacity="0.3" d="M264.704 472.875C264.703 472.118 264.972 471.386 265.461 470.809C265.951 470.231 266.629 469.847 267.376 469.723C267.199 469.686 267.02 469.667 266.841 469.666C265.99 469.667 265.174 470.005 264.573 470.607C263.971 471.209 263.634 472.025 263.634 472.876C263.635 473.726 263.973 474.542 264.575 475.143C265.177 475.744 265.994 476.082 266.844 476.081C267.024 476.081 267.203 476.061 267.379 476.024C266.633 475.901 265.954 475.517 265.463 474.94C264.973 474.364 264.704 473.632 264.704 472.875Z" fill="black"/>
<path opacity="0.7" d="M259.711 469.314L258.998 469.314L258.998 470.027L259.711 470.027L259.711 469.314Z" fill="black"/>
<path opacity="0.7" d="M259.714 475.729L259.001 475.729L259.001 476.442L259.714 476.442L259.714 475.729Z" fill="black"/>
<path d="M301.228 558.43L317.014 558.037L317.772 549.326L317.814 549.326L320.07 527.386L320.069 527.029L326.019 469.277C326.041 469.024 326.156 468.788 326.343 468.616C326.529 468.444 326.774 468.349 327.028 468.349C327.281 468.349 327.526 468.444 327.713 468.615C327.9 468.787 328.016 469.023 328.037 469.276L334.529 527.007L337.044 549.358L337.453 554.034L337.805 558.068L346.582 558.277L345.866 554.1L345.515 550.715L345.291 545.783L344.761 527.379L344.76 527.13L342.58 451.719L308.762 451.182L309.225 526.936L309.351 548.148L309.238 550.735C309.205 551.605 308.902 552.439 308.369 553.123C308.119 553.444 307.824 553.729 307.493 553.972L301.228 558.43Z" fill="#FC9D9D"/>
<path opacity="0.15" d="M308.405 553.081L312.036 556.151L312.211 551.161L312.871 532.008C312.889 531.446 313.073 530.901 313.4 530.444C313.727 529.985 314.183 529.634 314.709 529.434L320.069 527.386L320.212 527.336L320.212 527.029L320.076 527.029L309.231 526.893L309.357 548.105L309.245 550.692C309.253 550.792 309.253 550.899 309.245 550.999C309.16 551.754 308.87 552.474 308.405 553.081Z" fill="black"/>
<path d="M345.416 554.229L345.174 554.001C344.234 553.182 343.025 552.741 341.779 552.756C340.532 552.771 339.335 553.242 338.415 554.083L338.279 554.233C338.06 554.44 337.884 554.682 337.761 554.953C337.639 555.231 337.574 555.523 337.567 555.823L337.568 556.771C337.568 557.32 337.482 557.092 337.297 557.612L336.465 560.179C336.252 560.799 336.144 561.44 336.145 562.096L336.145 562.417C336.167 562.673 336.289 562.916 336.485 563.079C336.682 563.25 336.936 563.329 337.194 563.314L346.855 563.309C346.982 563.316 347.111 563.302 347.233 563.266C347.356 563.223 347.469 563.159 347.566 563.08C347.664 562.995 347.744 562.895 347.801 562.781C347.859 562.66 347.893 562.539 347.902 562.41L347.902 562.289C347.9 561.534 347.765 560.785 347.502 560.073L346.531 557.557C346.309 556.987 346.174 557.165 346.174 556.545L346.173 555.832C346.129 555.219 345.86 554.649 345.416 554.229Z" fill="#384955"/>
<path opacity="0.6" d="M347.916 562.289L347.916 562.41C347.894 562.667 347.772 562.902 347.576 563.073C347.38 563.244 347.126 563.323 346.868 563.309L337.207 563.314C337.079 563.321 336.95 563.307 336.828 563.272C336.706 563.229 336.592 563.165 336.495 563.087C336.397 563.001 336.317 562.901 336.259 562.787C336.201 562.666 336.167 562.545 336.159 562.417L336.158 562.096C336.144 561.968 336.144 561.847 336.158 561.718L347.887 561.712L347.916 562.289Z" fill="black"/>
<path d="M308.796 451.139L308.852 550.978L309.251 550.977L312.21 551.14L317.786 551.457L320.211 527.314L320.211 527.007L326.018 469.276C326.04 469.023 326.157 468.786 326.347 468.615C326.535 468.444 326.783 468.352 327.037 468.356C327.285 468.354 327.525 468.446 327.708 468.612C327.892 468.788 328.009 469.022 328.036 469.275L336.759 551.468L345.906 551.007L342.607 451.676L308.796 451.139Z" fill="#21252B"/>
<path opacity="0.3" d="M340.661 551.274L333.039 474.298C332.745 470.877 330.676 468.319 328.245 468.321L327.097 468.321C327.61 468.321 328.045 468.87 328.096 469.618L336.761 551.468L340.661 551.274Z" fill="black"/>
<path opacity="0.3" d="M308.792 452.351L308.847 550.978L312.213 551.168L313.848 452.355L308.792 452.351Z" fill="black"/>
<path d="M318.104 555.235L318.107 561.386C318.109 561.621 318.063 561.856 317.973 562.077C317.883 562.291 317.751 562.491 317.584 562.662C317.418 562.826 317.219 562.962 317.001 563.055C316.783 563.14 316.548 563.19 316.311 563.19L295.413 563.202C295.214 563.202 295.023 563.117 294.881 562.981C294.74 562.839 294.66 562.646 294.657 562.447C294.66 561.727 294.887 561.035 295.306 560.451C295.725 559.873 296.315 559.438 296.994 559.21L301.713 557.653L307.693 553.002C307.993 552.767 308.366 552.646 308.746 552.653C309.127 552.66 309.493 552.802 309.782 553.051L312.435 555.316C312.629 555.48 312.862 555.594 313.112 555.644C313.36 555.694 313.618 555.679 313.862 555.608L317.212 554.558C317.317 554.53 317.426 554.529 317.532 554.551C317.637 554.572 317.736 554.615 317.822 554.679C317.908 554.743 317.978 554.829 318.027 554.921C318.076 555.021 318.102 555.128 318.104 555.235Z" fill="#384955"/>
<path opacity="0.6" d="M316.312 563.19L295.414 563.202C295.214 563.202 295.023 563.117 294.881 562.981C294.74 562.839 294.66 562.646 294.658 562.447C294.654 562.19 294.688 561.934 294.757 561.691L318.101 561.678C318.033 562.099 317.815 562.491 317.487 562.762C317.158 563.04 316.742 563.19 316.312 563.19Z" fill="black"/>
<path d="M307.796 555.462C307.818 555.462 307.841 555.462 307.862 555.447C307.883 555.44 307.902 555.426 307.917 555.412C307.935 555.397 307.95 555.376 307.96 555.355C307.97 555.326 307.975 555.305 307.975 555.276C307.975 555.255 307.97 555.233 307.96 555.205C307.95 555.183 307.935 555.162 307.917 555.148L306.654 553.787C306.636 553.766 306.616 553.752 306.592 553.744C306.569 553.73 306.544 553.73 306.519 553.73C306.493 553.73 306.468 553.73 306.445 553.744C306.421 553.752 306.4 553.766 306.383 553.787C306.35 553.823 306.331 553.873 306.331 553.916C306.331 553.966 306.35 554.015 306.383 554.051L307.653 555.412C307.695 555.44 307.745 555.454 307.796 555.462Z" fill="white"/>
<path d="M306.818 556.246C306.862 556.246 306.906 556.232 306.939 556.203C306.974 556.168 306.993 556.118 306.993 556.068C306.993 556.018 306.973 555.968 306.939 555.932L305.676 554.572C305.639 554.543 305.593 554.522 305.545 554.529C305.497 554.529 305.452 554.55 305.418 554.586C305.385 554.615 305.365 554.665 305.362 554.707C305.36 554.757 305.376 554.807 305.406 554.843L306.676 556.203C306.72 556.225 306.768 556.239 306.818 556.246Z" fill="white"/>
<path d="M305.799 557.017C305.843 557.017 305.886 557.002 305.92 556.974C305.939 556.96 305.954 556.938 305.964 556.91C305.974 556.888 305.979 556.867 305.979 556.838C305.979 556.81 305.974 556.788 305.964 556.767C305.954 556.739 305.939 556.717 305.92 556.703L304.657 555.342C304.622 555.307 304.575 555.292 304.525 555.292C304.476 555.292 304.429 555.307 304.393 555.342C304.375 555.357 304.36 555.378 304.35 555.407C304.34 555.428 304.335 555.449 304.335 555.478C304.335 555.506 304.34 555.528 304.35 555.549C304.36 555.578 304.375 555.599 304.394 555.613L305.656 556.974C305.697 557.002 305.748 557.024 305.799 557.017Z" fill="white"/>
<path d="M216.075 544.785L162.786 544.815C159.439 544.81 156.231 543.479 153.864 541.114C151.497 538.751 150.164 535.544 150.159 532.198L150.117 456.409C150.117 454.733 150.784 453.125 151.969 451.939C153.154 450.753 154.761 450.086 156.438 450.083L156.44 454.36C156.171 454.359 155.905 454.411 155.656 454.514C155.407 454.617 155.181 454.767 154.991 454.958C154.801 455.148 154.65 455.374 154.548 455.623C154.446 455.871 154.393 456.138 154.395 456.406L154.437 532.196C154.44 534.408 155.321 536.528 156.885 538.092C158.45 539.657 160.571 540.532 162.784 540.538L216.073 540.509C217.346 540.508 218.602 540.222 219.745 539.666C220.888 539.103 221.888 538.289 222.666 537.283L244.041 509.722C245.219 508.2 246.732 506.968 248.462 506.122C250.192 505.277 252.094 504.841 254.02 504.848L276.315 504.836C277.413 504.837 278.501 504.622 279.516 504.203C280.53 503.784 281.452 503.169 282.229 502.393C283.006 501.618 283.623 500.697 284.044 499.683C284.464 498.669 284.68 497.582 284.681 496.484L284.672 479.278L288.95 479.276L288.959 496.482C288.958 499.828 287.628 503.036 285.264 505.404C282.899 507.772 279.692 509.105 276.346 509.112L254.03 509.125C252.758 509.121 251.501 509.408 250.359 509.968C249.217 510.527 248.219 511.343 247.443 512.35L226.069 539.904C224.89 541.43 223.375 542.664 221.642 543.513C219.909 544.356 218.004 544.791 216.075 544.785Z" fill="black"/>
<path d="M337.389 401.556L345.474 399.756C346.121 400.047 346.701 400.469 347.176 400.996C347.651 401.524 348.012 402.145 348.235 402.819L358.082 429.243C358.556 430.552 358.51 431.992 357.953 433.268C357.394 434.543 356.367 435.555 355.084 436.095L342.581 441.333L339.276 435.369L347.687 430.083L338.928 411.606L333.116 409.855L337.389 401.556Z" fill="#FC9D9D"/>
<path d="M342.573 441.333L337.234 443.609C337.234 443.609 336.637 445.57 332.958 446.249L331.206 449.315C331.123 449.505 330.973 449.659 330.784 449.746C330.596 449.832 330.382 449.846 330.183 449.784C329.984 449.723 329.816 449.589 329.71 449.411C329.604 449.232 329.568 449.021 329.608 448.817L330.117 440.506L339.269 435.354L342.573 441.333Z" fill="#FC9D9D"/>
<path d="M321.266 384.88C321.401 384.88 321.458 385.03 321.451 385.165C321.444 385.301 321.302 385.358 321.166 385.351L320.082 385.194C319.824 385.147 319.596 385.001 319.446 384.786C319.296 384.57 319.238 384.305 319.283 384.047C319.321 383.889 319.396 383.742 319.5 383.618C319.606 383.494 319.739 383.397 319.889 383.334C320.085 383.246 320.25 383.103 320.364 382.921C320.478 382.74 320.536 382.528 320.53 382.314C320.53 382.122 320.53 381.972 320.53 381.93C320.978 379.634 321.266 384.88 321.266 384.88Z" fill="#FC9D9D"/>
<path d="M320.627 377.774L320.391 388.894C320.374 389.673 320.629 390.434 321.112 391.046C321.595 391.659 322.276 392.084 323.038 392.249L323.751 392.406L323.497 397.524L328.381 396.544L334.085 396.62L332.58 383.192L325.896 377.572L320.627 377.774Z" fill="#FC9D9D"/>
<path d="M308.168 420.106L303.027 432.938C302.654 433.869 302.221 434.774 301.731 435.648L289.621 455.826L285.114 453.826L294.627 431.518L299.375 416.974L308.168 420.106Z" fill="#FC9D9D"/>
<path d="M286.421 471.023L275.911 458.434L278.241 456.473C279.221 455.659 280.482 455.266 281.751 455.38C283.019 455.494 284.19 456.107 285.008 457.082L289.361 462.297C290.175 463.276 290.568 464.538 290.454 465.806C290.34 467.074 289.727 468.244 288.751 469.062L286.421 471.023ZM278.956 458.711L286.726 468.008L287.439 467.43C287.98 466.978 288.32 466.329 288.384 465.626C288.448 464.924 288.23 464.224 287.778 463.681L283.419 458.466C282.965 457.926 282.316 457.588 281.613 457.525C280.91 457.462 280.211 457.681 279.668 458.133L278.956 458.711Z" fill="#384955"/>
<g opacity="0.4">
<path opacity="0.4" d="M286.421 471.023L275.911 458.434L278.241 456.473C279.221 455.659 280.482 455.266 281.751 455.38C283.019 455.494 284.19 456.107 285.008 457.082L289.361 462.297C290.175 463.276 290.568 464.538 290.454 465.806C290.34 467.074 289.727 468.244 288.751 469.062L286.421 471.023ZM278.956 458.711L286.726 468.008L287.439 467.43C287.98 466.978 288.32 466.329 288.384 465.626C288.448 464.924 288.23 464.224 287.778 463.681L283.419 458.466C282.965 457.926 282.316 457.588 281.613 457.525C280.91 457.462 280.211 457.681 279.668 458.133L278.956 458.711Z" fill="black"/>
</g>
<path opacity="0.15" d="M327.476 384.534L327.362 384.89C326.895 385.06 326.419 385.203 325.936 385.319L327.905 387.456L327.476 384.534Z" fill="black"/>
<path opacity="0.15" d="M323.744 392.405L325.883 392.218C326.031 392.206 326.18 392.23 326.316 392.288C326.452 392.346 326.572 392.438 326.665 392.552C326.758 392.668 326.821 392.805 326.849 392.95C326.877 393.095 326.869 393.246 326.825 393.387L326.177 395.526L323.561 395.691L323.744 392.405Z" fill="black"/>
<path d="M327.478 384.535L327.9 387.464L333.213 388.829C334.215 388.332 335.067 387.577 335.679 386.64C336.292 385.704 336.643 384.621 336.696 383.503L326.363 379.467L325.865 381.863L327.478 384.535Z" fill="#3F4249"/>
<path d="M254.46 440.228L267.092 447.213C268.442 447.961 269.638 448.959 270.616 450.155L276.894 457.835L273.808 459.334L268.443 452.808C267.497 451.656 266.346 450.689 265.047 449.958L253.457 443.393C253.118 443.302 252.816 443.107 252.594 442.834C252.373 442.562 252.243 442.226 252.223 441.876L252.223 441.833C252.223 441.564 252.288 441.299 252.411 441.06C252.533 440.82 252.712 440.614 252.93 440.457C253.149 440.3 253.401 440.198 253.668 440.158C253.934 440.118 254.206 440.142 254.46 440.228Z" fill="#B2B6BB"/>
<path d="M273.398 453.625L270.44 455.152C270.221 455.265 270.033 455.431 269.893 455.636C269.753 455.84 269.668 456.076 269.642 456.322L268.699 465.952C268.601 466.918 268.872 467.885 269.457 468.66L277.12 478.905C277.328 479.187 277.63 479.385 277.971 479.464C278.312 479.543 278.67 479.499 278.981 479.339L288.034 474.658C288.245 474.55 288.426 474.392 288.562 474.198C288.699 474.005 288.787 473.781 288.817 473.546L289.037 471.985C289.086 471.605 289.057 471.219 288.95 470.851C288.843 470.483 288.661 470.142 288.416 469.847L275.21 454.016C274.999 453.753 274.704 453.57 274.374 453.499C274.044 453.428 273.7 453.473 273.398 453.625Z" fill="#384955"/>
<path opacity="0.2" d="M273.398 453.625L270.44 455.152C270.221 455.265 270.033 455.431 269.893 455.636C269.753 455.84 269.668 456.076 269.642 456.322L268.699 465.952C268.601 466.918 268.872 467.885 269.457 468.66L277.12 478.905C277.328 479.187 277.63 479.385 277.971 479.464C278.312 479.543 278.67 479.499 278.981 479.339L288.034 474.658C288.245 474.55 288.426 474.392 288.562 474.198C288.699 474.005 288.787 473.781 288.817 473.546L289.037 471.985C289.086 471.605 289.057 471.219 288.95 470.851C288.843 470.483 288.661 470.142 288.416 469.847L275.21 454.016C274.999 453.753 274.704 453.57 274.374 453.499C274.044 453.428 273.7 453.473 273.398 453.625Z" fill="black"/>
<path d="M286.686 473.048L283.763 474.561C283.681 474.6 283.609 474.656 283.55 474.725L280.236 478.333C280.158 478.417 280.099 478.519 280.065 478.63C280.031 478.74 280.022 478.857 280.039 478.971C280.056 479.085 280.099 479.194 280.164 479.29C280.229 479.385 280.315 479.465 280.415 479.524L285.336 482.372C285.494 482.457 285.671 482.503 285.85 482.503C286.029 482.503 286.206 482.457 286.363 482.371L288.979 481.016C289.197 480.903 289.37 480.719 289.469 480.494C289.567 480.27 289.585 480.018 289.52 479.782L287.784 473.511C287.752 473.401 287.696 473.301 287.62 473.215C287.544 473.13 287.45 473.063 287.345 473.019C287.24 472.975 287.126 472.954 287.012 472.959C286.898 472.965 286.787 472.995 286.686 473.048Z" fill="#B2B6BB"/>
<path d="M325.43 383.744C325.202 384.75 324.931 385.491 326.243 385.412C328.739 385.254 329.022 381.939 327.589 381.277C327.437 381.191 327.268 381.14 327.094 381.126C326.92 381.112 326.746 381.137 326.582 381.199C326.419 381.259 326.272 381.355 326.15 381.48C326.028 381.605 325.935 381.755 325.878 381.92L325.43 383.744Z" fill="#FC9D9D"/>
<path opacity="0.15" d="M326.128 383.281C326.145 382.96 326.237 382.647 326.398 382.368C326.531 382.161 326.733 382.007 326.969 381.933C327.093 381.91 327.221 381.914 327.344 381.944C327.467 381.976 327.582 382.032 327.682 382.111C327.713 382.147 327.734 382.19 327.741 382.237C327.749 382.283 327.743 382.331 327.725 382.375C327.675 382.46 327.589 382.46 327.504 382.418C327.441 382.358 327.364 382.315 327.281 382.292C327.198 382.268 327.11 382.265 327.026 382.282C326.89 382.282 326.805 382.411 326.669 382.582C326.539 382.799 326.464 383.043 326.449 383.295L326.406 383.601C326.406 383.687 326.314 383.73 326.228 383.73C326.142 383.73 326.1 383.644 326.1 383.559L326.142 383.252" fill="black"/>
<path d="M320.083 374.481C319.978 373.579 320.233 372.672 320.794 371.958C321.354 371.243 322.175 370.779 323.076 370.666C323.315 370.651 323.554 370.668 323.789 370.715C324.133 370.174 324.603 369.725 325.161 369.407C325.717 369.089 326.344 368.913 326.985 368.892C327.626 368.871 328.262 369.007 328.838 369.288C329.414 369.569 329.914 369.987 330.291 370.505C330.974 369.741 331.933 369.279 332.957 369.22C333.445 369.175 333.938 369.227 334.407 369.372C334.875 369.517 335.31 369.754 335.688 370.067C336.064 370.38 336.376 370.765 336.604 371.2C336.832 371.634 336.972 372.108 337.016 372.597C337.05 373.164 336.947 373.731 336.717 374.25C338.208 374.492 339.349 375.446 339.428 376.651C339.416 377.212 339.233 377.756 338.903 378.209C338.574 378.663 338.112 379.005 337.583 379.189C337.883 379.347 338.138 379.578 338.324 379.861C338.509 380.144 338.621 380.47 338.646 380.807C338.666 381.269 338.528 381.726 338.257 382.101C337.985 382.476 337.595 382.748 337.15 382.875C337.15 382.875 337.15 382.918 337.15 382.939C337.175 383.276 337.073 383.61 336.862 383.874C336.653 384.139 336.351 384.315 336.018 384.368C335.685 384.422 335.343 384.347 335.062 384.161C334.781 383.974 334.579 383.689 334.498 383.361C334.305 383.449 334.097 383.502 333.885 383.518C333.359 383.502 332.852 383.318 332.438 382.994C332.023 382.67 331.724 382.223 331.581 381.716C331.456 381.737 331.33 381.752 331.203 381.759C329.577 381.867 328.187 381.155 327.879 380.136C327.703 380.174 327.524 380.2 327.345 380.214C325.626 380.322 324.157 379.311 324.035 377.943C323.586 378.359 323.007 378.611 322.396 378.656C321.711 378.716 321.029 378.502 320.502 378.059C319.975 377.617 319.645 376.984 319.585 376.299C319.55 375.713 319.724 375.134 320.076 374.666C320.074 374.605 320.077 374.543 320.083 374.481Z" fill="black"/>
<path d="M335.918 397.445L345.317 399.685C346.014 399.996 346.639 400.452 347.15 401.019C347.661 401.588 348.047 402.256 348.285 402.983L353.797 417.535L344.096 422.53L338.935 411.627L333.116 409.856L335.918 397.445Z" fill="#384955"/>
<path d="M345.082 399.792L335.362 397.282L334.599 395.693C334.52 395.529 334.397 395.392 334.242 395.297C334.088 395.202 333.909 395.154 333.728 395.158L323.64 395.278C323.476 395.282 323.317 395.327 323.177 395.412C323.037 395.495 322.922 395.614 322.841 395.756L322.129 397.082L311.948 398.414L311.884 398.414C310.169 398.669 308.551 399.369 307.191 400.444C305.83 401.519 304.775 402.932 304.13 404.541L298.897 417.26L308.167 420.818L308.78 419.065L308.798 452.358L342.651 452.339L344.773 422.266C344.773 422.266 347.706 400.283 345.082 399.792Z" fill="#384955"/>
<path opacity="0.15" d="M307.907 415.429C308.008 414.985 308.209 414.57 308.495 414.216C308.782 413.862 309.146 413.58 309.561 413.39C311.499 412.548 312.52 414.714 312.556 415.705L312.708 419.382L313.846 452.355L308.798 452.358L308.78 419.57L308.879 419.392L308.167 420.818L306.028 420.106L307.907 415.429Z" fill="black"/>
<path opacity="0.15" d="M345.082 399.792C345.988 400.012 345.553 399.542 346.38 400.19C347.374 405.115 346.904 419.121 346.542 422.913L348.813 428.942C348.892 429.029 348.937 429.142 348.937 429.259C348.937 429.377 348.893 429.49 348.813 429.576L347.388 430.062L344.618 423.912C344.618 423.912 347.706 400.282 345.082 399.792Z" fill="black"/>
<path d="M321.101 381.744C321.052 381.578 321.07 381.398 321.151 381.245C321.232 381.092 321.371 380.977 321.536 380.924C321.835 380.831 322.156 381.095 322.249 381.458C322.299 381.626 322.279 381.805 322.197 381.959C322.114 382.112 321.974 382.227 321.808 382.278C321.726 382.29 321.643 382.286 321.563 382.265C321.483 382.245 321.408 382.209 321.343 382.159C321.276 382.11 321.221 382.047 321.18 381.976C321.139 381.904 321.112 381.826 321.101 381.744Z" fill="black"/>
<path d="M321.2 381.515C321.202 381.482 321.216 381.45 321.239 381.427C321.263 381.403 321.295 381.389 321.328 381.387C321.363 381.389 321.395 381.402 321.42 381.426C321.445 381.449 321.46 381.481 321.464 381.515C321.468 381.535 321.468 381.556 321.464 381.576C321.46 381.596 321.45 381.614 321.438 381.63C321.426 381.646 321.409 381.659 321.391 381.668C321.373 381.677 321.352 381.682 321.332 381.682C321.312 381.682 321.292 381.677 321.273 381.668C321.254 381.659 321.239 381.646 321.226 381.631C321.213 381.614 321.205 381.596 321.2 381.576C321.195 381.556 321.195 381.535 321.2 381.515Z" fill="white"/>
<path d="M320.521 379.877C320.579 379.998 321.099 379.877 321.719 379.94C322.34 380.004 322.839 380.097 322.917 379.982C322.996 379.868 322.86 379.811 322.653 379.697C322.372 379.562 322.067 379.485 321.755 379.47C321.439 379.454 321.123 379.506 320.828 379.62C320.607 379.713 320.5 379.813 320.521 379.877Z" fill="black"/>
<path d="M321.547 386.882C321.178 386.905 320.806 386.884 320.442 386.819L320.442 387.667C320.875 387.615 321.279 387.422 321.59 387.117C321.654 387.025 321.654 386.875 321.547 386.882Z" fill="white"/>
<path d="M281.64 461.461C281.566 461.448 281.494 461.426 281.426 461.397C281.305 461.334 281.205 461.239 281.136 461.121C281.068 461.005 281.035 460.87 281.041 460.734L281.267 458.218C281.414 457.498 281.759 456.834 282.264 456.3L285.293 453.291L287.978 448.699L291.787 450.764L289.722 455.505C289.689 455.722 289.67 455.941 289.665 456.161C289.534 457.586 289.028 458.951 288.199 460.117L287.408 461.736L286.888 463.062C286.832 463.25 286.705 463.409 286.533 463.505C286.361 463.601 286.159 463.626 285.969 463.576L285.833 463.519C285.691 463.447 285.575 463.331 285.501 463.189C285.428 463.047 285.402 462.885 285.427 462.728L285.618 461.495L285.49 462.207C285.451 462.404 285.336 462.577 285.171 462.692C285.005 462.806 284.802 462.851 284.605 462.819C284.406 462.788 284.228 462.68 284.107 462.519C283.987 462.359 283.933 462.158 283.957 461.959L284.064 461.381C284.046 461.493 284.006 461.6 283.946 461.696C283.887 461.793 283.808 461.877 283.716 461.943C283.624 462.01 283.52 462.057 283.41 462.083C283.299 462.109 283.185 462.112 283.073 462.095C282.988 462.083 282.906 462.056 282.831 462.016C282.67 461.937 282.539 461.81 282.453 461.653C282.368 461.496 282.333 461.317 282.353 461.14L282.353 460.826C282.348 460.915 282.326 461.002 282.288 461.082C282.249 461.162 282.195 461.233 282.129 461.293C282.063 461.352 281.985 461.397 281.902 461.426C281.817 461.455 281.728 461.467 281.64 461.461Z" fill="#FC9D9D"/>
<path opacity="0.1" d="M281.476 461.461C281.542 461.495 281.615 461.517 281.69 461.525C281.86 461.542 282.029 461.491 282.162 461.385C282.294 461.278 282.381 461.124 282.403 460.955L282.403 461.261C282.383 461.44 282.419 461.62 282.504 461.778C282.589 461.935 282.721 462.064 282.881 462.145C282.958 462.182 283.039 462.208 283.123 462.223C283.349 462.259 283.579 462.203 283.765 462.069C283.95 461.936 284.076 461.735 284.114 461.51L284.015 462.08C283.99 462.28 284.044 462.48 284.165 462.641C284.285 462.801 284.463 462.909 284.661 462.941C284.859 462.973 285.062 462.928 285.228 462.813C285.393 462.699 285.507 462.525 285.548 462.329L285.669 461.616L285.477 462.856C285.453 463.014 285.48 463.175 285.553 463.317C285.625 463.459 285.741 463.574 285.884 463.647L286.019 463.697C286.112 463.728 286.212 463.739 286.311 463.73C286.41 463.721 286.505 463.692 286.592 463.643C286.678 463.595 286.754 463.529 286.813 463.45C286.873 463.371 286.916 463.28 286.939 463.183L287.422 461.529L287.501 461.365L287.116 461.365C286.996 461.38 286.875 461.366 286.761 461.327C286.648 461.287 286.545 461.222 286.46 461.138L286.303 460.974C286.156 460.838 285.967 460.755 285.768 460.739L285.34 460.739C285.178 460.73 285.023 460.671 284.898 460.568L284.691 460.412C284.565 460.305 284.406 460.242 284.242 460.234L283.871 460.234C283.694 460.207 283.528 460.131 283.393 460.013L283.022 459.678C282.88 459.545 282.696 459.465 282.502 459.451C282.367 459.444 282.236 459.403 282.121 459.333C282.006 459.261 281.911 459.162 281.845 459.045L281.296 458.482L281.098 460.749C281.081 460.892 281.109 461.037 281.176 461.164C281.243 461.291 281.348 461.395 281.476 461.461Z" fill="black"/>
<g opacity="0.15">
<path opacity="0.15" d="M285.446 461.38C285.448 461.363 285.453 461.346 285.461 461.33C285.47 461.314 285.482 461.301 285.496 461.29C285.51 461.279 285.526 461.272 285.543 461.268C285.56 461.264 285.578 461.263 285.596 461.266C285.63 461.273 285.661 461.293 285.681 461.323C285.701 461.352 285.709 461.388 285.703 461.423L285.582 462.392L285.297 462.392L285.446 461.38Z" fill="black"/>
</g>
<g opacity="0.15">
<path opacity="0.15" d="M283.95 461.538L284.042 460.668L283.942 461.538L283.95 461.538Z" fill="white"/>
<path opacity="0.15" d="M284.106 460.568L284.049 460.568C284.013 460.568 283.977 460.58 283.947 460.602C283.918 460.624 283.896 460.654 283.885 460.689L283.764 461.659L284.05 461.659L284.17 460.689C284.178 460.66 284.175 460.629 284.162 460.602C284.149 460.574 284.127 460.552 284.099 460.54L284.106 460.568Z" fill="black"/>
</g>
<g opacity="0.15">
<path opacity="0.15" d="M282.452 461.097L282.566 460.206L282.466 461.076L282.452 461.097Z" fill="white"/>
<path opacity="0.15" d="M282.666 460.071C282.666 460.071 282.666 460.071 282.609 460.071C282.572 460.069 282.536 460.081 282.506 460.103C282.476 460.125 282.454 460.156 282.445 460.192L282.324 461.161L282.61 461.161L282.73 460.192C282.737 460.161 282.734 460.13 282.721 460.101C282.708 460.073 282.686 460.05 282.659 460.035L282.666 460.071Z" fill="black"/>
</g>
<path opacity="0.15" d="M306.028 420.107L300.332 433.653L288.936 455.263C288.872 456.848 288.43 458.395 287.648 459.776L286.85 461.323L287.513 461.323L288.225 460.118C289.06 458.803 289.574 457.311 289.727 455.762L301.759 435.676C302.25 434.802 302.683 433.897 303.055 432.967L307.946 420.733L306.028 420.107Z" fill="black"/>
</svg>
