<svg width="135" height="42" viewBox="0 0 135 42" fill="none" xmlns="http://www.w3.org/2000/svg">
<path d="M49.8429 36L49.8429 16.75L42.5629 16.75L42.5629 11.5L63.2479 11.5L63.2479 16.75L55.7929 16.75L55.7929 36L49.8429 36ZM72.2311 36.35C70.1778 36.35 68.3928 35.9417 66.8761 35.125C65.3594 34.285 64.1811 33.1533 63.3411 31.73C62.5011 30.2833 62.0811 28.6383 62.0811 26.795C62.0811 25.3717 62.3144 24.065 62.7811 22.875C63.2478 21.685 63.9011 20.6583 64.7411 19.795C65.5811 18.9083 66.5728 18.2317 67.7161 17.765C68.8828 17.275 70.1544 17.03 71.5311 17.03C72.8378 17.03 74.0278 17.2633 75.1011 17.73C76.1978 18.1967 77.1428 18.85 77.9361 19.69C78.7294 20.53 79.3361 21.5217 79.7561 22.665C80.1761 23.8083 80.3628 25.0567 80.3161 26.41L80.2811 27.915L65.4761 27.915L64.6711 24.765L75.7311 24.765L75.1361 25.43L75.1361 24.73C75.0894 24.1467 74.9028 23.6333 74.5761 23.19C74.2728 22.7233 73.8644 22.3617 73.3511 22.105C72.8378 21.8483 72.2544 21.72 71.6011 21.72C70.6911 21.72 69.9094 21.9067 69.2561 22.28C68.6261 22.63 68.1478 23.155 67.8211 23.855C67.4944 24.5317 67.3311 25.3717 67.3311 26.375C67.3311 27.4017 67.5411 28.3 67.9611 29.07C68.4044 29.8167 69.0344 30.4 69.8511 30.82C70.6911 31.24 71.6828 31.45 72.8261 31.45C73.6194 31.45 74.3194 31.3333 74.9261 31.1C75.5561 30.8667 76.2328 30.47 76.9561 29.91L79.5811 33.62C78.8578 34.25 78.0878 34.7633 77.2711 35.16C76.4544 35.5567 75.6144 35.8483 74.7511 36.035C73.9111 36.245 73.0711 36.35 72.2311 36.35ZM85.4239 36L85.4239 12.725L91.0239 12.725L91.0239 36L85.4239 36ZM82.1339 22.315L82.1339 17.415L94.6289 17.415L94.6289 22.315L82.1339 22.315ZM97.8292 36L97.8292 17.415L103.149 17.415L103.394 23.47L102.344 22.315C102.624 21.3117 103.079 20.4133 103.709 19.62C104.363 18.8267 105.121 18.1967 105.984 17.73C106.848 17.2633 107.769 17.03 108.749 17.03C109.169 17.03 109.554 17.065 109.904 17.135C110.278 17.205 110.616 17.2867 110.919 17.38L109.379 23.575C109.123 23.4117 108.773 23.2833 108.329 23.19C107.909 23.0733 107.466 23.015 106.999 23.015C106.486 23.015 106.008 23.1083 105.564 23.295C105.121 23.4583 104.748 23.7033 104.444 24.03C104.141 24.3567 103.896 24.7417 103.709 25.185C103.546 25.6283 103.464 26.13 103.464 26.69L103.464 36L97.8292 36ZM119.831 36.315C118.268 36.315 116.868 35.9067 115.631 35.09C114.418 34.25 113.449 33.1067 112.726 31.66C112.003 30.19 111.641 28.5333 111.641 26.69C111.641 24.8 112.003 23.1317 112.726 21.685C113.449 20.2383 114.441 19.1067 115.701 18.29C116.961 17.45 118.396 17.03 120.006 17.03C120.893 17.03 121.698 17.1583 122.421 17.415C123.168 17.6717 123.821 18.0333 124.381 18.5C124.941 18.9433 125.419 19.4683 125.816 20.075C126.213 20.6583 126.504 21.2883 126.691 21.965L125.536 21.825L125.536 17.415L131.101 17.415L131.101 36L125.431 36L125.431 31.52L126.691 31.485C126.504 32.1383 126.201 32.7567 125.781 33.34C125.361 33.9233 124.848 34.4367 124.241 34.88C123.634 35.3233 122.958 35.6733 122.211 35.93C121.464 36.1867 120.671 36.315 119.831 36.315ZM121.371 31.59C122.234 31.59 122.981 31.3917 123.611 30.995C124.241 30.5983 124.731 30.0383 125.081 29.315C125.431 28.5683 125.606 27.6933 125.606 26.69C125.606 25.6867 125.431 24.8233 125.081 24.1C124.731 23.3533 124.241 22.7817 123.611 22.385C122.981 21.965 122.234 21.755 121.371 21.755C120.531 21.755 119.796 21.965 119.166 22.385C118.559 22.7817 118.081 23.3533 117.731 24.1C117.381 24.8233 117.206 25.6867 117.206 26.69C117.206 27.6933 117.381 28.5683 117.731 29.315C118.081 30.0383 118.559 30.5983 119.166 30.995C119.796 31.3917 120.531 31.59 121.371 31.59Z" fill="#384955"/>
<g clip-path="url(#clip0_20_629)">
<path d="M54 -9.56181e-10L45.7245 10.5819L36.1129 10.5819L36.1129 37.5624L29.7394 32.4012L29.7394 3.64109L25.155 3.64109L25.155 0L54 -9.56181e-10Z" fill="#384955"/>
<path d="M28.8449 4.4375L28.8449 33.1259L17.8871 41.9999L17.8871 15.0194L8.27544 15.0194L0 4.4375L28.8449 4.4375Z" fill="#384955"/>
</g>
<defs>
<clipPath id="clip0_20_629">
<rect width="54" height="42" fill="white"/>
</clipPath>
</defs>
</svg>
