<svg width="193" height="44" viewBox="0 0 193 44" fill="none" xmlns="http://www.w3.org/2000/svg">
<path d="M61.5357 35V14.14H54.6757V10.5H72.3857V14.14H65.3157V35H61.5357ZM81.2254 35.35C79.3354 35.35 77.6554 34.9533 76.1854 34.16C74.7387 33.3433 73.5954 32.235 72.7554 30.835C71.9387 29.435 71.5304 27.825 71.5304 26.005C71.5304 24.5583 71.7637 23.24 72.2304 22.05C72.697 20.86 73.3387 19.8333 74.1554 18.97C74.9954 18.0833 75.987 17.4067 77.1304 16.94C78.297 16.45 79.557 16.205 80.9104 16.205C82.1004 16.205 83.2087 16.4383 84.2354 16.905C85.262 17.3483 86.1487 17.9667 86.8954 18.76C87.6654 19.5533 88.2487 20.4983 88.6454 21.595C89.0654 22.6683 89.2637 23.8467 89.2404 25.13L89.2054 26.67H74.1904L73.3854 23.8H86.0904L85.5654 24.395V23.555C85.4954 22.785 85.2387 22.0967 84.7954 21.49C84.352 20.8833 83.792 20.405 83.1154 20.055C82.4387 19.705 81.7037 19.53 80.9104 19.53C79.6504 19.53 78.5887 19.775 77.7254 20.265C76.862 20.7317 76.2087 21.4317 75.7654 22.365C75.322 23.275 75.1004 24.4067 75.1004 25.76C75.1004 27.0433 75.3687 28.1633 75.9054 29.12C76.442 30.0533 77.2004 30.7767 78.1804 31.29C79.1604 31.8033 80.292 32.06 81.5754 32.06C82.4854 32.06 83.3254 31.9083 84.0954 31.605C84.8887 31.3017 85.7404 30.7533 86.6504 29.96L88.4704 32.515C87.9104 33.075 87.222 33.565 86.4054 33.985C85.612 34.405 84.7604 34.7433 83.8504 35C82.9637 35.2333 82.0887 35.35 81.2254 35.35ZM95.4332 35V11.935H99.0382V35H95.4332ZM91.6182 20.125V16.625H103.308V20.125H91.6182ZM106.591 35V16.625H110.231V22.4L109.881 21C110.137 20.1133 110.569 19.3083 111.176 18.585C111.806 17.8617 112.517 17.29 113.311 16.87C114.127 16.45 114.967 16.24 115.831 16.24C116.227 16.24 116.601 16.275 116.951 16.345C117.324 16.415 117.616 16.4967 117.826 16.59L116.881 20.51C116.601 20.3933 116.286 20.3 115.936 20.23C115.609 20.1367 115.282 20.09 114.956 20.09C114.326 20.09 113.719 20.2183 113.136 20.475C112.576 20.7083 112.074 21.0467 111.631 21.49C111.211 21.91 110.872 22.4117 110.616 22.995C110.359 23.555 110.231 24.1733 110.231 24.85V35H106.591ZM126.991 35.35C125.474 35.35 124.086 34.93 122.826 34.09C121.589 33.25 120.598 32.1067 119.851 30.66C119.104 29.2133 118.731 27.58 118.731 25.76C118.731 23.9167 119.104 22.2833 119.851 20.86C120.621 19.4133 121.648 18.2817 122.931 17.465C124.238 16.6483 125.696 16.24 127.306 16.24C128.263 16.24 129.138 16.38 129.931 16.66C130.724 16.94 131.413 17.3367 131.996 17.85C132.603 18.34 133.093 18.9117 133.466 19.565C133.863 20.2183 134.108 20.9183 134.201 21.665L133.396 21.385V16.625H137.036V35H133.396V30.625L134.236 30.38C134.096 31.01 133.804 31.6283 133.361 32.235C132.941 32.8183 132.393 33.3433 131.716 33.81C131.063 34.2767 130.328 34.65 129.511 34.93C128.718 35.21 127.878 35.35 126.991 35.35ZM127.936 32.025C129.033 32.025 130.001 31.7567 130.841 31.22C131.681 30.6833 132.334 29.9483 132.801 29.015C133.291 28.0583 133.536 26.9733 133.536 25.76C133.536 24.57 133.291 23.5083 132.801 22.575C132.334 21.6417 131.681 20.9067 130.841 20.37C130.001 19.8333 129.033 19.565 127.936 19.565C126.863 19.565 125.906 19.8333 125.066 20.37C124.249 20.9067 123.596 21.6417 123.106 22.575C122.639 23.5083 122.406 24.57 122.406 25.76C122.406 26.9733 122.639 28.0583 123.106 29.015C123.596 29.9483 124.249 30.6833 125.066 31.22C125.906 31.7567 126.863 32.025 127.936 32.025Z" fill="white"/>
<g clip-path="url(#clip0_147_282)">
<path d="M57.0002 0L48.7248 10.5819H39.1132V37.5624L32.7397 32.4012V3.64109H28.1553V0H57.0002Z" fill="url(#paint0_linear_147_282)"/>
<path d="M31.8449 4.43762V33.126L20.8871 42V15.0195H11.2754L3 4.43762H31.8449Z" fill="url(#paint1_linear_147_282)"/>
</g>
<defs>
<linearGradient id="paint0_linear_147_282" x1="42.5777" y1="0" x2="42.5777" y2="37.5624" gradientUnits="userSpaceOnUse">
<stop stop-color="#FBFBFB"/>
<stop offset="1" stop-color="white" stop-opacity="0"/>
</linearGradient>
<linearGradient id="paint1_linear_147_282" x1="17.4225" y1="4.43762" x2="17.4225" y2="42" gradientUnits="userSpaceOnUse">
<stop stop-color="#FBFBFB"/>
<stop offset="1" stop-color="white" stop-opacity="0"/>
</linearGradient>
<clipPath id="clip0_147_282">
<rect width="54" height="42" fill="white" transform="translate(3)"/>
</clipPath>
</defs>
</svg>
