<svg width="1024" height="818" viewBox="0 0 1024 818" fill="none" xmlns="http://www.w3.org/2000/svg">
<path d="M703.118 237.765V435.721L929.906 432.313L876.224 237.765H703.118Z" fill="#EAEAEA"/>
<path d="M627.908 495.844H394.58C390.288 495.844 386.814 492.368 386.814 488.073V352.285H627.908C632.2 352.285 635.674 355.762 635.674 360.056V488.073C635.674 492.368 632.2 495.844 627.908 495.844Z" fill="#B2B6BB"/>
<path d="M393.626 495.844H358.065C353.773 495.844 350.299 492.368 350.299 488.073V359.988C350.299 355.694 353.773 352.217 358.065 352.217H393.626C397.918 352.217 401.393 355.694 401.393 359.988V488.073C401.393 492.368 397.918 495.844 393.626 495.844Z" fill="#868A91"/>
<path d="M630.974 686.302H745.696V469.191C745.696 464.897 742.222 461.42 737.93 461.42H638.74C634.448 461.42 630.974 464.897 630.974 469.191V686.302Z" fill="#868A91"/>
<path d="M720.081 686.302H771.175V469.191C771.175 464.897 767.701 461.42 763.409 461.42H727.848C723.556 461.42 720.081 464.897 720.081 469.191V686.302Z" fill="#B2B6BB"/>
<path d="M720.51 587.411V536.286H462.388V587.411H720.51Z" fill="#B2B6BB"/>
<path opacity="0.2" d="M474.605 587.387V536.262H467.384V587.387H474.605Z" fill="black"/>
<path d="M750.329 652.9L752.781 656.718C755.983 661.762 760.888 665.579 766.543 667.42L797.539 678.395C800.333 679.281 799.992 683.371 797.063 683.371H793.179C792.703 684.053 791.885 684.462 790.999 684.462C790.182 684.462 789.228 684.053 788.615 683.507C788.547 683.439 788.479 683.439 788.411 683.371H787.866C787.798 683.439 787.661 683.439 787.593 683.575C787.116 684.121 786.367 684.53 785.549 684.53C784.8 684.53 783.914 684.189 783.301 683.712C783.029 683.439 782.552 683.507 782.348 683.78C781.939 684.257 781.394 684.53 780.713 684.53C780.099 684.53 779.35 684.257 778.805 683.848C778.533 683.644 778.124 683.712 777.919 683.916C777.511 684.257 777.034 684.53 776.421 684.53C775.603 684.53 774.922 684.053 774.581 683.439H774.309L735.954 682.826C732.276 682.757 729.551 681.599 727.984 678.736L720.081 664.557L750.329 652.9Z" fill="#FC9D9D"/>
<path opacity="0.15" d="M720.081 664.489L750.193 652.832L732.412 664.693C731.322 665.443 730.981 666.874 731.594 667.965L735.818 675.736C737.249 678.258 739.565 679.485 742.699 679.758C743.38 679.826 744.061 679.758 744.674 679.622C748.898 678.667 753.258 678.258 757.618 678.463C764.226 673.896 768.382 668.033 768.382 668.033L774.036 669.465L780.713 681.939L774.173 682.007L778.533 683.575C778.328 683.507 778.056 683.575 777.851 683.78C777.443 684.121 776.966 684.393 776.353 684.393C775.535 684.393 774.854 683.916 774.513 683.303H774.241L735.886 682.689C732.208 682.621 729.483 681.462 727.916 678.599L720.081 664.489Z" fill="black"/>
<path d="M581.924 485.278L568.299 391.345C566.868 381.665 559.715 373.826 550.246 371.576L513.799 362.919L477.079 363.26L443.153 371.372C431.095 374.235 423.261 385.891 425.1 398.161L429.051 424.201L435.727 438.652C436.068 439.47 436.272 440.288 436.477 441.106L442.676 474.985C443.766 480.984 449.012 485.278 455.075 485.278H581.924Z" fill="#384955"/>
<path d="M560.805 390.731C560.328 390.731 559.851 390.391 559.783 389.845L559.306 386.573C559.238 386.028 559.579 385.483 560.192 385.414C560.737 385.346 561.282 385.687 561.35 386.301L561.827 389.573C561.895 390.118 561.554 390.663 560.941 390.731C560.941 390.731 560.873 390.731 560.805 390.731Z" fill="white"/>
<path d="M521.361 428.087C520.816 428.087 520.407 427.678 520.339 427.132L519.998 423.792C519.93 423.247 520.339 422.701 520.952 422.701C521.497 422.633 522.042 423.042 522.042 423.656L522.382 426.996C522.451 427.541 522.042 428.087 521.429 428.087H521.361Z" fill="white"/>
<path d="M466.384 389.777C465.839 389.777 465.43 389.368 465.362 388.823L465.021 385.482C464.953 384.937 465.362 384.392 465.975 384.392C466.52 384.324 467.065 384.733 467.065 385.346L467.406 388.686C467.474 389.232 467.065 389.777 466.452 389.777C466.452 389.709 466.384 389.777 466.384 389.777Z" fill="white"/>
<path d="M436.341 382.96C435.932 382.688 435.796 382.074 436 381.597L437.635 378.666C437.908 378.189 438.521 377.984 438.998 378.257C439.474 378.53 439.679 379.143 439.406 379.62L437.771 382.551C437.499 383.029 436.886 383.233 436.409 382.96C436.341 383.029 436.341 383.029 436.341 382.96Z" fill="white"/>
<path d="M489.478 435.585C489.274 435.585 489.001 435.517 488.865 435.381C488.456 435.04 488.388 434.358 488.729 433.949L490.841 431.359C491.181 430.95 491.863 430.882 492.271 431.222C492.68 431.563 492.748 432.245 492.408 432.654L490.296 435.244C490.023 435.449 489.751 435.585 489.478 435.585Z" fill="white"/>
<path d="M536.893 376.212C536.689 376.212 536.416 376.144 536.212 375.939C535.803 375.598 535.735 374.917 536.076 374.508L538.051 372.122C538.392 371.713 539.073 371.645 539.482 371.986C539.891 372.326 539.959 373.008 539.618 373.417L537.643 375.803C537.438 376.076 537.166 376.212 536.893 376.212Z" fill="white"/>
<path d="M489.887 405.046C489.546 405.046 489.206 404.842 489.001 404.569L487.366 401.911C487.094 401.433 487.23 400.82 487.707 400.479C488.184 400.207 488.797 400.343 489.137 400.82L490.772 403.479C491.045 403.956 490.909 404.569 490.432 404.91C490.227 404.978 490.023 405.046 489.887 405.046Z" fill="white"/>
<path d="M452.827 410.363C452.759 410.363 452.691 410.363 452.623 410.363L449.625 409.613C449.08 409.477 448.739 408.932 448.876 408.386C449.012 407.841 449.557 407.5 450.102 407.637L453.099 408.386C453.644 408.523 453.985 409.068 453.849 409.613C453.712 410.091 453.236 410.363 452.827 410.363Z" fill="white"/>
<path d="M543.297 446.219C543.092 446.219 542.82 446.151 542.616 445.946C542.207 445.605 542.139 444.924 542.479 444.515L544.455 442.129C544.796 441.72 545.477 441.652 545.886 441.993C546.294 442.333 546.362 443.015 546.022 443.424L544.046 445.81C543.91 446.151 543.569 446.219 543.297 446.219Z" fill="white"/>
<path d="M536.893 406.546C536.825 406.546 536.689 406.546 536.621 406.478L533.282 405.455C532.737 405.319 532.465 404.705 532.601 404.16C532.737 403.615 533.351 403.342 533.896 403.478L537.234 404.501C537.779 404.637 538.051 405.251 537.915 405.796C537.779 406.273 537.37 406.546 536.893 406.546Z" fill="white"/>
<path d="M562.644 430.813C562.576 430.745 562.508 430.677 562.44 430.609L560.464 427.678C560.124 427.201 560.26 426.587 560.737 426.246C561.214 425.905 561.827 426.042 562.167 426.519L564.143 429.45C564.484 429.927 564.347 430.541 563.871 430.882C563.462 431.154 562.985 431.086 562.644 430.813Z" fill="white"/>
<path d="M719.673 594.891C719.468 594.891 719.264 594.754 719.264 594.55V503.002C719.264 502.797 719.468 502.661 719.673 502.661C719.877 502.661 720.081 502.797 720.081 503.002V594.55C720.081 594.754 719.877 594.891 719.673 594.891Z" fill="#868A91"/>
<path d="M515.025 388.073C514.957 388.073 514.821 388.073 514.752 388.005L511.414 386.982C510.869 386.846 510.597 386.232 510.733 385.687C510.869 385.142 511.482 384.869 512.027 385.005L515.366 386.028C515.911 386.164 516.183 386.778 516.047 387.323C515.842 387.8 515.434 388.073 515.025 388.073Z" fill="white"/>
<path d="M512.164 455.899C512.096 455.899 511.959 455.899 511.891 455.83L508.553 454.808C508.008 454.672 507.736 454.058 507.872 453.513C508.008 452.967 508.621 452.695 509.166 452.831L512.504 453.854C513.049 453.99 513.322 454.603 513.186 455.149C512.981 455.626 512.572 455.899 512.164 455.899Z" fill="white"/>
<path opacity="0.2" d="M468.496 453.513L463.114 400.547C463.046 399.866 463.999 399.661 464.204 400.343L480.962 455.353L468.496 453.513Z" fill="black"/>
<path opacity="0.2" d="M544.046 474.781L544.114 474.713L544.25 474.849L544.046 474.781Z" fill="black"/>
<path d="M568.571 477.985C567.89 478.803 566.664 479.007 565.778 478.326L553.72 469.464L569.048 476.485C569.116 477.03 568.912 477.576 568.571 477.985Z" fill="#868A91"/>
<path d="M750.261 652.9L720.081 664.557L647.596 536.267H521.088V485.279H666.467C675.459 485.279 683.566 490.732 686.973 499.048L750.261 652.9Z" fill="#3F4249"/>
<path opacity="0.2" d="M734.66 658.899L720.081 664.557L647.596 536.267H521.088V485.279H641.397C650.389 485.279 658.496 490.732 661.902 499.048L734.66 658.899Z" fill="black"/>
<path d="M674.097 652.9L643.849 664.557L571.432 536.267H444.924V485.279H590.303C599.296 485.279 607.402 490.732 610.809 499.048L674.097 652.9Z" fill="#3F4249"/>
<path opacity="0.2" d="M590.984 525.429C585.875 515.476 580.221 512.545 569.048 512.545H482.189L485.118 485.279H467.337V536.267H474.559H571.364L643.849 664.557L657.406 659.308L590.984 525.429Z" fill="black"/>
<path d="M674.097 652.9L676.549 656.718C679.751 661.762 684.656 665.579 690.311 667.42L721.308 678.395C724.101 679.281 723.76 683.371 720.831 683.371H716.948C716.471 684.053 715.653 684.462 714.767 684.462C713.95 684.462 712.996 684.053 712.383 683.507C712.315 683.439 712.247 683.439 712.179 683.371H711.634C711.566 683.439 711.429 683.439 711.361 683.575C710.884 684.121 710.135 684.53 709.317 684.53C708.568 684.53 707.683 684.189 707.069 683.712C706.797 683.439 706.32 683.507 706.116 683.78C705.707 684.257 705.162 684.53 704.481 684.53C703.867 684.53 703.118 684.257 702.573 683.848C702.301 683.644 701.892 683.712 701.688 683.916C701.279 684.257 700.802 684.53 700.189 684.53C699.371 684.53 698.69 684.053 698.349 683.439H698.077L659.723 682.826C656.044 682.757 653.319 681.599 651.752 678.736L643.849 664.557L674.097 652.9Z" fill="#FC9D9D"/>
<path opacity="0.15" d="M653.727 660.74L674.097 652.9L657.542 667.624L660.812 673.487C662.379 676.35 665.104 677.509 668.783 677.577L707.137 678.19H707.41C707.751 678.872 708.5 679.281 709.249 679.281C709.794 679.281 710.339 679.076 710.748 678.667C711.021 678.463 711.361 678.395 711.634 678.599C712.179 679.008 712.928 679.281 713.541 679.281C714.222 679.281 714.768 679.008 715.176 678.531C715.449 678.258 715.857 678.258 716.13 678.463C716.743 679.008 717.629 679.281 718.378 679.281C719.196 679.281 719.945 678.94 720.422 678.327C720.49 678.258 720.558 678.19 720.694 678.122H720.762L721.376 678.327C721.58 678.395 721.716 678.463 721.852 678.531C721.921 678.599 722.057 678.667 722.125 678.736C724.032 680.099 723.487 683.371 720.899 683.371H717.016C716.539 684.053 715.721 684.462 714.836 684.462C714.018 684.462 713.064 684.053 712.451 683.507C712.383 683.439 712.315 683.439 712.247 683.371H711.702C711.634 683.439 711.498 683.439 711.429 683.575C710.953 684.121 710.203 684.53 709.386 684.53C708.636 684.53 707.751 684.189 707.137 683.712C706.865 683.439 706.388 683.507 706.184 683.78C705.775 684.257 705.23 684.53 704.549 684.53C703.936 684.53 703.186 684.257 702.641 683.848C702.369 683.644 701.96 683.712 701.756 683.916C701.347 684.257 700.87 684.53 700.257 684.53C699.439 684.53 698.758 684.053 698.417 683.439H698.145L659.791 682.826C656.112 682.757 653.387 681.599 651.82 678.736L643.917 664.557L653.727 660.74Z" fill="black"/>
<path opacity="0.15" d="M692.218 668.102C692.218 668.102 686.223 678.667 674.982 682.485H686.359L692.218 668.102Z" fill="black"/>
<path d="M325.024 686.302H431.981C436.272 686.302 439.747 682.826 439.747 678.531V469.191C439.747 464.897 436.272 461.42 431.981 461.42H332.791C328.499 461.42 325.024 464.897 325.024 469.191V686.302Z" fill="#868A91"/>
<path opacity="0.4" d="M268.14 349.082H259.761V381.938V681.939H262.145V352.422H268.14V349.082Z" fill="black"/>
<path d="M247.226 349.082H280.607C283.673 349.082 286.193 346.559 286.193 343.492V326.109H241.708V343.492C241.708 346.559 244.16 349.082 247.226 349.082Z" fill="#61656D"/>
<path d="M259.729 681.899H268.108V349.039H259.729V681.899Z" fill="#61656D"/>
<path d="M268.14 349.082H259.761V674.168H262.077V352.217H268.14V349.082Z" fill="#21252B"/>
<path d="M247.294 343.492V339.061H241.708V343.492C241.708 346.559 244.228 349.082 247.294 349.082H252.88C249.746 349.082 247.294 346.559 247.294 343.492Z" fill="#21252B"/>
<path d="M219.09 685.961C217.523 685.961 216.978 683.78 218.409 683.098C231.625 676.691 247.226 672.941 263.916 672.941C280.607 672.941 296.208 676.622 309.424 683.098C310.854 683.78 310.378 685.961 308.743 685.961H219.09Z" fill="#61656D"/>
<path d="M269.094 673.078C267.391 673.01 265.687 672.941 263.984 672.941C247.294 672.941 231.693 676.622 218.477 683.098C217.046 683.78 217.523 685.961 219.158 685.961H234.35C238.369 680.508 253.221 674.1 269.094 673.078Z" fill="#21252B"/>
<path d="M925.478 686.643H188.229C188.025 686.643 187.889 686.507 187.889 686.302C187.889 686.098 188.025 685.961 188.229 685.961H925.478C925.682 685.961 925.819 686.098 925.819 686.302C925.819 686.507 925.682 686.643 925.478 686.643Z" fill="#B2B6BB"/>
<path d="M299.273 455.694C299.069 455.694 298.933 455.558 298.933 455.353V339.47C298.933 339.265 299.069 339.129 299.273 339.129C299.478 339.129 299.614 339.265 299.614 339.47V455.353C299.614 455.558 299.409 455.694 299.273 455.694Z" fill="#21252B"/>
<path d="M430.073 462.306H353.501C353.296 462.306 353.16 462.102 353.16 461.829C353.16 461.556 353.296 461.352 353.501 461.352H430.141C430.346 461.352 430.482 461.556 430.482 461.829C430.482 462.102 430.277 462.306 430.073 462.306Z" fill="#B2B6BB"/>
<path opacity="0.2" d="M759.049 242.06L833.169 431.427H856.536L781.121 242.06H759.049Z" fill="white"/>
<path opacity="0.2" d="M791.612 242.06L865.801 431.427H873.567L798.152 242.06H791.612Z" fill="white"/>
<path d="M929.634 431.427H821.86V242.06H877.382L874.998 233.471H698.758V440.016H931.95L929.634 431.427ZM707.41 242.06H813.276V431.427H707.41V242.06Z" fill="white"/>
<path d="M403.709 461.488H386.132C383.407 461.488 381.227 459.307 381.227 456.58V427.678H408.682V456.58C408.614 459.307 406.434 461.488 403.709 461.488Z" fill="#21252B"/>
<path d="M412.906 451.604H408.614V449.491H412.906C413.996 449.491 414.881 448.605 414.881 447.514V435.721C414.881 434.631 413.996 433.744 412.906 433.744H408.614V431.631H412.906C415.154 431.631 416.925 433.472 416.925 435.653V447.446C416.993 449.764 415.154 451.604 412.906 451.604Z" fill="#21252B"/>
<path opacity="0.6" d="M410.521 433.744V431.631H408.614V427.609H402.619V456.035C402.619 458.489 400.643 460.466 398.191 460.466H382.999C383.816 461.148 384.906 461.556 386.064 461.556H403.641C406.366 461.556 408.546 459.375 408.546 456.649V451.672H410.453V449.559H408.546V433.813H410.521V433.744Z" fill="black"/>
<path d="M390.561 425.564C390.356 425.564 390.22 425.428 390.22 425.224C390.22 422.633 388.108 420.452 385.451 420.452H383.135C381.091 420.452 379.456 418.816 379.456 416.771C379.456 414.726 381.091 413.09 383.135 413.09H396.215C397.85 413.09 399.213 411.727 399.213 410.091C399.213 408.455 397.85 407.091 396.215 407.091H393.081C390.969 407.091 389.334 405.387 389.334 403.342C389.334 403.138 389.471 403.001 389.675 403.001C389.879 403.001 390.016 403.138 390.016 403.342C390.016 405.046 391.378 406.41 393.081 406.41H396.215C398.259 406.41 399.894 408.046 399.894 410.091C399.894 412.136 398.259 413.772 396.215 413.772H383.135C381.5 413.772 380.138 415.135 380.138 416.771C380.138 418.407 381.5 419.77 383.135 419.77H385.451C388.449 419.77 390.901 422.224 390.901 425.224C390.901 425.428 390.765 425.564 390.561 425.564Z" fill="white"/>
<path d="M398.123 427.678C397.918 427.678 397.782 427.541 397.782 427.337V426.519C397.782 425.905 397.305 425.428 396.692 425.428C395.67 425.428 394.921 424.61 394.921 423.656V422.224C394.921 421.202 395.738 420.452 396.692 420.452H398.872C401.801 420.452 404.254 418.066 404.254 415.067V412.408C404.254 412.204 404.39 412.068 404.594 412.068C404.799 412.068 404.935 412.204 404.935 412.408V414.999C404.935 418.339 402.21 421.066 398.872 421.066H396.692C396.079 421.066 395.602 421.543 395.602 422.156V423.588C395.602 424.201 396.079 424.678 396.692 424.678C397.714 424.678 398.463 425.496 398.463 426.451V427.269C398.463 427.473 398.327 427.678 398.123 427.678Z" fill="white"/>
<path opacity="0.6" d="M508.144 439.13C508.896 439.13 509.507 438.52 509.507 437.766C509.507 437.014 508.896 436.403 508.144 436.403C507.392 436.403 506.782 437.014 506.782 437.766C506.782 438.52 507.392 439.13 508.144 439.13Z" fill="black"/>
<path opacity="0.6" d="M564.961 414.658C565.713 414.658 566.323 414.048 566.323 413.294C566.323 412.542 565.713 411.931 564.961 411.931C564.208 411.931 563.598 412.542 563.598 413.294C563.598 414.048 564.208 414.658 564.961 414.658Z" fill="black"/>
<path opacity="0.6" d="M538.664 388.55C539.417 388.55 540.027 387.94 540.027 387.187C540.027 386.433 539.417 385.823 538.664 385.823C537.912 385.823 537.302 386.433 537.302 387.187C537.302 387.94 537.912 388.55 538.664 388.55Z" fill="black"/>
<path opacity="0.6" d="M509.916 407.228C510.668 407.228 511.278 406.618 511.278 405.864C511.278 405.112 510.668 404.501 509.916 404.501C509.163 404.501 508.553 405.112 508.553 405.864C508.553 406.618 509.163 407.228 509.916 407.228Z" fill="black"/>
<path opacity="0.6" d="M544.319 456.717C545.072 456.717 545.681 456.107 545.681 455.353C545.681 454.6 545.072 453.99 544.319 453.99C543.566 453.99 542.956 454.6 542.956 455.353C542.956 456.107 543.566 456.717 544.319 456.717Z" fill="black"/>
<path opacity="0.6" d="M539.277 426.382C540.03 426.382 540.64 425.772 540.64 425.019C540.64 424.266 540.03 423.656 539.277 423.656C538.525 423.656 537.915 424.266 537.915 425.019C537.915 425.772 538.525 426.382 539.277 426.382Z" fill="black"/>
<path opacity="0.6" d="M485.867 380.711C486.62 380.711 487.23 380.101 487.23 379.347C487.23 378.594 486.62 377.984 485.867 377.984C485.115 377.984 484.505 378.594 484.505 379.347C484.505 380.101 485.115 380.711 485.867 380.711Z" fill="black"/>
<path opacity="0.6" d="M453.44 376.689C454.193 376.689 454.802 376.079 454.802 375.326C454.802 374.573 454.193 373.962 453.44 373.962C452.688 373.962 452.077 374.573 452.077 375.326C452.077 376.079 452.688 376.689 453.44 376.689Z" fill="black"/>
<path opacity="0.6" d="M478.374 415.408C479.127 415.408 479.736 414.798 479.736 414.044C479.736 413.292 479.127 412.681 478.374 412.681C477.622 412.681 477.011 413.292 477.011 414.044C477.011 414.798 477.622 415.408 478.374 415.408Z" fill="black"/>
<path opacity="0.6" d="M479.736 451.741C480.489 451.741 481.099 451.13 481.099 450.377C481.099 449.625 480.489 449.014 479.736 449.014C478.984 449.014 478.374 449.625 478.374 450.377C478.374 451.13 478.984 451.741 479.736 451.741Z" fill="black"/>
<path opacity="0.6" d="M434.842 401.025C435.594 401.025 436.204 400.414 436.204 399.661C436.204 398.909 435.594 398.298 434.842 398.298C434.089 398.298 433.479 398.909 433.479 399.661C433.479 400.414 434.089 401.025 434.842 401.025Z" fill="black"/>
<path d="M798.902 686.302H728.597C727.575 686.302 726.689 685.484 726.689 684.393C726.689 683.371 727.507 682.485 728.597 682.485H800.741V684.393C800.741 685.416 799.924 686.302 798.902 686.302Z" fill="#384955"/>
<path d="M800.741 682.485C800.605 678.463 798.016 674.986 794.201 673.623L770.903 665.511C769.881 665.17 768.859 665.716 768.586 666.738C767.564 670.146 765.044 677.44 760.071 682.485H728.597C727.575 682.485 726.689 683.303 726.689 684.393C726.689 685.484 727.507 686.302 728.597 686.302H798.902C799.924 686.302 800.741 685.484 800.741 684.461V682.485Z" fill="#384955"/>
<path d="M800.741 682.485C800.605 678.463 798.016 674.986 794.201 673.623L770.903 665.511C769.881 665.17 768.859 665.716 768.586 666.738C767.564 670.146 765.044 677.44 760.071 682.485H728.597C727.575 682.485 726.689 683.303 726.689 684.393C726.689 685.484 727.507 686.302 728.597 686.302H798.902C799.924 686.302 800.741 685.484 800.741 684.461V682.485Z" fill="#21252B"/>
<path opacity="0.4" d="M800.741 682.485C800.605 679.281 798.97 676.418 796.381 674.714C799.719 677.099 799.106 679.485 794.337 679.281C769.744 678.122 766.542 678.122 763.681 677.849C763.749 677.781 763.749 677.713 763.749 677.645C762.659 679.349 761.433 681.053 760.002 682.485H728.529C727.507 682.485 726.621 683.303 726.621 684.393C726.621 685.484 727.439 686.302 728.529 686.302H798.834C799.856 686.302 800.673 685.484 800.673 684.461V682.485H800.741Z" fill="black"/>
<path opacity="0.4" d="M800.673 681.871H760.616L760.003 682.485H800.673V681.871Z" fill="black"/>
<path d="M722.942 686.302H652.637C651.616 686.302 650.73 685.484 650.73 684.393C650.73 683.371 651.547 682.485 652.637 682.485H724.782V684.393C724.782 685.416 723.964 686.302 722.942 686.302Z" fill="#384955"/>
<path d="M724.782 682.485C724.646 678.463 722.057 674.986 718.242 673.623L694.943 665.511C693.921 665.17 692.899 665.716 692.627 666.738C691.605 670.146 689.084 677.44 684.111 682.485H652.637C651.616 682.485 650.73 683.303 650.73 684.393C650.73 685.484 651.547 686.302 652.637 686.302H722.942C723.964 686.302 724.782 685.484 724.782 684.461V682.485Z" fill="#384955"/>
<path d="M724.782 682.485C724.646 678.463 722.057 674.986 718.242 673.623L694.943 665.511C693.921 665.17 692.899 665.716 692.627 666.738C691.605 670.146 689.084 677.44 684.111 682.485H652.637C651.616 682.485 650.73 683.303 650.73 684.393C650.73 685.484 651.547 686.302 652.637 686.302H722.942C723.964 686.302 724.782 685.484 724.782 684.461V682.485Z" fill="#21252B"/>
<path opacity="0.4" d="M724.782 682.485C724.646 679.281 723.011 676.418 720.422 674.714C723.76 677.099 723.147 679.485 718.378 679.281C693.785 678.122 690.583 678.122 687.722 677.849C687.79 677.781 687.79 677.713 687.79 677.645C686.7 679.349 685.474 681.053 684.043 682.485H652.637C651.616 682.485 650.73 683.303 650.73 684.393C650.73 685.484 651.547 686.302 652.637 686.302H722.942C723.964 686.302 724.782 685.484 724.782 684.461V682.485Z" fill="black"/>
<path opacity="0.4" d="M724.782 681.871H684.656L684.111 682.485H724.782V681.871Z" fill="black"/>
<path d="M879.902 591.618L848.633 625.565L848.838 563.125H848.02L847.952 593.391L821.519 566.465L820.974 567.01L847.952 594.55L847.748 651.128H848.565L848.633 626.724L880.448 592.164L879.902 591.618Z" fill="#21252B"/>
<path d="M824.585 625.497L824.04 626.043L837.801 638.994L839.981 651.196L840.731 651.06L832.079 602.252L831.261 602.389L837.597 637.699L824.585 625.497Z" fill="#21252B"/>
<path d="M834.736 686.302H854.151C857.762 686.302 860.759 683.371 860.759 679.69V653.991H828.128V679.69C828.128 683.303 831.057 686.302 834.736 686.302Z" fill="#61656D"/>
<path d="M848.429 563.193C859.642 563.193 868.73 554.098 868.73 542.879C868.73 531.661 859.642 522.566 848.429 522.566C837.215 522.566 828.128 531.661 828.128 542.879C828.128 554.098 837.215 563.193 848.429 563.193Z" fill="#384955"/>
<path d="M830.239 604.298C838.251 604.298 844.75 597.797 844.75 589.778C844.75 581.76 838.251 575.259 830.239 575.259C822.228 575.259 815.729 581.76 815.729 589.778C815.729 597.797 822.228 604.298 830.239 604.298Z" fill="#384955"/>
<g opacity="0.3">
<path opacity="0.3" d="M830.239 604.298C838.251 604.298 844.75 597.797 844.75 589.778C844.75 581.76 838.251 575.259 830.239 575.259C822.228 575.259 815.729 581.76 815.729 589.778C815.729 597.797 822.228 604.298 830.239 604.298Z" fill="white"/>
</g>
<g opacity="0.3">
<path opacity="0.3" d="M848.429 563.193C859.642 563.193 868.73 554.098 868.73 542.879C868.73 531.661 859.642 522.566 848.429 522.566C837.215 522.566 828.128 531.661 828.128 542.879C828.128 554.098 837.215 563.193 848.429 563.193Z" fill="white"/>
</g>
<path d="M817.296 571.441C822.071 571.441 825.948 567.565 825.948 562.784C825.948 558.003 822.071 554.127 817.296 554.127C812.52 554.127 808.644 558.003 808.644 562.784C808.644 567.565 812.52 571.441 817.296 571.441Z" fill="#384955"/>
<path d="M817.091 629.315C822.773 629.315 827.378 624.706 827.378 619.021C827.378 613.336 822.773 608.728 817.091 608.728C811.41 608.728 806.804 613.336 806.804 619.021C806.804 624.706 811.41 629.315 817.091 629.315Z" fill="#384955"/>
<path d="M872.136 613.909C879.398 613.909 885.284 608.019 885.284 600.753C885.284 593.487 879.398 587.597 872.136 587.597C864.874 587.597 858.988 593.487 858.988 600.753C858.988 608.019 864.874 613.909 872.136 613.909Z" fill="#384955"/>
<path d="M861.441 650.515H827.446C826.492 650.515 825.743 651.264 825.743 652.219C825.743 653.173 826.492 653.923 827.446 653.923H861.441C862.394 653.923 863.144 653.173 863.144 652.219C863.144 651.264 862.394 650.515 861.441 650.515Z" fill="#61656D"/>
<path d="M828.128 542.879C828.128 531.632 837.256 522.566 848.429 522.566V563.261C837.188 563.193 828.128 554.127 828.128 542.879Z" fill="#384955"/>
<path d="M832.351 604.161C824.517 605.32 817.227 600.003 815.865 592.164C814.571 584.461 819.612 577.099 827.242 575.531L832.351 604.161Z" fill="#384955"/>
<path opacity="0.3" d="M811.164 568.919C807.758 565.579 807.69 560.057 811.096 556.649C811.096 556.649 811.164 556.581 811.232 556.581L823.359 568.987C820.021 572.259 814.571 572.259 811.164 568.919Z" fill="black"/>
<path opacity="0.3" d="M824.381 626.247C820.361 630.337 813.821 630.337 809.802 626.315C805.783 622.362 805.714 615.886 809.598 611.864L824.585 625.975C824.585 626.111 824.517 626.179 824.381 626.247Z" fill="black"/>
<path d="M860.691 653.991H830.989C830.035 653.991 829.286 653.241 829.286 652.287C829.286 651.332 830.035 650.583 830.989 650.583H827.378C826.424 650.583 825.675 651.332 825.675 652.287C825.675 653.241 826.424 653.991 827.378 653.991H828.059V654.536V679.69C828.059 683.303 830.989 686.302 834.667 686.302H845.023C845.159 686.302 845.227 686.302 845.227 686.302C840.594 686.302 836.643 683.03 835.758 678.531L831.057 654.536H860.623V653.991H860.691Z" fill="#3F4249"/>
<path opacity="0.3" d="M881.061 591.073C880.993 591.005 880.924 591.005 880.924 590.937L863.212 610.364L863.28 610.432C868.594 615.34 876.973 615 881.878 609.683C886.715 604.297 886.374 595.981 881.061 591.073Z" fill="black"/>
<path d="M878.881 247.581H707.41V244.446H878.063L878.881 247.581Z" fill="white"/>
<path d="M880.447 253.103H707.41V249.967H879.562L880.447 253.103Z" fill="white"/>
<path d="M881.946 258.624H707.41V255.489H881.061L881.946 258.624Z" fill="white"/>
<path d="M883.513 264.146H707.41V261.01H882.627L883.513 264.146Z" fill="white"/>
<path d="M885.012 269.667H707.41V266.532H884.126L885.012 269.667Z" fill="white"/>
<path d="M886.511 275.189H707.41V271.985H885.625L886.511 275.189Z" fill="white"/>
<path d="M711.429 330.063H711.293V242.128H710.544V330.063H710.408C709.794 330.063 709.249 330.54 709.249 331.222V343.492C709.249 344.105 709.726 344.651 710.408 344.651H711.429C712.043 344.651 712.587 344.173 712.587 343.492V331.222C712.587 330.54 712.111 330.063 711.429 330.063Z" fill="white"/>
<path opacity="0.2" d="M547.248 400.275L553.72 464.147L559.374 469.736L564.552 466.328L553.243 404.978C552.085 399.934 547.248 399.525 547.248 400.275Z" fill="black"/>
<path opacity="0.2" d="M709.113 244.446H707.41V247.581H709.113V244.446Z" fill="black"/>
<path opacity="0.2" d="M709.113 249.967H707.41V253.103H709.113V249.967Z" fill="black"/>
<path opacity="0.2" d="M709.113 255.489H707.41V258.624H709.113V255.489Z" fill="black"/>
<path opacity="0.2" d="M709.113 261.01H707.41V264.146H709.113V261.01Z" fill="black"/>
<path opacity="0.2" d="M709.113 266.464H707.41V269.599H709.113V266.464Z" fill="black"/>
<path opacity="0.2" d="M709.113 271.985H707.41V275.121H709.113V271.985Z" fill="black"/>
<path opacity="0.2" d="M821.86 247.581H813.276V248.945H821.86V247.581Z" fill="black"/>
<path opacity="0.2" d="M821.86 253.103H813.276V254.466H821.86V253.103Z" fill="black"/>
<path opacity="0.2" d="M821.86 258.624H813.276V259.988H821.86V258.624Z" fill="black"/>
<path opacity="0.2" d="M821.86 264.146H813.276V265.509H821.86V264.146Z" fill="black"/>
<path opacity="0.2" d="M821.86 269.667H813.276V271.031H821.86V269.667Z" fill="black"/>
<path opacity="0.2" d="M821.86 275.189H813.276V276.552H821.86V275.189Z" fill="black"/>
<path d="M235.372 245.536H293.142L325.297 337.357H202.536L235.372 245.536Z" fill="#384955"/>
<path d="M235.372 245.536H253.629L241.026 337.357H202.536L235.372 245.536Z" fill="#384955"/>
<path d="M235.33 245.557H293.168V241.399H235.33V245.557Z" fill="#384955"/>
<path d="M202.572 341.469H325.333V337.31H202.572V341.469Z" fill="#384955"/>
<path opacity="0.4" d="M235.372 245.536H293.142L325.297 337.357H202.536L235.372 245.536Z" fill="white"/>
<path opacity="0.4" d="M249.678 245.536H293.142L325.297 337.357H235.849L249.678 245.536Z" fill="white"/>
<path opacity="0.6" d="M477.011 363.26C477.011 363.26 476.33 366.055 478.51 367.418C480.963 368.85 490.432 375.189 503.784 371.168C503.784 371.168 508.008 370.009 512.027 367.078C512.913 366.396 513.594 365.442 513.731 364.283C513.731 364.146 513.731 364.078 513.731 363.942V362.988C513.731 362.988 513.731 362.988 517.477 363.874C517.477 365.033 517.137 367.214 515.229 369.123C514.139 370.213 497.994 382.688 477.42 371.168C477.42 371.168 472.924 369.395 473.401 364.146C477.011 363.26 477.011 363.26 477.011 363.26Z" fill="black"/>
<path d="M528.65 462.306L538.324 463.601L558.966 461.761C561.146 461.965 562.099 462.374 563.734 463.806L576.474 475.19C577.291 475.94 577.359 477.167 576.678 477.985C575.997 478.803 574.771 479.007 573.885 478.325L561.827 469.464L569.661 478.734C570.547 479.757 570.138 481.393 568.844 481.87C568.094 482.143 567.345 481.938 566.8 481.461L556.309 471.168L564.279 479.007C565.233 479.961 564.893 481.529 563.666 482.006C563.053 482.279 562.372 482.143 561.895 481.802L550.723 473.622L558.284 479.212C559.17 479.825 559.17 481.188 558.284 481.802C557.808 482.143 557.194 482.211 556.718 482.006L546.567 477.78C545.613 477.371 544.455 477.371 543.501 477.848L539.618 479.757C536.484 481.325 532.942 482.143 529.468 482.143H523.132C514.071 482.143 528.65 462.306 528.65 462.306Z" fill="#FC9D9D"/>
<path opacity="0.15" d="M468.564 454.603L465.157 454.331C464.136 454.263 463.591 453.172 463.999 452.286L467.61 444.992L468.564 454.603Z" fill="black"/>
<path opacity="0.15" d="M558.284 479.553C558.216 479.553 558.148 479.553 558.08 479.484L551.131 474.372C550.995 474.236 550.927 474.031 551.063 473.895C551.199 473.758 551.404 473.69 551.54 473.827L558.489 478.939C558.625 479.075 558.693 479.28 558.557 479.416C558.489 479.484 558.353 479.553 558.284 479.553Z" fill="black"/>
<path opacity="0.15" d="M564.211 479.348C564.143 479.348 564.007 479.348 564.007 479.28L556.513 471.918C556.377 471.781 556.377 471.577 556.513 471.441C556.649 471.304 556.854 471.304 556.99 471.441L564.484 478.803C564.62 478.939 564.62 479.143 564.484 479.28C564.416 479.348 564.279 479.348 564.211 479.348Z" fill="black"/>
<path opacity="0.15" d="M548.815 476.553C551.131 477.712 555.014 479.689 556.377 480.439C558.284 481.529 558.829 480.098 558.829 480.098C558.966 480.711 558.761 481.393 558.216 481.802C557.739 482.143 557.126 482.211 556.649 482.006L546.499 477.78C545.545 477.371 544.387 477.371 543.433 477.848L545.409 476.689C546.499 476.076 547.725 476.076 548.815 476.553Z" fill="black"/>
<path d="M527.083 463.124L468.564 454.535L464.749 417.453L428.234 419.293L435.659 466.669C437.09 475.599 444.72 482.143 453.712 482.143H520.271L527.083 463.124Z" fill="#384955"/>
<path d="M535.054 463.124L468.564 454.604L464.749 417.521L428.234 419.361L435.659 466.737C437.09 475.667 444.72 482.211 453.713 482.211H528.446L535.054 463.124Z" fill="#384955"/>
<path opacity="0.6" d="M450.102 427.746C450.855 427.746 451.464 427.136 451.464 426.382C451.464 425.629 450.855 425.019 450.102 425.019C449.35 425.019 448.739 425.629 448.739 426.382C448.739 427.136 449.35 427.746 450.102 427.746Z" fill="black"/>
<path opacity="0.6" d="M528.446 462.306L535.054 463.124L528.514 482.143H520.339L528.446 462.306Z" fill="black"/>
<g opacity="0.2">
<path opacity="0.2" d="M529.127 461.829C529.059 462.102 528.854 462.238 528.65 462.238H528.582L468.496 453.513L468.359 452.422L528.718 461.216C528.991 461.284 529.195 461.556 529.127 461.829Z" fill="black"/>
</g>
<path d="M462.978 437.357C462.433 437.357 462.024 436.948 461.956 436.403L461.615 433.063C461.547 432.517 461.956 431.972 462.569 431.972C463.114 431.904 463.659 432.313 463.659 432.926L463.999 436.267C464.068 436.812 463.659 437.357 463.046 437.357C463.046 437.357 463.046 437.357 462.978 437.357Z" fill="white"/>
<path d="M437.567 448.468C437.363 448.468 437.09 448.4 436.886 448.196C436.477 447.855 436.409 447.173 436.749 446.764L438.725 444.378C439.066 443.969 439.747 443.901 440.156 444.242C440.564 444.583 440.633 445.265 440.292 445.674L438.316 448.059C438.112 448.332 437.839 448.468 437.567 448.468Z" fill="white"/>
<path d="M467.882 471.032C467.814 471.032 467.678 471.032 467.61 470.964L464.272 469.941C463.727 469.805 463.454 469.191 463.591 468.646C463.727 468.101 464.34 467.828 464.885 467.964L468.223 468.987C468.768 469.123 469.041 469.737 468.904 470.282C468.768 470.759 468.359 471.032 467.882 471.032Z" fill="white"/>
<path d="M496.972 472.054C496.768 472.054 496.495 471.986 496.359 471.85C495.95 471.509 495.882 470.827 496.223 470.418L498.334 467.828C498.675 467.419 499.356 467.351 499.765 467.691C500.174 468.032 500.242 468.714 499.901 469.123L497.789 471.713C497.517 471.918 497.244 472.054 496.972 472.054Z" fill="white"/>
<path opacity="0.6" d="M483.415 464.488C484.168 464.488 484.777 463.878 484.777 463.124C484.777 462.372 484.168 461.761 483.415 461.761C482.663 461.761 482.052 462.372 482.052 463.124C482.052 463.878 482.663 464.488 483.415 464.488Z" fill="black"/>
<path opacity="0.6" d="M508.144 479.484C508.896 479.484 509.507 478.874 509.507 478.121C509.507 477.368 508.896 476.758 508.144 476.758C507.392 476.758 506.782 477.368 506.782 478.121C506.782 478.874 507.392 479.484 508.144 479.484Z" fill="black"/>
<path opacity="0.6" d="M454.462 453.104C455.215 453.104 455.824 452.494 455.824 451.741C455.824 450.988 455.215 450.377 454.462 450.377C453.71 450.377 453.099 450.988 453.099 451.741C453.099 452.494 453.71 453.104 454.462 453.104Z" fill="black"/>
<path opacity="0.15" d="M529.604 478.735L528.514 482.075H453.781C444.788 482.075 437.09 475.531 435.727 466.601L425.032 398.093C423.192 385.823 431.027 374.167 443.085 371.304L449.421 369.804C439.747 374.099 433.888 384.392 435.523 395.162L445.401 458.285C446.832 467.214 454.462 473.758 463.454 473.758L529.604 478.735Z" fill="black"/>
<path opacity="0.15" d="M536.212 478.803C534.645 478.803 533.419 477.371 533.555 475.803L535.054 463.124L528.446 482.143H529.399C532.942 482.143 536.416 481.325 539.55 479.757L544.182 477.576C543.092 477.712 540.231 478.803 536.212 478.803Z" fill="black"/>
<path d="M519.385 481.598H586.556C587.101 481.598 587.578 482.075 587.578 482.62V484.324C587.578 484.87 587.101 485.347 586.556 485.347H519.385C518.84 485.347 518.363 484.87 518.363 484.324V482.62C518.363 482.075 518.772 481.598 519.385 481.598Z" fill="#21252B"/>
<path opacity="0.6" d="M519.385 481.598H586.556C587.101 481.598 587.578 482.075 587.578 482.62V484.324C587.578 484.87 587.101 485.347 586.556 485.347H519.385C518.84 485.347 518.363 484.87 518.363 484.324V482.62C518.363 482.075 518.772 481.598 519.385 481.598Z" fill="black"/>
<path d="M564.688 481.598H681.795C682.34 481.598 682.817 482.075 682.817 482.62V484.324C682.817 484.87 682.34 485.347 681.795 485.347H564.688C564.143 485.347 563.666 484.87 563.666 484.324V482.62C563.734 482.075 564.143 481.598 564.688 481.598Z" fill="#21252B"/>
<g opacity="0.6">
<path opacity="0.6" d="M680.296 482.279H561.077C560.873 482.279 560.737 482.143 560.737 481.938C560.737 481.734 560.873 481.598 561.077 481.598H680.296C680.501 481.598 680.637 481.734 680.637 481.938C680.637 482.143 680.432 482.279 680.296 482.279Z" fill="black"/>
</g>
<path d="M564.416 481.598H582.06C583.423 481.598 584.581 480.643 584.853 479.28L599.636 401.502C599.977 399.729 598.614 398.161 596.843 398.161H579.199C577.836 398.161 576.678 399.116 576.406 400.479L561.623 478.257C561.35 480.03 562.644 481.598 564.416 481.598Z" fill="#21252B"/>
<path opacity="0.6" d="M564.416 481.598H582.06C583.423 481.598 584.581 480.643 584.853 479.28L599.636 401.502C599.977 399.729 598.614 398.161 596.843 398.161H579.199C577.836 398.161 576.678 399.116 576.406 400.479L561.623 478.257C561.35 480.03 562.644 481.598 564.416 481.598Z" fill="black"/>
<path d="M566.936 481.598H680.228C681.591 481.598 682.749 480.643 683.021 479.28L697.804 401.502C698.145 399.729 696.783 398.161 695.011 398.161H581.788C580.425 398.161 579.267 399.116 578.994 400.479L564.211 478.257C563.871 480.03 565.165 481.598 566.936 481.598Z" fill="#21252B"/>
<path opacity="0.6" d="M631.655 437.698C630.974 439.266 631.723 440.629 633.29 440.629C633.358 440.629 633.494 440.629 633.563 440.629C631.723 442.674 628.93 444.106 626.477 444.038C623.139 443.97 621.572 441.243 623.071 437.903C624.502 434.563 628.453 431.972 631.791 432.04C633.903 432.109 635.334 433.199 635.674 434.903C634.107 434.972 632.336 436.13 631.655 437.698Z" fill="black"/>
<path d="M516.796 322.701C516.796 322.701 485.595 299.797 482.529 324.746L481.644 331.29L477.011 363.261V363.328L476.943 364.01C476.807 364.964 477.079 365.851 477.624 366.533V366.6L477.692 366.669C477.897 366.942 478.169 367.214 478.51 367.418C481.031 368.986 482.666 369.804 484.709 370.554C493.974 374.099 504.67 372.735 512.845 366.464C513.458 365.714 513.799 364.76 513.731 363.737L513.186 347.105C513.731 345.4 514.071 343.492 514.276 341.379C515.297 331.563 516.796 322.701 516.796 322.701Z" fill="#FC9D9D"/>
<path d="M520.339 324.473C526.471 324.473 531.443 319.499 531.443 313.362C531.443 307.226 526.471 302.251 520.339 302.251C514.206 302.251 509.234 307.226 509.234 313.362C509.234 319.499 514.206 324.473 520.339 324.473Z" fill="#21252B"/>
<path d="M521.769 305.318C521.769 305.318 529.808 354.876 504.534 356.307C482.666 357.602 482.802 323.723 482.802 323.723L485.459 301.91L521.769 305.318Z" fill="#FC9D9D"/>
<path d="M520.134 308.25H497.926C495.133 308.25 492.884 310.499 492.884 313.294C492.884 316.089 490.636 318.338 487.843 318.338C487.094 318.338 486.481 318.952 486.481 319.702V324.61C486.481 325.223 486.004 325.769 485.323 325.769C484.778 325.769 484.301 325.36 484.233 324.814L483.551 320.111L482.666 318.475L477.216 321.338C477.216 321.338 469.722 307.704 474.627 296.184C477.42 289.572 484.301 287.732 487.434 287.527C488.456 287.459 489.41 286.914 490.023 286.096C491.454 283.982 494.86 280.438 501.809 281.256C507.123 281.869 509.916 284.937 511.21 287.459C512.028 288.89 513.799 289.572 515.366 289.027C517.682 288.209 521.02 287.8 524.631 290.39C531.716 295.298 527.901 307.636 520.134 308.25Z" fill="#21252B"/>
<path opacity="0.15" d="M481.371 332.926C481.371 332.926 483.415 333.267 484.573 332.449L480.69 337.63L481.371 332.926Z" fill="black"/>
<path d="M483.551 320.043C483.551 320.043 482.257 315.339 477.352 317.111C471.766 319.088 471.902 331.563 481.099 332.926C485.936 333.676 485.118 330.813 484.573 326.996C483.551 320.043 483.551 320.043 483.551 320.043Z" fill="#FC9D9D"/>
<path opacity="0.3" d="M476.875 320.247C477.829 319.702 478.783 319.497 479.6 319.77C480.418 320.042 481.099 320.656 481.576 321.61C482.053 322.633 482.325 323.792 482.257 325.019V326.109C482.257 326.45 481.984 326.655 481.644 326.655C481.303 326.655 481.099 326.382 481.099 326.041V324.95C481.167 324.678 481.031 323.042 480.554 322.087C480.213 321.406 479.736 320.929 479.259 320.792C478.783 320.656 478.169 320.792 477.42 321.201C477.148 321.338 476.807 321.269 476.671 320.997C476.534 320.792 476.603 320.451 476.875 320.247Z" fill="black"/>
<path d="M520.202 309.273L517.614 309.341C517.341 309.341 517.069 309.137 517.069 308.864C517.069 308.591 517.273 308.319 517.546 308.319L520.134 308.25C520.475 308.25 520.816 308.182 521.088 308.114C521.701 307.978 522.927 307.569 524.154 306.887C524.426 306.751 524.699 306.819 524.835 307.092C524.971 307.364 524.903 307.637 524.631 307.773C523.336 308.523 521.974 308.932 521.292 309.068C521.02 309.205 520.611 309.273 520.202 309.273Z" fill="#FC9D9D"/>
<path opacity="0.15" d="M513.731 360.942L513.458 353.035C511.21 355.08 504.943 357.739 498.334 355.625C494.247 354.262 491.59 351.74 490.023 349.559C489.887 349.354 489.546 349.286 489.342 349.422C489.138 349.559 489.069 349.899 489.206 350.104C491.181 352.762 494.656 355.966 500.242 357.125C506.85 362.306 513.731 360.942 513.731 360.942Z" fill="black"/>
<g opacity="0.3">
<path opacity="0.3" d="M507.191 346.559H507.123C505.147 346.559 504.125 346.559 504.125 346.559C503.784 346.559 503.444 346.287 503.444 345.878C503.444 345.537 503.716 345.196 504.125 345.196C504.125 345.196 505.147 345.196 507.123 345.196C507.463 345.196 507.804 345.469 507.804 345.878C507.736 346.219 507.463 346.491 507.191 346.559Z" fill="black"/>
</g>
<g opacity="0.3">
<path opacity="0.3" d="M508.417 343.764C502.899 344.173 500.651 341.038 499.901 339.47C499.765 339.129 499.901 338.788 500.174 338.652C500.514 338.516 500.855 338.652 500.991 338.925C501.741 340.424 504.193 343.764 510.938 342.06C511.278 341.992 511.619 342.197 511.687 342.538C511.755 342.878 511.551 343.219 511.21 343.287C510.256 343.56 509.303 343.696 508.417 343.764Z" fill="black"/>
</g>
<path d="M502.081 330.131C503.173 330.131 504.057 329.246 504.057 328.154C504.057 327.063 503.173 326.177 502.081 326.177C500.99 326.177 500.106 327.063 500.106 328.154C500.106 329.246 500.99 330.131 502.081 330.131Z" fill="#21252B"/>
<path d="M503.035 329.041C503.261 329.041 503.444 328.858 503.444 328.632C503.444 328.406 503.261 328.223 503.035 328.223C502.81 328.223 502.626 328.406 502.626 328.632C502.626 328.858 502.81 329.041 503.035 329.041Z" fill="white"/>
<path d="M517.886 331.358C518.977 331.358 519.862 330.473 519.862 329.381C519.862 328.29 518.977 327.405 517.886 327.405C516.795 327.405 515.911 328.29 515.911 329.381C515.911 330.473 516.795 331.358 517.886 331.358Z" fill="#21252B"/>
<path d="M518.84 330.199C519.065 330.199 519.249 330.017 519.249 329.79C519.249 329.565 519.065 329.381 518.84 329.381C518.614 329.381 518.431 329.565 518.431 329.79C518.431 330.017 518.614 330.199 518.84 330.199Z" fill="white"/>
<g opacity="0.3">
<path opacity="0.3" d="M510.256 338.993H507.531C507.191 338.993 506.918 338.721 506.918 338.38C506.918 338.039 507.191 337.766 507.531 337.766H510.256C510.937 337.766 511.482 337.221 511.482 336.539C511.482 335.858 510.937 335.312 510.256 335.312C509.916 335.312 509.643 335.04 509.643 334.699C509.643 334.358 509.916 334.085 510.256 334.085C511.551 334.085 512.641 335.176 512.641 336.471C512.641 337.903 511.619 338.993 510.256 338.993Z" fill="black"/>
</g>
<path d="M524.017 324.541L515.297 323.928L514.139 323.86L506.509 323.314H506.441L496.631 322.633C495.064 322.496 493.634 323.723 493.566 325.291L493.429 327.541C493.157 331.835 496.359 335.653 500.719 335.925C505.011 336.198 508.826 332.994 509.098 328.631L509.234 326.382C509.302 325.7 509.098 325.087 508.757 324.61L511.823 324.814C511.414 325.291 511.142 325.837 511.074 326.518L510.937 328.768C510.665 333.062 513.867 336.88 518.227 337.152C522.519 337.425 526.334 334.221 526.606 329.858L526.742 327.609C526.811 326.109 525.584 324.678 524.017 324.541ZM508.008 326.382L507.872 328.631C507.599 332.312 504.397 335.107 500.719 334.835C497.04 334.562 494.247 331.358 494.519 327.677L494.656 325.428C494.724 324.473 495.541 323.723 496.495 323.792L506.305 324.473H506.373C507.327 324.541 508.076 325.428 508.008 326.382ZM525.38 329.79C525.107 333.471 521.906 336.266 518.227 335.993C514.548 335.721 511.755 332.517 512.027 328.836L512.164 326.586C512.232 325.632 513.049 324.882 514.003 324.95L515.161 325.019L523.881 325.632C524.835 325.7 525.584 326.518 525.516 327.473L525.38 329.79Z" fill="#21252B"/>
<path d="M416.312 686.302H467.406V469.191C467.406 464.897 463.931 461.42 459.639 461.42H424.078C419.786 461.42 416.312 464.897 416.312 469.191V686.302Z" fill="#B2B6BB"/>
</svg>
